solid OpenSCAD_Model
  facet normal -1 -0 -0
    outer loop
      vertex -18.8582 14.5139 0
      vertex -18.8582 14.5139 5
      vertex -18.8582 16.4861 0
    endloop
  endfacet
  facet normal -1 0 0
    outer loop
      vertex -18.8582 16.4861 0
      vertex -18.8582 14.5139 5
      vertex -18.8582 16.4861 5
    endloop
  endfacet
  facet normal -0.97896 -0.20405 -0
    outer loop
      vertex -18.8582 14.5139 0
      vertex -15.833 0 0
      vertex -18.8582 14.5139 5
    endloop
  endfacet
  facet normal -0.97896 -0.20405 0
    outer loop
      vertex -18.8582 14.5139 5
      vertex -15.833 0 0
      vertex -15.833 0 5
    endloop
  endfacet
  facet normal -0 -0 -1
    outer loop
      vertex -18.8582 14.5139 0
      vertex -18.8582 16.4861 0
      vertex -15.833 0 0
    endloop
  endfacet
  facet normal 0 0 -1
    outer loop
      vertex -15.833 0 0
      vertex -18.8582 16.4861 0
      vertex -17.792 18.1451 0
    endloop
  endfacet
  facet normal 0 -0 -1
    outer loop
      vertex -16.7135 16.3817 0
      vertex -17.792 18.1451 0
      vertex -15.9981 18.9644 0
    endloop
  endfacet
  facet normal 0 -0 -1
    outer loop
      vertex 1.30661 12.4315 0
      vertex -15.9981 18.9644 0
      vertex 15.0019 18.9644 0
    endloop
  endfacet
  facet normal 0 0 -1
    outer loop
      vertex 3.86271 11.8882 0
      vertex 15.0019 18.9644 0
      vertex 16.954 18.6837 0
    endloop
  endfacet
  facet normal 0 0 -1
    outer loop
      vertex 15.9635 16.9266 0
      vertex 16.954 18.6837 0
      vertex 18.4444 17.3922 0
    endloop
  endfacet
  facet normal -0 0 -1
    outer loop
      vertex 17 15.5 0
      vertex 18.4444 17.3922 0
      vertex 19 15.5 0
    endloop
  endfacet
  facet normal -0 0 -1
    outer loop
      vertex 12.5 0 0
      vertex 19 15.5 0
      vertex 15.822 0 0
    endloop
  endfacet
  facet normal -0 0 -1
    outer loop
      vertex 12.2268 2.5989 0
      vertex 19 15.5 0
      vertex 12.5 0 0
    endloop
  endfacet
  facet normal -0 0 -1
    outer loop
      vertex 11.4193 5.08421 0
      vertex 19 15.5 0
      vertex 12.2268 2.5989 0
    endloop
  endfacet
  facet normal -0 0 -1
    outer loop
      vertex 10.1127 7.34732 0
      vertex 19 15.5 0
      vertex 11.4193 5.08421 0
    endloop
  endfacet
  facet normal 0 0 -1
    outer loop
      vertex -14 15.5 0
      vertex -10.1127 7.34732 0
      vertex -15.0365 14.0734 0
    endloop
  endfacet
  facet normal -0 0 -1
    outer loop
      vertex 8.36413 9.28931 0
      vertex 19 15.5 0
      vertex 10.1127 7.34732 0
    endloop
  endfacet
  facet normal -0 -0 -1
    outer loop
      vertex -15.0365 16.9266 0
      vertex -15.9981 18.9644 0
      vertex -14 15.5 0
    endloop
  endfacet
  facet normal -0 0 -1
    outer loop
      vertex 15.9635 14.0734 0
      vertex 19 15.5 0
      vertex 8.36413 9.28931 0
    endloop
  endfacet
  facet normal 0 0 -1
    outer loop
      vertex 3.86271 11.8882 0
      vertex 16.954 18.6837 0
      vertex 14.2865 16.3817 0
    endloop
  endfacet
  facet normal -0 0 -1
    outer loop
      vertex 1.30661 12.4315 0
      vertex 15.0019 18.9644 0
      vertex 3.86271 11.8882 0
    endloop
  endfacet
  facet normal -0 -0 -1
    outer loop
      vertex -1.30661 12.4315 0
      vertex -15.9981 18.9644 0
      vertex 1.30661 12.4315 0
    endloop
  endfacet
  facet normal 0 -0 -1
    outer loop
      vertex -11.4193 5.08421 0
      vertex -15.833 0 0
      vertex -10.1127 7.34732 0
    endloop
  endfacet
  facet normal 0 -0 -1
    outer loop
      vertex -3.86271 11.8882 0
      vertex -15.9981 18.9644 0
      vertex -1.30661 12.4315 0
    endloop
  endfacet
  facet normal 0 -0 -1
    outer loop
      vertex -6.25 10.8253 0
      vertex -15.9981 18.9644 0
      vertex -3.86271 11.8882 0
    endloop
  endfacet
  facet normal 0 -0 -1
    outer loop
      vertex -8.36413 9.28931 0
      vertex -15.9981 18.9644 0
      vertex -6.25 10.8253 0
    endloop
  endfacet
  facet normal -0 -0 -1
    outer loop
      vertex -14 15.5 0
      vertex -15.9981 18.9644 0
      vertex -8.36413 9.28931 0
    endloop
  endfacet
  facet normal 0 0 -1
    outer loop
      vertex 14.2865 14.6183 0
      vertex 3.86271 11.8882 0
      vertex 14.2865 16.3817 0
    endloop
  endfacet
  facet normal 0 -0 -1
    outer loop
      vertex -12.2268 2.5989 0
      vertex -15.833 0 0
      vertex -11.4193 5.08421 0
    endloop
  endfacet
  facet normal 0 -0 -1
    outer loop
      vertex -12.5 0 0
      vertex -15.833 0 0
      vertex -12.2268 2.5989 0
    endloop
  endfacet
  facet normal 0 0 -1
    outer loop
      vertex -16.7135 16.3817 0
      vertex -15.9981 18.9644 0
      vertex -15.0365 16.9266 0
    endloop
  endfacet
  facet normal 0 0 -1
    outer loop
      vertex -16.7135 14.6183 0
      vertex -17.792 18.1451 0
      vertex -16.7135 16.3817 0
    endloop
  endfacet
  facet normal 0 0 -1
    outer loop
      vertex -15.0365 14.0734 0
      vertex -15.833 0 0
      vertex -16.7135 14.6183 0
    endloop
  endfacet
  facet normal 0 0 -1
    outer loop
      vertex -15.833 0 0
      vertex -17.792 18.1451 0
      vertex -16.7135 14.6183 0
    endloop
  endfacet
  facet normal 0 0 -1
    outer loop
      vertex -15.833 0 0
      vertex -15.0365 14.0734 0
      vertex -10.1127 7.34732 0
    endloop
  endfacet
  facet normal 0 0 -1
    outer loop
      vertex 14.2865 14.6183 0
      vertex 6.25 10.8253 0
      vertex 3.86271 11.8882 0
    endloop
  endfacet
  facet normal 0 -0 -1
    outer loop
      vertex -10.1127 7.34732 0
      vertex -14 15.5 0
      vertex -8.36413 9.28931 0
    endloop
  endfacet
  facet normal 0 0 -1
    outer loop
      vertex 15.9635 14.0734 0
      vertex 6.25 10.8253 0
      vertex 14.2865 14.6183 0
    endloop
  endfacet
  facet normal -0 0 -1
    outer loop
      vertex 15.9635 16.9266 0
      vertex 18.4444 17.3922 0
      vertex 17 15.5 0
    endloop
  endfacet
  facet normal 0 0 -1
    outer loop
      vertex 14.2865 16.3817 0
      vertex 16.954 18.6837 0
      vertex 15.9635 16.9266 0
    endloop
  endfacet
  facet normal 0 0 -1
    outer loop
      vertex 17 15.5 0
      vertex 19 15.5 0
      vertex 15.9635 14.0734 0
    endloop
  endfacet
  facet normal -0 0 -1
    outer loop
      vertex 6.25 10.8253 0
      vertex 15.9635 14.0734 0
      vertex 8.36413 9.28931 0
    endloop
  endfacet
  facet normal -0.841254 0.54064 0
    outer loop
      vertex -18.8582 16.4861 0
      vertex -18.8582 16.4861 5
      vertex -17.792 18.1451 0
    endloop
  endfacet
  facet normal -0.841254 0.54064 0
    outer loop
      vertex -17.792 18.1451 0
      vertex -18.8582 16.4861 5
      vertex -17.792 18.1451 5
    endloop
  endfacet
  facet normal 0 -0 1
    outer loop
      vertex -18.8582 16.4861 5
      vertex -18.8582 14.5139 5
      vertex -15.833 0 5
    endloop
  endfacet
  facet normal -0 0 1
    outer loop
      vertex -15.1613 3.22263 5
      vertex -18.8582 16.4861 5
      vertex -15.5 0 5
    endloop
  endfacet
  facet normal -0 0 1
    outer loop
      vertex -15.5 0 5
      vertex -18.8582 16.4861 5
      vertex -15.833 0 5
    endloop
  endfacet
  facet normal -0 0 1
    outer loop
      vertex -14.16 6.30442 5
      vertex -18.8582 16.4861 5
      vertex -15.1613 3.22263 5
    endloop
  endfacet
  facet normal -0 0 1
    outer loop
      vertex -12.5398 9.11067 5
      vertex -18.8582 16.4861 5
      vertex -14.16 6.30442 5
    endloop
  endfacet
  facet normal -0 -0 1
    outer loop
      vertex -16.7135 14.6183 5
      vertex -18.8582 16.4861 5
      vertex -12.5398 9.11067 5
    endloop
  endfacet
  facet normal 0 0 1
    outer loop
      vertex 14.2865 14.6183 5
      vertex -15.0365 16.9266 5
      vertex 1.62019 15.4151 5
    endloop
  endfacet
  facet normal 0 0 1
    outer loop
      vertex -15.0365 16.9266 5
      vertex 15.9635 16.9266 5
      vertex 18.4444 17.3922 5
    endloop
  endfacet
  facet normal 0 0 1
    outer loop
      vertex -15.0365 16.9266 5
      vertex 18.4444 17.3922 5
      vertex 16.954 18.6837 5
    endloop
  endfacet
  facet normal 0 0 1
    outer loop
      vertex -15.0365 16.9266 5
      vertex 16.954 18.6837 5
      vertex 15.0019 18.9644 5
    endloop
  endfacet
  facet normal 0 0 1
    outer loop
      vertex 14.2865 14.6183 5
      vertex 7.75 13.4234 5
      vertex 10.3715 11.5187 5
    endloop
  endfacet
  facet normal 0 0 1
    outer loop
      vertex 15.9635 14.0734 5
      vertex 10.3715 11.5187 5
      vertex 12.5398 9.11067 5
    endloop
  endfacet
  facet normal 0 0 1
    outer loop
      vertex 19 15.5 5
      vertex 12.5398 9.11067 5
      vertex 14.16 6.30442 5
    endloop
  endfacet
  facet normal 0 0 1
    outer loop
      vertex 19 15.5 5
      vertex 14.16 6.30442 5
      vertex 15.1613 3.22263 5
    endloop
  endfacet
  facet normal -0 0 1
    outer loop
      vertex 15.822 0 5
      vertex 15.1613 3.22263 5
      vertex 15.5 0 5
    endloop
  endfacet
  facet normal 0 0 1
    outer loop
      vertex 19 15.5 5
      vertex 15.1613 3.22263 5
      vertex 15.822 0 5
    endloop
  endfacet
  facet normal 0 0 1
    outer loop
      vertex -15.0365 16.9266 5
      vertex -14 15.5 5
      vertex -4.78976 14.7414 5
    endloop
  endfacet
  facet normal 0 0 1
    outer loop
      vertex 15.9635 16.9266 5
      vertex 17 15.5 5
      vertex 19 15.5 5
    endloop
  endfacet
  facet normal 0 0 1
    outer loop
      vertex 15.9635 16.9266 5
      vertex 19 15.5 5
      vertex 18.4444 17.3922 5
    endloop
  endfacet
  facet normal 0 -0 1
    outer loop
      vertex -17.792 18.1451 5
      vertex -18.8582 16.4861 5
      vertex -15.9981 18.9644 5
    endloop
  endfacet
  facet normal -0 0 1
    outer loop
      vertex -10.3715 11.5187 5
      vertex -16.7135 14.6183 5
      vertex -12.5398 9.11067 5
    endloop
  endfacet
  facet normal -0 0 1
    outer loop
      vertex 14.2865 14.6183 5
      vertex 4.78976 14.7414 5
      vertex 7.75 13.4234 5
    endloop
  endfacet
  facet normal 0 0 1
    outer loop
      vertex 14.2865 14.6183 5
      vertex 14.2865 16.3817 5
      vertex -15.0365 16.9266 5
    endloop
  endfacet
  facet normal 0 0 1
    outer loop
      vertex -15.9981 18.9644 5
      vertex -15.0365 16.9266 5
      vertex 15.0019 18.9644 5
    endloop
  endfacet
  facet normal 0 -0 1
    outer loop
      vertex -15.9981 18.9644 5
      vertex -18.8582 16.4861 5
      vertex -15.0365 16.9266 5
    endloop
  endfacet
  facet normal -0 0 1
    outer loop
      vertex -4.78976 14.7414 5
      vertex -14 15.5 5
      vertex -7.75 13.4234 5
    endloop
  endfacet
  facet normal 0 0 1
    outer loop
      vertex -15.0365 16.9266 5
      vertex 14.2865 16.3817 5
      vertex 15.9635 16.9266 5
    endloop
  endfacet
  facet normal 0 0 1
    outer loop
      vertex -10.3715 11.5187 5
      vertex -15.0365 14.0734 5
      vertex -16.7135 14.6183 5
    endloop
  endfacet
  facet normal 0 0 1
    outer loop
      vertex -16.7135 16.3817 5
      vertex -15.0365 16.9266 5
      vertex -18.8582 16.4861 5
    endloop
  endfacet
  facet normal 0 -0 1
    outer loop
      vertex 17 15.5 5
      vertex 15.9635 14.0734 5
      vertex 19 15.5 5
    endloop
  endfacet
  facet normal 0 0 1
    outer loop
      vertex -15.0365 16.9266 5
      vertex -4.78976 14.7414 5
      vertex -1.62019 15.4151 5
    endloop
  endfacet
  facet normal 0 0 1
    outer loop
      vertex -15.0365 16.9266 5
      vertex -1.62019 15.4151 5
      vertex 1.62019 15.4151 5
    endloop
  endfacet
  facet normal 0 0 1
    outer loop
      vertex 14.2865 14.6183 5
      vertex 1.62019 15.4151 5
      vertex 4.78976 14.7414 5
    endloop
  endfacet
  facet normal 0 0 1
    outer loop
      vertex 19 15.5 5
      vertex 15.9635 14.0734 5
      vertex 12.5398 9.11067 5
    endloop
  endfacet
  facet normal 0 -0 1
    outer loop
      vertex -14 15.5 5
      vertex -15.0365 14.0734 5
      vertex -10.3715 11.5187 5
    endloop
  endfacet
  facet normal 0 0 1
    outer loop
      vertex -14 15.5 5
      vertex -10.3715 11.5187 5
      vertex -7.75 13.4234 5
    endloop
  endfacet
  facet normal -0 0 1
    outer loop
      vertex 15.9635 14.0734 5
      vertex 14.2865 14.6183 5
      vertex 10.3715 11.5187 5
    endloop
  endfacet
  facet normal 0 0 1
    outer loop
      vertex -16.7135 14.6183 5
      vertex -16.7135 16.3817 5
      vertex -18.8582 16.4861 5
    endloop
  endfacet
  facet normal 0 -1 0
    outer loop
      vertex -12.5 0 0
      vertex -12.5 0 8
      vertex -15.5 0 8
    endloop
  endfacet
  facet normal 0 -1 0
    outer loop
      vertex -15.833 0 5
      vertex -12.5 0 0
      vertex -15.5 0 5
    endloop
  endfacet
  facet normal -0 -1 -0
    outer loop
      vertex -15.5 0 5
      vertex -12.5 0 0
      vertex -15.5 0 8
    endloop
  endfacet
  facet normal -0 -1 -0
    outer loop
      vertex -15.833 0 0
      vertex -12.5 0 0
      vertex -15.833 0 5
    endloop
  endfacet
  facet normal 0.994522 -0.104528 0
    outer loop
      vertex -12.2268 2.5989 0
      vertex -12.2268 2.5989 26
      vertex -12.5 0 26
    endloop
  endfacet
  facet normal 0.994522 -0.104528 0
    outer loop
      vertex -12.5 0 0
      vertex -12.2268 2.5989 0
      vertex -12.5 0 8
    endloop
  endfacet
  facet normal 0.994522 -0.104528 0
    outer loop
      vertex -12.5 0 8
      vertex -12.2268 2.5989 0
      vertex -12.5 0 26
    endloop
  endfacet
  facet normal 0.951056 -0.309017 0
    outer loop
      vertex -11.4193 5.08421 0
      vertex -11.4193 5.08421 26
      vertex -12.2268 2.5989 26
    endloop
  endfacet
  facet normal 0.951056 -0.309017 0
    outer loop
      vertex -12.2268 2.5989 0
      vertex -11.4193 5.08421 0
      vertex -12.2268 2.5989 26
    endloop
  endfacet
  facet normal 0.866025 -0.5 0
    outer loop
      vertex -10.1127 7.34732 0
      vertex -10.1127 7.34732 26
      vertex -11.4193 5.08421 26
    endloop
  endfacet
  facet normal 0.866025 -0.5 0
    outer loop
      vertex -11.4193 5.08421 0
      vertex -10.1127 7.34732 0
      vertex -11.4193 5.08421 26
    endloop
  endfacet
  facet normal 0.743145 -0.669131 0
    outer loop
      vertex -8.36413 9.28931 0
      vertex -8.36413 9.28931 26
      vertex -10.1127 7.34732 26
    endloop
  endfacet
  facet normal 0.743145 -0.669131 0
    outer loop
      vertex -10.1127 7.34732 0
      vertex -8.36413 9.28931 0
      vertex -10.1127 7.34732 26
    endloop
  endfacet
  facet normal 0.587785 -0.809017 0
    outer loop
      vertex -6.25 10.8253 0
      vertex -6.25 10.8253 26
      vertex -8.36413 9.28931 26
    endloop
  endfacet
  facet normal 0.587785 -0.809017 0
    outer loop
      vertex -8.36413 9.28931 0
      vertex -6.25 10.8253 0
      vertex -8.36413 9.28931 26
    endloop
  endfacet
  facet normal 0.406736 -0.913546 0
    outer loop
      vertex -3.86271 11.8882 0
      vertex -3.86271 11.8882 26
      vertex -6.25 10.8253 26
    endloop
  endfacet
  facet normal 0.406736 -0.913546 0
    outer loop
      vertex -6.25 10.8253 0
      vertex -3.86271 11.8882 0
      vertex -6.25 10.8253 26
    endloop
  endfacet
  facet normal 0.207912 -0.978148 0
    outer loop
      vertex -1.30661 12.4315 0
      vertex -1.30661 12.4315 26
      vertex -3.86271 11.8882 26
    endloop
  endfacet
  facet normal 0.207912 -0.978148 0
    outer loop
      vertex -3.86271 11.8882 0
      vertex -1.30661 12.4315 0
      vertex -3.86271 11.8882 26
    endloop
  endfacet
  facet normal 0 -1 0
    outer loop
      vertex 1.30661 12.4315 0
      vertex 1.30661 12.4315 26
      vertex -1.30661 12.4315 26
    endloop
  endfacet
  facet normal -0 -1 -0
    outer loop
      vertex -1.30661 12.4315 0
      vertex 1.30661 12.4315 0
      vertex -1.30661 12.4315 26
    endloop
  endfacet
  facet normal -0.207912 -0.978148 -0
    outer loop
      vertex 3.86271 11.8882 0
      vertex 3.86271 11.8882 26
      vertex 1.30661 12.4315 26
    endloop
  endfacet
  facet normal -0.207912 -0.978148 -0
    outer loop
      vertex 1.30661 12.4315 0
      vertex 3.86271 11.8882 0
      vertex 1.30661 12.4315 26
    endloop
  endfacet
  facet normal -0.406736 -0.913546 -0
    outer loop
      vertex 6.25 10.8253 0
      vertex 6.25 10.8253 26
      vertex 3.86271 11.8882 26
    endloop
  endfacet
  facet normal -0.406736 -0.913546 -0
    outer loop
      vertex 3.86271 11.8882 0
      vertex 6.25 10.8253 0
      vertex 3.86271 11.8882 26
    endloop
  endfacet
  facet normal -0.587785 -0.809017 -0
    outer loop
      vertex 8.36413 9.28931 0
      vertex 8.36413 9.28931 26
      vertex 6.25 10.8253 26
    endloop
  endfacet
  facet normal -0.587785 -0.809017 -0
    outer loop
      vertex 6.25 10.8253 0
      vertex 8.36413 9.28931 0
      vertex 6.25 10.8253 26
    endloop
  endfacet
  facet normal -0.743145 -0.669131 0
    outer loop
      vertex 10.1127 7.34732 26
      vertex 8.36413 9.28931 26
      vertex 10.1127 7.34732 0
    endloop
  endfacet
  facet normal -0.743145 -0.669131 0
    outer loop
      vertex 10.1127 7.34732 0
      vertex 8.36413 9.28931 26
      vertex 8.36413 9.28931 0
    endloop
  endfacet
  facet normal -0.866025 -0.5 0
    outer loop
      vertex 11.4193 5.08421 26
      vertex 10.1127 7.34732 26
      vertex 11.4193 5.08421 0
    endloop
  endfacet
  facet normal -0.866025 -0.5 0
    outer loop
      vertex 11.4193 5.08421 0
      vertex 10.1127 7.34732 26
      vertex 10.1127 7.34732 0
    endloop
  endfacet
  facet normal -0.951056 -0.309017 0
    outer loop
      vertex 12.2268 2.5989 26
      vertex 11.4193 5.08421 26
      vertex 12.2268 2.5989 0
    endloop
  endfacet
  facet normal -0.951056 -0.309017 0
    outer loop
      vertex 12.2268 2.5989 0
      vertex 11.4193 5.08421 26
      vertex 11.4193 5.08421 0
    endloop
  endfacet
  facet normal -0.994522 -0.104528 0
    outer loop
      vertex 12.5 0 26
      vertex 12.2268 2.5989 26
      vertex 12.5 0 8
    endloop
  endfacet
  facet normal -0.994522 -0.104528 0
    outer loop
      vertex 12.5 0 8
      vertex 12.2268 2.5989 26
      vertex 12.5 0 0
    endloop
  endfacet
  facet normal -0.994522 -0.104528 0
    outer loop
      vertex 12.5 0 0
      vertex 12.2268 2.5989 26
      vertex 12.2268 2.5989 0
    endloop
  endfacet
  facet normal 0 -1 0
    outer loop
      vertex 15.822 0 0
      vertex 15.822 0 5
      vertex 15.5 0 5
    endloop
  endfacet
  facet normal 0 -1 0
    outer loop
      vertex 12.5 0 8
      vertex 15.822 0 0
      vertex 15.5 0 5
    endloop
  endfacet
  facet normal 0 -1 0
    outer loop
      vertex 15.5 0 8
      vertex 12.5 0 8
      vertex 15.5 0 5
    endloop
  endfacet
  facet normal 0 -1 0
    outer loop
      vertex 12.5 0 8
      vertex 12.5 0 0
      vertex 15.822 0 0
    endloop
  endfacet
  facet normal 0.979622 -0.200852 0
    outer loop
      vertex 15.822 0 5
      vertex 15.822 0 0
      vertex 19 15.5 0
    endloop
  endfacet
  facet normal 0.979622 -0.200852 0
    outer loop
      vertex 19 15.5 5
      vertex 15.822 0 5
      vertex 19 15.5 0
    endloop
  endfacet
  facet normal 0.959493 0.281733 0
    outer loop
      vertex 19 15.5 0
      vertex 18.4444 17.3922 0
      vertex 18.4444 17.3922 5
    endloop
  endfacet
  facet normal 0.959493 0.281733 -0
    outer loop
      vertex 19 15.5 5
      vertex 19 15.5 0
      vertex 18.4444 17.3922 5
    endloop
  endfacet
  facet normal 0.654861 0.755749 0
    outer loop
      vertex 16.954 18.6837 0
      vertex 16.954 18.6837 5
      vertex 18.4444 17.3922 0
    endloop
  endfacet
  facet normal 0.654861 0.755749 0
    outer loop
      vertex 18.4444 17.3922 0
      vertex 16.954 18.6837 5
      vertex 18.4444 17.3922 5
    endloop
  endfacet
  facet normal 0.142315 0.989821 0
    outer loop
      vertex 15.0019 18.9644 0
      vertex 15.0019 18.9644 5
      vertex 16.954 18.6837 0
    endloop
  endfacet
  facet normal 0.142315 0.989821 0
    outer loop
      vertex 16.954 18.6837 0
      vertex 15.0019 18.9644 5
      vertex 16.954 18.6837 5
    endloop
  endfacet
  facet normal 0 1 0
    outer loop
      vertex -15.9981 18.9644 0
      vertex -15.9981 18.9644 5
      vertex 15.0019 18.9644 0
    endloop
  endfacet
  facet normal 0 1 0
    outer loop
      vertex 15.0019 18.9644 0
      vertex -15.9981 18.9644 5
      vertex 15.0019 18.9644 5
    endloop
  endfacet
  facet normal -0.415415 0.909632 0
    outer loop
      vertex -17.792 18.1451 0
      vertex -17.792 18.1451 5
      vertex -15.9981 18.9644 0
    endloop
  endfacet
  facet normal -0.415415 0.909632 0
    outer loop
      vertex -15.9981 18.9644 0
      vertex -17.792 18.1451 5
      vertex -15.9981 18.9644 5
    endloop
  endfacet
  facet normal 0.309017 -0.951056 0
    outer loop
      vertex -15.0365 16.9266 0
      vertex -15.0365 16.9266 5
      vertex -16.7135 16.3817 5
    endloop
  endfacet
  facet normal 0.309017 -0.951056 0
    outer loop
      vertex -16.7135 16.3817 0
      vertex -15.0365 16.9266 0
      vertex -16.7135 16.3817 5
    endloop
  endfacet
  facet normal 1 0 0
    outer loop
      vertex -16.7135 16.3817 0
      vertex -16.7135 16.3817 5
      vertex -16.7135 14.6183 5
    endloop
  endfacet
  facet normal 1 0 0
    outer loop
      vertex -16.7135 14.6183 0
      vertex -16.7135 16.3817 0
      vertex -16.7135 14.6183 5
    endloop
  endfacet
  facet normal -0.809017 -0.587785 0
    outer loop
      vertex -14 15.5 5
      vertex -15.0365 16.9266 5
      vertex -14 15.5 0
    endloop
  endfacet
  facet normal -0.809017 -0.587785 0
    outer loop
      vertex -14 15.5 0
      vertex -15.0365 16.9266 5
      vertex -15.0365 16.9266 0
    endloop
  endfacet
  facet normal -0.809017 0.587785 0
    outer loop
      vertex -14 15.5 5
      vertex -14 15.5 0
      vertex -15.0365 14.0734 5
    endloop
  endfacet
  facet normal -0.809017 0.587785 0
    outer loop
      vertex -15.0365 14.0734 5
      vertex -14 15.5 0
      vertex -15.0365 14.0734 0
    endloop
  endfacet
  facet normal 0.309017 0.951056 -0
    outer loop
      vertex -15.0365 14.0734 5
      vertex -15.0365 14.0734 0
      vertex -16.7135 14.6183 5
    endloop
  endfacet
  facet normal 0.309017 0.951056 -0
    outer loop
      vertex -16.7135 14.6183 5
      vertex -15.0365 14.0734 0
      vertex -16.7135 14.6183 0
    endloop
  endfacet
  facet normal 0.309017 -0.951056 0
    outer loop
      vertex 15.9635 16.9266 0
      vertex 15.9635 16.9266 5
      vertex 14.2865 16.3817 5
    endloop
  endfacet
  facet normal 0.309017 -0.951056 0
    outer loop
      vertex 14.2865 16.3817 0
      vertex 15.9635 16.9266 0
      vertex 14.2865 16.3817 5
    endloop
  endfacet
  facet normal 1 0 0
    outer loop
      vertex 14.2865 16.3817 0
      vertex 14.2865 16.3817 5
      vertex 14.2865 14.6183 5
    endloop
  endfacet
  facet normal 1 0 0
    outer loop
      vertex 14.2865 14.6183 0
      vertex 14.2865 16.3817 0
      vertex 14.2865 14.6183 5
    endloop
  endfacet
  facet normal -0.809017 -0.587785 0
    outer loop
      vertex 17 15.5 5
      vertex 15.9635 16.9266 5
      vertex 17 15.5 0
    endloop
  endfacet
  facet normal -0.809017 -0.587785 0
    outer loop
      vertex 17 15.5 0
      vertex 15.9635 16.9266 5
      vertex 15.9635 16.9266 0
    endloop
  endfacet
  facet normal -0.809017 0.587785 0
    outer loop
      vertex 17 15.5 5
      vertex 17 15.5 0
      vertex 15.9635 14.0734 5
    endloop
  endfacet
  facet normal -0.809017 0.587785 0
    outer loop
      vertex 15.9635 14.0734 5
      vertex 17 15.5 0
      vertex 15.9635 14.0734 0
    endloop
  endfacet
  facet normal 0.309017 0.951056 -0
    outer loop
      vertex 15.9635 14.0734 5
      vertex 15.9635 14.0734 0
      vertex 14.2865 14.6183 5
    endloop
  endfacet
  facet normal 0.309017 0.951056 -0
    outer loop
      vertex 14.2865 14.6183 5
      vertex 15.9635 14.0734 0
      vertex 14.2865 14.6183 0
    endloop
  endfacet
  facet normal 0.994522 0.104528 0
    outer loop
      vertex 15.5 0 5
      vertex 15.1613 3.22263 5
      vertex 15.1613 3.22263 29
    endloop
  endfacet
  facet normal 0.994522 0.104528 -0
    outer loop
      vertex 15.5 0 8
      vertex 15.5 0 5
      vertex 15.1613 3.22263 29
    endloop
  endfacet
  facet normal 0.994522 0.104528 -0
    outer loop
      vertex 15.5 0 29
      vertex 15.5 0 8
      vertex 15.1613 3.22263 29
    endloop
  endfacet
  facet normal 0.951057 0.309017 0
    outer loop
      vertex 15.1613 3.22263 5
      vertex 14.16 6.30442 5
      vertex 14.16 6.30442 29
    endloop
  endfacet
  facet normal 0.951057 0.309017 -0
    outer loop
      vertex 15.1613 3.22263 29
      vertex 15.1613 3.22263 5
      vertex 14.16 6.30442 29
    endloop
  endfacet
  facet normal 0.866025 0.5 0
    outer loop
      vertex 14.16 6.30442 5
      vertex 12.5398 9.11067 5
      vertex 12.5398 9.11067 29
    endloop
  endfacet
  facet normal 0.866025 0.5 -0
    outer loop
      vertex 14.16 6.30442 29
      vertex 14.16 6.30442 5
      vertex 12.5398 9.11067 29
    endloop
  endfacet
  facet normal 0.743145 0.669131 0
    outer loop
      vertex 12.5398 9.11067 5
      vertex 10.3715 11.5187 5
      vertex 10.3715 11.5187 29
    endloop
  endfacet
  facet normal 0.743145 0.669131 -0
    outer loop
      vertex 12.5398 9.11067 29
      vertex 12.5398 9.11067 5
      vertex 10.3715 11.5187 29
    endloop
  endfacet
  facet normal 0.587785 0.809017 0
    outer loop
      vertex 7.75 13.4234 5
      vertex 7.75 13.4234 29
      vertex 10.3715 11.5187 5
    endloop
  endfacet
  facet normal 0.587785 0.809017 0
    outer loop
      vertex 10.3715 11.5187 5
      vertex 7.75 13.4234 29
      vertex 10.3715 11.5187 29
    endloop
  endfacet
  facet normal 0.406737 0.913546 0
    outer loop
      vertex 4.78976 14.7414 5
      vertex 4.78976 14.7414 29
      vertex 7.75 13.4234 5
    endloop
  endfacet
  facet normal 0.406737 0.913546 0
    outer loop
      vertex 7.75 13.4234 5
      vertex 4.78976 14.7414 29
      vertex 7.75 13.4234 29
    endloop
  endfacet
  facet normal 0.207912 0.978148 0
    outer loop
      vertex 1.62019 15.4151 5
      vertex 1.62019 15.4151 29
      vertex 4.78976 14.7414 5
    endloop
  endfacet
  facet normal 0.207912 0.978148 0
    outer loop
      vertex 4.78976 14.7414 5
      vertex 1.62019 15.4151 29
      vertex 4.78976 14.7414 29
    endloop
  endfacet
  facet normal 0 1 0
    outer loop
      vertex -1.62019 15.4151 5
      vertex -1.62019 15.4151 29
      vertex 1.62019 15.4151 5
    endloop
  endfacet
  facet normal 0 1 0
    outer loop
      vertex 1.62019 15.4151 5
      vertex -1.62019 15.4151 29
      vertex 1.62019 15.4151 29
    endloop
  endfacet
  facet normal -0.207912 0.978148 0
    outer loop
      vertex -4.78976 14.7414 5
      vertex -4.78976 14.7414 29
      vertex -1.62019 15.4151 5
    endloop
  endfacet
  facet normal -0.207912 0.978148 0
    outer loop
      vertex -1.62019 15.4151 5
      vertex -4.78976 14.7414 29
      vertex -1.62019 15.4151 29
    endloop
  endfacet
  facet normal -0.406737 0.913546 0
    outer loop
      vertex -7.75 13.4234 5
      vertex -7.75 13.4234 29
      vertex -4.78976 14.7414 5
    endloop
  endfacet
  facet normal -0.406737 0.913546 0
    outer loop
      vertex -4.78976 14.7414 5
      vertex -7.75 13.4234 29
      vertex -4.78976 14.7414 29
    endloop
  endfacet
  facet normal -0.587785 0.809017 0
    outer loop
      vertex -10.3715 11.5187 5
      vertex -10.3715 11.5187 29
      vertex -7.75 13.4234 5
    endloop
  endfacet
  facet normal -0.587785 0.809017 0
    outer loop
      vertex -7.75 13.4234 5
      vertex -10.3715 11.5187 29
      vertex -7.75 13.4234 29
    endloop
  endfacet
  facet normal -0.743145 0.669131 0
    outer loop
      vertex -12.5398 9.11067 5
      vertex -12.5398 9.11067 29
      vertex -10.3715 11.5187 5
    endloop
  endfacet
  facet normal -0.743145 0.669131 0
    outer loop
      vertex -10.3715 11.5187 5
      vertex -12.5398 9.11067 29
      vertex -10.3715 11.5187 29
    endloop
  endfacet
  facet normal -0.866025 0.5 0
    outer loop
      vertex -14.16 6.30442 5
      vertex -14.16 6.30442 29
      vertex -12.5398 9.11067 5
    endloop
  endfacet
  facet normal -0.866025 0.5 0
    outer loop
      vertex -12.5398 9.11067 5
      vertex -14.16 6.30442 29
      vertex -12.5398 9.11067 29
    endloop
  endfacet
  facet normal -0.951057 0.309017 0
    outer loop
      vertex -15.1613 3.22263 5
      vertex -15.1613 3.22263 29
      vertex -14.16 6.30442 5
    endloop
  endfacet
  facet normal -0.951057 0.309017 0
    outer loop
      vertex -14.16 6.30442 5
      vertex -15.1613 3.22263 29
      vertex -14.16 6.30442 29
    endloop
  endfacet
  facet normal -0.994522 0.104528 0
    outer loop
      vertex -15.5 0 5
      vertex -15.5 0 8
      vertex -15.1613 3.22263 5
    endloop
  endfacet
  facet normal -0.994522 0.104528 0
    outer loop
      vertex -15.1613 3.22263 5
      vertex -15.5 0 8
      vertex -15.5 0 29
    endloop
  endfacet
  facet normal -0.994522 0.104528 0
    outer loop
      vertex -15.1613 3.22263 5
      vertex -15.5 0 29
      vertex -15.1613 3.22263 29
    endloop
  endfacet
  facet normal -1 -0 -0
    outer loop
      vertex -15.5 -28.5 0
      vertex -15.5 -28.5 29
      vertex -15.5 -25.5 0
    endloop
  endfacet
  facet normal -1 0 -0
    outer loop
      vertex -15.5 -25.5 8
      vertex -15.5 -28.5 29
      vertex -15.5 0 29
    endloop
  endfacet
  facet normal -1 0 0
    outer loop
      vertex -15.5 -25.5 0
      vertex -15.5 -28.5 29
      vertex -15.5 -25.5 8
    endloop
  endfacet
  facet normal -1 -0 0
    outer loop
      vertex -15.5 -25.5 8
      vertex -15.5 0 29
      vertex -15.5 0 8
    endloop
  endfacet
  facet normal 0 0 -1
    outer loop
      vertex -12.5 0 8
      vertex -12.5 -25.5 8
      vertex -15.5 0 8
    endloop
  endfacet
  facet normal 0 0 -1
    outer loop
      vertex -15.5 0 8
      vertex -12.5 -25.5 8
      vertex -15.5 -25.5 8
    endloop
  endfacet
  facet normal 1 0 0
    outer loop
      vertex -12.5 0 26
      vertex -12.5 -25.5 8
      vertex -12.5 0 8
    endloop
  endfacet
  facet normal 1 0 0
    outer loop
      vertex -12.5 -28.5 26
      vertex -12.5 -25.5 8
      vertex -12.5 0 26
    endloop
  endfacet
  facet normal 1 0 0
    outer loop
      vertex -12.5 -25.5 0
      vertex -12.5 -25.5 8
      vertex -12.5 -28.5 26
    endloop
  endfacet
  facet normal 1 0 0
    outer loop
      vertex -12.5 -28.5 0
      vertex -12.5 -25.5 0
      vertex -12.5 -28.5 26
    endloop
  endfacet
  facet normal -0 0 -1
    outer loop
      vertex -12.2268 2.5989 26
      vertex -11.4193 5.08421 26
      vertex -12.5 0 26
    endloop
  endfacet
  facet normal 0 0 -1
    outer loop
      vertex -12.5 0 26
      vertex -11.4193 5.08421 26
      vertex -10.1127 7.34732 26
    endloop
  endfacet
  facet normal 0 0 -1
    outer loop
      vertex -12.5 0 26
      vertex -10.1127 7.34732 26
      vertex -8.36413 9.28931 26
    endloop
  endfacet
  facet normal 0 0 -1
    outer loop
      vertex -12.5 0 26
      vertex -8.36413 9.28931 26
      vertex -6.25 10.8253 26
    endloop
  endfacet
  facet normal 0 0 -1
    outer loop
      vertex -12.5 0 26
      vertex -6.25 10.8253 26
      vertex -3.86271 11.8882 26
    endloop
  endfacet
  facet normal 0 0 -1
    outer loop
      vertex -12.5 0 26
      vertex -3.86271 11.8882 26
      vertex -1.30661 12.4315 26
    endloop
  endfacet
  facet normal 0 0 -1
    outer loop
      vertex -12.5 0 26
      vertex -1.30661 12.4315 26
      vertex 1.30661 12.4315 26
    endloop
  endfacet
  facet normal 0 0 -1
    outer loop
      vertex -12.5 0 26
      vertex 1.30661 12.4315 26
      vertex 3.86271 11.8882 26
    endloop
  endfacet
  facet normal 0 0 -1
    outer loop
      vertex -12.5 0 26
      vertex 3.86271 11.8882 26
      vertex 6.25 10.8253 26
    endloop
  endfacet
  facet normal 0 0 -1
    outer loop
      vertex -12.5 0 26
      vertex 6.25 10.8253 26
      vertex 8.36413 9.28931 26
    endloop
  endfacet
  facet normal 0 0 -1
    outer loop
      vertex -12.5 0 26
      vertex 8.36413 9.28931 26
      vertex 10.1127 7.34732 26
    endloop
  endfacet
  facet normal 0 0 -1
    outer loop
      vertex -12.5 0 26
      vertex 10.1127 7.34732 26
      vertex 11.4193 5.08421 26
    endloop
  endfacet
  facet normal 0 0 -1
    outer loop
      vertex -12.5 0 26
      vertex 11.4193 5.08421 26
      vertex 12.2268 2.5989 26
    endloop
  endfacet
  facet normal -0 0 -1
    outer loop
      vertex -12.5 0 26
      vertex 12.2268 2.5989 26
      vertex 12.5 0 26
    endloop
  endfacet
  facet normal 0 0 -1
    outer loop
      vertex -12.5 0 26
      vertex 12.5 0 26
      vertex 12.5 -28.5 26
    endloop
  endfacet
  facet normal 0 0 -1
    outer loop
      vertex -12.5 0 26
      vertex 12.5 -28.5 26
      vertex -12.5 -28.5 26
    endloop
  endfacet
  facet normal -1 0 0
    outer loop
      vertex 12.5 0 26
      vertex 12.5 0 8
      vertex 12.5 -28.5 26
    endloop
  endfacet
  facet normal -1 0 0
    outer loop
      vertex 12.5 -28.5 26
      vertex 12.5 0 8
      vertex 12.5 -25.5 8
    endloop
  endfacet
  facet normal -1 0 0
    outer loop
      vertex 12.5 -28.5 26
      vertex 12.5 -25.5 8
      vertex 12.5 -25.5 0
    endloop
  endfacet
  facet normal -1 0 0
    outer loop
      vertex 12.5 -28.5 26
      vertex 12.5 -25.5 0
      vertex 12.5 -28.5 0
    endloop
  endfacet
  facet normal 0 0 -1
    outer loop
      vertex 15.5 0 8
      vertex 15.5 -25.5 8
      vertex 12.5 0 8
    endloop
  endfacet
  facet normal 0 0 -1
    outer loop
      vertex 12.5 0 8
      vertex 15.5 -25.5 8
      vertex 12.5 -25.5 8
    endloop
  endfacet
  facet normal 1 0 -0
    outer loop
      vertex 15.5 -28.5 29
      vertex 15.5 -28.5 0
      vertex 15.5 -25.5 0
    endloop
  endfacet
  facet normal 1 -0 0
    outer loop
      vertex 15.5 0 8
      vertex 15.5 -28.5 29
      vertex 15.5 -25.5 8
    endloop
  endfacet
  facet normal 1 -0 0
    outer loop
      vertex 15.5 -25.5 8
      vertex 15.5 -28.5 29
      vertex 15.5 -25.5 0
    endloop
  endfacet
  facet normal 1 0 0
    outer loop
      vertex 15.5 0 29
      vertex 15.5 -28.5 29
      vertex 15.5 0 8
    endloop
  endfacet
  facet normal 0 -0 1
    outer loop
      vertex -15.5 0 29
      vertex -15.5 -28.5 29
      vertex 15.5 -28.5 29
    endloop
  endfacet
  facet normal 0 -0 1
    outer loop
      vertex 15.1613 3.22263 29
      vertex -15.5 0 29
      vertex 15.5 0 29
    endloop
  endfacet
  facet normal 0 0 1
    outer loop
      vertex 15.5 0 29
      vertex -15.5 0 29
      vertex 15.5 -28.5 29
    endloop
  endfacet
  facet normal 0 -0 1
    outer loop
      vertex 14.16 6.30442 29
      vertex -15.5 0 29
      vertex 15.1613 3.22263 29
    endloop
  endfacet
  facet normal 0 -0 1
    outer loop
      vertex 12.5398 9.11067 29
      vertex -15.5 0 29
      vertex 14.16 6.30442 29
    endloop
  endfacet
  facet normal 0 -0 1
    outer loop
      vertex 10.3715 11.5187 29
      vertex -15.5 0 29
      vertex 12.5398 9.11067 29
    endloop
  endfacet
  facet normal 0 -0 1
    outer loop
      vertex 7.75 13.4234 29
      vertex -15.5 0 29
      vertex 10.3715 11.5187 29
    endloop
  endfacet
  facet normal 0 -0 1
    outer loop
      vertex 4.78976 14.7414 29
      vertex -15.5 0 29
      vertex 7.75 13.4234 29
    endloop
  endfacet
  facet normal 0 -0 1
    outer loop
      vertex 1.62019 15.4151 29
      vertex -15.5 0 29
      vertex 4.78976 14.7414 29
    endloop
  endfacet
  facet normal 0 -0 1
    outer loop
      vertex -1.62019 15.4151 29
      vertex -15.5 0 29
      vertex 1.62019 15.4151 29
    endloop
  endfacet
  facet normal 0 -0 1
    outer loop
      vertex -4.78976 14.7414 29
      vertex -15.5 0 29
      vertex -1.62019 15.4151 29
    endloop
  endfacet
  facet normal 0 -0 1
    outer loop
      vertex -7.75 13.4234 29
      vertex -15.5 0 29
      vertex -4.78976 14.7414 29
    endloop
  endfacet
  facet normal 0 -0 1
    outer loop
      vertex -10.3715 11.5187 29
      vertex -15.5 0 29
      vertex -7.75 13.4234 29
    endloop
  endfacet
  facet normal 0 -0 1
    outer loop
      vertex -12.5398 9.11067 29
      vertex -15.5 0 29
      vertex -10.3715 11.5187 29
    endloop
  endfacet
  facet normal 0 -0 1
    outer loop
      vertex -14.16 6.30442 29
      vertex -15.5 0 29
      vertex -12.5398 9.11067 29
    endloop
  endfacet
  facet normal 0 -0 1
    outer loop
      vertex -15.1613 3.22263 29
      vertex -15.5 0 29
      vertex -14.16 6.30442 29
    endloop
  endfacet
  facet normal -0 -0 -1
    outer loop
      vertex -15.5 -28.5 0
      vertex -15.5 -25.5 0
      vertex -12.5 -28.5 0
    endloop
  endfacet
  facet normal 0 0 -1
    outer loop
      vertex -12.5 -28.5 0
      vertex -15.5 -25.5 0
      vertex -12.5 -25.5 0
    endloop
  endfacet
  facet normal 0 1 0
    outer loop
      vertex -12.5 -25.5 8
      vertex -12.5 -25.5 0
      vertex -15.5 -25.5 8
    endloop
  endfacet
  facet normal 0 1 -0
    outer loop
      vertex -15.5 -25.5 8
      vertex -12.5 -25.5 0
      vertex -15.5 -25.5 0
    endloop
  endfacet
  facet normal 0 -1 0
    outer loop
      vertex -15.5 -28.5 29
      vertex -15.5 -28.5 0
      vertex -12.5 -28.5 0
    endloop
  endfacet
  facet normal 0 -1 0
    outer loop
      vertex 12.5 -28.5 26
      vertex -15.5 -28.5 29
      vertex -12.5 -28.5 26
    endloop
  endfacet
  facet normal 0 -1 0
    outer loop
      vertex -12.5 -28.5 26
      vertex -15.5 -28.5 29
      vertex -12.5 -28.5 0
    endloop
  endfacet
  facet normal 0 -1 0
    outer loop
      vertex 15.5 -28.5 29
      vertex -15.5 -28.5 29
      vertex 12.5 -28.5 26
    endloop
  endfacet
  facet normal 0 -1 0
    outer loop
      vertex 15.5 -28.5 0
      vertex 12.5 -28.5 26
      vertex 12.5 -28.5 0
    endloop
  endfacet
  facet normal 0 -1 0
    outer loop
      vertex 15.5 -28.5 29
      vertex 12.5 -28.5 26
      vertex 15.5 -28.5 0
    endloop
  endfacet
  facet normal -0 -0 -1
    outer loop
      vertex 12.5 -28.5 0
      vertex 12.5 -25.5 0
      vertex 15.5 -28.5 0
    endloop
  endfacet
  facet normal 0 0 -1
    outer loop
      vertex 15.5 -28.5 0
      vertex 12.5 -25.5 0
      vertex 15.5 -25.5 0
    endloop
  endfacet
  facet normal 0 1 0
    outer loop
      vertex 15.5 -25.5 8
      vertex 15.5 -25.5 0
      vertex 12.5 -25.5 8
    endloop
  endfacet
  facet normal 0 1 -0
    outer loop
      vertex 12.5 -25.5 8
      vertex 15.5 -25.5 0
      vertex 12.5 -25.5 0
    endloop
  endfacet
endsolid OpenSCAD_Model
