solid OpenSCAD_Model
  facet normal 0 0 -1
    outer loop
      vertex -33.185 0 0
      vertex -32.4598 6.89955 0
      vertex -32.4598 -6.89955 0
    endloop
  endfacet
  facet normal 0 0 -1
    outer loop
      vertex -32.4598 -6.89955 0
      vertex -32.4598 6.89955 0
      vertex -30.316 13.4976 0
    endloop
  endfacet
  facet normal 0 0 -1
    outer loop
      vertex -32.4598 -6.89955 0
      vertex -30.316 13.4976 0
      vertex -26.8472 19.5057 0
    endloop
  endfacet
  facet normal 0 0 -1
    outer loop
      vertex -32.4598 -6.89955 0
      vertex -26.8472 19.5057 0
      vertex -22.2051 24.6613 0
    endloop
  endfacet
  facet normal 0 0 -1
    outer loop
      vertex -32.4598 -6.89955 0
      vertex -22.2051 24.6613 0
      vertex -16.5925 28.7391 0
    endloop
  endfacet
  facet normal 0 0 -1
    outer loop
      vertex -32.4598 -6.89955 0
      vertex -16.5925 28.7391 0
      vertex -10.2547 31.5608 0
    endloop
  endfacet
  facet normal 0 0 -1
    outer loop
      vertex -32.4598 -6.89955 0
      vertex -10.2547 31.5608 0
      vertex -3.46878 33.0032 0
    endloop
  endfacet
  facet normal 0 0 -1
    outer loop
      vertex -32.4598 -6.89955 0
      vertex -3.46878 33.0032 0
      vertex 3.46878 33.0032 0
    endloop
  endfacet
  facet normal 0 0 -1
    outer loop
      vertex -32.4598 -6.89955 0
      vertex 3.46878 33.0032 0
      vertex 10.2547 31.5608 0
    endloop
  endfacet
  facet normal 0 0 -1
    outer loop
      vertex -32.4598 -6.89955 0
      vertex 10.2547 31.5608 0
      vertex 16.5925 28.7391 0
    endloop
  endfacet
  facet normal 0 0 -1
    outer loop
      vertex -1.17595 11.1884 0
      vertex 16.5925 28.7391 0
      vertex 22.2051 24.6613 0
    endloop
  endfacet
  facet normal 0 0 -1
    outer loop
      vertex 3.47644 10.6994 0
      vertex 22.2051 24.6613 0
      vertex 26.8472 19.5057 0
    endloop
  endfacet
  facet normal 0 0 -1
    outer loop
      vertex 9.10144 6.61258 0
      vertex 26.8472 19.5057 0
      vertex 30.316 13.4976 0
    endloop
  endfacet
  facet normal 0 0 -1
    outer loop
      vertex 11.0042 2.33901 0
      vertex 30.316 13.4976 0
      vertex 32.4598 6.89955 0
    endloop
  endfacet
  facet normal 0 0 -1
    outer loop
      vertex 11.25 0 0
      vertex 32.4598 6.89955 0
      vertex 33.185 0 0
    endloop
  endfacet
  facet normal 0 0 -1
    outer loop
      vertex 10.2774 -4.57579 0
      vertex 33.185 0 0
      vertex 32.4598 -6.89955 0
    endloop
  endfacet
  facet normal 0 0 -1
    outer loop
      vertex 5.625 -9.74279 0
      vertex 32.4598 -6.89955 0
      vertex 30.316 -13.4976 0
    endloop
  endfacet
  facet normal 0 0 -1
    outer loop
      vertex 1.17595 -11.1884 0
      vertex 30.316 -13.4976 0
      vertex 26.8472 -19.5057 0
    endloop
  endfacet
  facet normal 0 0 -1
    outer loop
      vertex -32.4598 -6.89955 0
      vertex 26.8472 -19.5057 0
      vertex 22.2051 -24.6613 0
    endloop
  endfacet
  facet normal 0 0 -1
    outer loop
      vertex -32.4598 -6.89955 0
      vertex 22.2051 -24.6613 0
      vertex 16.5925 -28.7391 0
    endloop
  endfacet
  facet normal 0 0 -1
    outer loop
      vertex -32.4598 -6.89955 0
      vertex 16.5925 -28.7391 0
      vertex 10.2547 -31.5608 0
    endloop
  endfacet
  facet normal 0 0 -1
    outer loop
      vertex -32.4598 -6.89955 0
      vertex 10.2547 -31.5608 0
      vertex 3.46878 -33.0032 0
    endloop
  endfacet
  facet normal 0 0 -1
    outer loop
      vertex -32.4598 -6.89955 0
      vertex 3.46878 -33.0032 0
      vertex -3.46878 -33.0032 0
    endloop
  endfacet
  facet normal 0 0 -1
    outer loop
      vertex -32.4598 -6.89955 0
      vertex -3.46878 -33.0032 0
      vertex -10.2547 -31.5608 0
    endloop
  endfacet
  facet normal 0 0 -1
    outer loop
      vertex -32.4598 -6.89955 0
      vertex -10.2547 -31.5608 0
      vertex -16.5925 -28.7391 0
    endloop
  endfacet
  facet normal 0 0 -1
    outer loop
      vertex -32.4598 -6.89955 0
      vertex -16.5925 -28.7391 0
      vertex -22.2051 -24.6613 0
    endloop
  endfacet
  facet normal 0 0 -1
    outer loop
      vertex -32.4598 -6.89955 0
      vertex -22.2051 -24.6613 0
      vertex -26.8472 -19.5057 0
    endloop
  endfacet
  facet normal 0 0 -1
    outer loop
      vertex -32.4598 -6.89955 0
      vertex -26.8472 -19.5057 0
      vertex -30.316 -13.4976 0
    endloop
  endfacet
  facet normal 0 0 -1
    outer loop
      vertex 3.47644 10.6994 0
      vertex 26.8472 19.5057 0
      vertex 5.625 9.74279 0
    endloop
  endfacet
  facet normal 0 0 -1
    outer loop
      vertex -10.2774 -4.57579 0
      vertex -32.4598 -6.89955 0
      vertex -11.0042 -2.33901 0
    endloop
  endfacet
  facet normal 0 0 -1
    outer loop
      vertex -7.52772 -8.36038 0
      vertex -32.4598 -6.89955 0
      vertex -9.10144 -6.61258 0
    endloop
  endfacet
  facet normal 0 0 -1
    outer loop
      vertex -32.4598 -6.89955 0
      vertex -10.2774 -4.57579 0
      vertex -9.10144 -6.61258 0
    endloop
  endfacet
  facet normal 0 0 -1
    outer loop
      vertex -5.625 -9.74279 0
      vertex -32.4598 -6.89955 0
      vertex -7.52772 -8.36038 0
    endloop
  endfacet
  facet normal 0 0 -1
    outer loop
      vertex 1.17595 -11.1884 0
      vertex 26.8472 -19.5057 0
      vertex -1.17595 -11.1884 0
    endloop
  endfacet
  facet normal 0 0 -1
    outer loop
      vertex -32.4598 -6.89955 0
      vertex -5.625 -9.74279 0
      vertex -3.47644 -10.6994 0
    endloop
  endfacet
  facet normal 0 0 -1
    outer loop
      vertex -32.4598 -6.89955 0
      vertex -3.47644 -10.6994 0
      vertex 26.8472 -19.5057 0
    endloop
  endfacet
  facet normal 0 0 -1
    outer loop
      vertex -3.47644 -10.6994 0
      vertex -1.17595 -11.1884 0
      vertex 26.8472 -19.5057 0
    endloop
  endfacet
  facet normal 0 0 -1
    outer loop
      vertex 3.47644 -10.6994 0
      vertex 30.316 -13.4976 0
      vertex 1.17595 -11.1884 0
    endloop
  endfacet
  facet normal 0 0 -1
    outer loop
      vertex 5.625 -9.74279 0
      vertex 30.316 -13.4976 0
      vertex 3.47644 -10.6994 0
    endloop
  endfacet
  facet normal 0 0 -1
    outer loop
      vertex 7.52772 -8.36038 0
      vertex 32.4598 -6.89955 0
      vertex 5.625 -9.74279 0
    endloop
  endfacet
  facet normal 0 0 -1
    outer loop
      vertex 9.10144 -6.61258 0
      vertex 32.4598 -6.89955 0
      vertex 7.52772 -8.36038 0
    endloop
  endfacet
  facet normal 0 0 -1
    outer loop
      vertex 10.2774 -4.57579 0
      vertex 32.4598 -6.89955 0
      vertex 9.10144 -6.61258 0
    endloop
  endfacet
  facet normal 0 0 -1
    outer loop
      vertex 11.0042 -2.33901 0
      vertex 33.185 0 0
      vertex 10.2774 -4.57579 0
    endloop
  endfacet
  facet normal 0 0 -1
    outer loop
      vertex 11.25 0 0
      vertex 33.185 0 0
      vertex 11.0042 -2.33901 0
    endloop
  endfacet
  facet normal 0 0 -1
    outer loop
      vertex 11.0042 2.33901 0
      vertex 32.4598 6.89955 0
      vertex 11.25 0 0
    endloop
  endfacet
  facet normal 0 0 -1
    outer loop
      vertex 10.2774 4.57579 0
      vertex 30.316 13.4976 0
      vertex 11.0042 2.33901 0
    endloop
  endfacet
  facet normal 0 0 -1
    outer loop
      vertex 7.52772 8.36038 0
      vertex 26.8472 19.5057 0
      vertex 9.10144 6.61258 0
    endloop
  endfacet
  facet normal 0 0 -1
    outer loop
      vertex 5.625 9.74279 0
      vertex 26.8472 19.5057 0
      vertex 7.52772 8.36038 0
    endloop
  endfacet
  facet normal 0 0 -1
    outer loop
      vertex 1.17595 11.1884 0
      vertex 22.2051 24.6613 0
      vertex 3.47644 10.6994 0
    endloop
  endfacet
  facet normal 0 0 -1
    outer loop
      vertex -1.17595 11.1884 0
      vertex 22.2051 24.6613 0
      vertex 1.17595 11.1884 0
    endloop
  endfacet
  facet normal 0 0 -1
    outer loop
      vertex -3.47644 10.6994 0
      vertex 16.5925 28.7391 0
      vertex -1.17595 11.1884 0
    endloop
  endfacet
  facet normal 0 0 -1
    outer loop
      vertex -9.10144 6.61258 0
      vertex -32.4598 -6.89955 0
      vertex -7.52772 8.36038 0
    endloop
  endfacet
  facet normal 0 0 -1
    outer loop
      vertex -5.625 9.74279 0
      vertex 16.5925 28.7391 0
      vertex -3.47644 10.6994 0
    endloop
  endfacet
  facet normal 0 0 -1
    outer loop
      vertex -32.4598 -6.89955 0
      vertex 16.5925 28.7391 0
      vertex -5.625 9.74279 0
    endloop
  endfacet
  facet normal 0 0 -1
    outer loop
      vertex -32.4598 -6.89955 0
      vertex -5.625 9.74279 0
      vertex -7.52772 8.36038 0
    endloop
  endfacet
  facet normal 0 0 -1
    outer loop
      vertex -10.2774 4.57579 0
      vertex -32.4598 -6.89955 0
      vertex -9.10144 6.61258 0
    endloop
  endfacet
  facet normal 0 0 -1
    outer loop
      vertex -11.0042 2.33901 0
      vertex -32.4598 -6.89955 0
      vertex -10.2774 4.57579 0
    endloop
  endfacet
  facet normal 0 0 -1
    outer loop
      vertex -32.4598 -6.89955 0
      vertex -11.0042 2.33901 0
      vertex -11.25 0 0
    endloop
  endfacet
  facet normal 0 0 -1
    outer loop
      vertex -11.0042 -2.33901 0
      vertex -32.4598 -6.89955 0
      vertex -11.25 0 0
    endloop
  endfacet
  facet normal 0 0 -1
    outer loop
      vertex 9.10144 6.61258 0
      vertex 30.316 13.4976 0
      vertex 10.2774 4.57579 0
    endloop
  endfacet
  facet normal -0.994522 0.104528 0
    outer loop
      vertex -33.185 0 0
      vertex -33.185 0 3
      vertex -32.4598 6.89955 0
    endloop
  endfacet
  facet normal -0.994522 0.104528 0
    outer loop
      vertex -32.4598 6.89955 0
      vertex -33.185 0 3
      vertex -32.4598 6.89955 3
    endloop
  endfacet
  facet normal -0.994522 -0.104528 0
    outer loop
      vertex -33.185 0 0
      vertex -32.4598 -6.89955 0
      vertex -33.185 0 3
    endloop
  endfacet
  facet normal -0.994522 -0.104528 0
    outer loop
      vertex -33.185 0 3
      vertex -32.4598 -6.89955 0
      vertex -32.4598 -6.89955 3
    endloop
  endfacet
  facet normal -0.951057 -0.309017 0
    outer loop
      vertex -32.4598 -6.89955 0
      vertex -30.316 -13.4976 0
      vertex -32.4598 -6.89955 3
    endloop
  endfacet
  facet normal -0.951057 -0.309017 0
    outer loop
      vertex -32.4598 -6.89955 3
      vertex -30.316 -13.4976 0
      vertex -30.316 -13.4976 3
    endloop
  endfacet
  facet normal -0.866025 -0.5 0
    outer loop
      vertex -30.316 -13.4976 0
      vertex -26.8472 -19.5057 0
      vertex -30.316 -13.4976 3
    endloop
  endfacet
  facet normal -0.866025 -0.5 0
    outer loop
      vertex -30.316 -13.4976 3
      vertex -26.8472 -19.5057 0
      vertex -26.8472 -19.5057 3
    endloop
  endfacet
  facet normal -0.743145 -0.669131 0
    outer loop
      vertex -26.8472 -19.5057 0
      vertex -22.2051 -24.6613 0
      vertex -26.8472 -19.5057 3
    endloop
  endfacet
  facet normal -0.743145 -0.669131 0
    outer loop
      vertex -26.8472 -19.5057 3
      vertex -22.2051 -24.6613 0
      vertex -22.2051 -24.6613 3
    endloop
  endfacet
  facet normal -0.587785 -0.809017 0
    outer loop
      vertex -22.2051 -24.6613 3
      vertex -22.2051 -24.6613 0
      vertex -16.5925 -28.7391 0
    endloop
  endfacet
  facet normal -0.587785 -0.809017 0
    outer loop
      vertex -16.5925 -28.7391 3
      vertex -22.2051 -24.6613 3
      vertex -16.5925 -28.7391 0
    endloop
  endfacet
  facet normal -0.406737 -0.913545 0
    outer loop
      vertex -16.5925 -28.7391 3
      vertex -16.5925 -28.7391 0
      vertex -10.2547 -31.5608 0
    endloop
  endfacet
  facet normal -0.406737 -0.913545 0
    outer loop
      vertex -10.2547 -31.5608 3
      vertex -16.5925 -28.7391 3
      vertex -10.2547 -31.5608 0
    endloop
  endfacet
  facet normal -0.207912 -0.978148 0
    outer loop
      vertex -10.2547 -31.5608 3
      vertex -10.2547 -31.5608 0
      vertex -3.46878 -33.0032 0
    endloop
  endfacet
  facet normal -0.207912 -0.978148 0
    outer loop
      vertex -3.46878 -33.0032 3
      vertex -10.2547 -31.5608 3
      vertex -3.46878 -33.0032 0
    endloop
  endfacet
  facet normal 0 -1 0
    outer loop
      vertex -3.46878 -33.0032 3
      vertex -3.46878 -33.0032 0
      vertex 3.46878 -33.0032 0
    endloop
  endfacet
  facet normal 0 -1 0
    outer loop
      vertex 3.46878 -33.0032 3
      vertex -3.46878 -33.0032 3
      vertex 3.46878 -33.0032 0
    endloop
  endfacet
  facet normal 0.207912 -0.978148 0
    outer loop
      vertex 3.46878 -33.0032 3
      vertex 3.46878 -33.0032 0
      vertex 10.2547 -31.5608 0
    endloop
  endfacet
  facet normal 0.207912 -0.978148 0
    outer loop
      vertex 10.2547 -31.5608 3
      vertex 3.46878 -33.0032 3
      vertex 10.2547 -31.5608 0
    endloop
  endfacet
  facet normal 0.406737 -0.913545 0
    outer loop
      vertex 10.2547 -31.5608 3
      vertex 10.2547 -31.5608 0
      vertex 16.5925 -28.7391 0
    endloop
  endfacet
  facet normal 0.406737 -0.913545 0
    outer loop
      vertex 16.5925 -28.7391 3
      vertex 10.2547 -31.5608 3
      vertex 16.5925 -28.7391 0
    endloop
  endfacet
  facet normal 0.587785 -0.809017 0
    outer loop
      vertex 16.5925 -28.7391 3
      vertex 16.5925 -28.7391 0
      vertex 22.2051 -24.6613 0
    endloop
  endfacet
  facet normal 0.587785 -0.809017 0
    outer loop
      vertex 22.2051 -24.6613 3
      vertex 16.5925 -28.7391 3
      vertex 22.2051 -24.6613 0
    endloop
  endfacet
  facet normal 0.743145 -0.669131 0
    outer loop
      vertex 22.2051 -24.6613 3
      vertex 22.2051 -24.6613 0
      vertex 26.8472 -19.5057 0
    endloop
  endfacet
  facet normal 0.743145 -0.669131 0
    outer loop
      vertex 26.8472 -19.5057 3
      vertex 22.2051 -24.6613 3
      vertex 26.8472 -19.5057 0
    endloop
  endfacet
  facet normal 0.866025 -0.5 0
    outer loop
      vertex 26.8472 -19.5057 3
      vertex 26.8472 -19.5057 0
      vertex 30.316 -13.4976 0
    endloop
  endfacet
  facet normal 0.866025 -0.5 0
    outer loop
      vertex 30.316 -13.4976 3
      vertex 26.8472 -19.5057 3
      vertex 30.316 -13.4976 0
    endloop
  endfacet
  facet normal 0.951057 -0.309017 0
    outer loop
      vertex 30.316 -13.4976 3
      vertex 30.316 -13.4976 0
      vertex 32.4598 -6.89955 0
    endloop
  endfacet
  facet normal 0.951057 -0.309017 0
    outer loop
      vertex 32.4598 -6.89955 3
      vertex 30.316 -13.4976 3
      vertex 32.4598 -6.89955 0
    endloop
  endfacet
  facet normal 0.994522 -0.104528 0
    outer loop
      vertex 32.4598 -6.89955 3
      vertex 32.4598 -6.89955 0
      vertex 33.185 0 0
    endloop
  endfacet
  facet normal 0.994522 -0.104528 0
    outer loop
      vertex 33.185 0 3
      vertex 32.4598 -6.89955 3
      vertex 33.185 0 0
    endloop
  endfacet
  facet normal 0.994522 0.104528 0
    outer loop
      vertex 33.185 0 0
      vertex 32.4598 6.89955 0
      vertex 32.4598 6.89955 3
    endloop
  endfacet
  facet normal 0.994522 0.104528 0
    outer loop
      vertex 33.185 0 3
      vertex 33.185 0 0
      vertex 32.4598 6.89955 3
    endloop
  endfacet
  facet normal 0.951057 0.309017 0
    outer loop
      vertex 32.4598 6.89955 0
      vertex 30.316 13.4976 0
      vertex 30.316 13.4976 3
    endloop
  endfacet
  facet normal 0.951057 0.309017 0
    outer loop
      vertex 32.4598 6.89955 3
      vertex 32.4598 6.89955 0
      vertex 30.316 13.4976 3
    endloop
  endfacet
  facet normal 0.866025 0.5 0
    outer loop
      vertex 30.316 13.4976 0
      vertex 26.8472 19.5057 0
      vertex 26.8472 19.5057 3
    endloop
  endfacet
  facet normal 0.866025 0.5 0
    outer loop
      vertex 30.316 13.4976 3
      vertex 30.316 13.4976 0
      vertex 26.8472 19.5057 3
    endloop
  endfacet
  facet normal 0.743145 0.669131 0
    outer loop
      vertex 26.8472 19.5057 0
      vertex 22.2051 24.6613 0
      vertex 22.2051 24.6613 3
    endloop
  endfacet
  facet normal 0.743145 0.669131 0
    outer loop
      vertex 26.8472 19.5057 3
      vertex 26.8472 19.5057 0
      vertex 22.2051 24.6613 3
    endloop
  endfacet
  facet normal 0.587785 0.809017 0
    outer loop
      vertex 16.5925 28.7391 0
      vertex 16.5925 28.7391 3
      vertex 22.2051 24.6613 0
    endloop
  endfacet
  facet normal 0.587785 0.809017 0
    outer loop
      vertex 22.2051 24.6613 0
      vertex 16.5925 28.7391 3
      vertex 22.2051 24.6613 3
    endloop
  endfacet
  facet normal 0.406737 0.913545 0
    outer loop
      vertex 10.2547 31.5608 0
      vertex 10.2547 31.5608 3
      vertex 16.5925 28.7391 0
    endloop
  endfacet
  facet normal 0.406737 0.913545 0
    outer loop
      vertex 16.5925 28.7391 0
      vertex 10.2547 31.5608 3
      vertex 16.5925 28.7391 3
    endloop
  endfacet
  facet normal 0.207912 0.978148 0
    outer loop
      vertex 3.46878 33.0032 0
      vertex 3.46878 33.0032 3
      vertex 10.2547 31.5608 0
    endloop
  endfacet
  facet normal 0.207912 0.978148 0
    outer loop
      vertex 10.2547 31.5608 0
      vertex 3.46878 33.0032 3
      vertex 10.2547 31.5608 3
    endloop
  endfacet
  facet normal 0 1 0
    outer loop
      vertex -3.46878 33.0032 0
      vertex -3.46878 33.0032 3
      vertex 3.46878 33.0032 0
    endloop
  endfacet
  facet normal 0 1 0
    outer loop
      vertex 3.46878 33.0032 0
      vertex -3.46878 33.0032 3
      vertex 3.46878 33.0032 3
    endloop
  endfacet
  facet normal -0.207912 0.978148 0
    outer loop
      vertex -10.2547 31.5608 0
      vertex -10.2547 31.5608 3
      vertex -3.46878 33.0032 0
    endloop
  endfacet
  facet normal -0.207912 0.978148 0
    outer loop
      vertex -3.46878 33.0032 0
      vertex -10.2547 31.5608 3
      vertex -3.46878 33.0032 3
    endloop
  endfacet
  facet normal -0.406737 0.913545 0
    outer loop
      vertex -16.5925 28.7391 0
      vertex -16.5925 28.7391 3
      vertex -10.2547 31.5608 0
    endloop
  endfacet
  facet normal -0.406737 0.913545 0
    outer loop
      vertex -10.2547 31.5608 0
      vertex -16.5925 28.7391 3
      vertex -10.2547 31.5608 3
    endloop
  endfacet
  facet normal -0.587785 0.809017 0
    outer loop
      vertex -22.2051 24.6613 0
      vertex -22.2051 24.6613 3
      vertex -16.5925 28.7391 0
    endloop
  endfacet
  facet normal -0.587785 0.809017 0
    outer loop
      vertex -16.5925 28.7391 0
      vertex -22.2051 24.6613 3
      vertex -16.5925 28.7391 3
    endloop
  endfacet
  facet normal -0.743145 0.669131 0
    outer loop
      vertex -26.8472 19.5057 0
      vertex -26.8472 19.5057 3
      vertex -22.2051 24.6613 0
    endloop
  endfacet
  facet normal -0.743145 0.669131 0
    outer loop
      vertex -22.2051 24.6613 0
      vertex -26.8472 19.5057 3
      vertex -22.2051 24.6613 3
    endloop
  endfacet
  facet normal -0.866025 0.5 0
    outer loop
      vertex -30.316 13.4976 0
      vertex -30.316 13.4976 3
      vertex -26.8472 19.5057 0
    endloop
  endfacet
  facet normal -0.866025 0.5 0
    outer loop
      vertex -26.8472 19.5057 0
      vertex -30.316 13.4976 3
      vertex -26.8472 19.5057 3
    endloop
  endfacet
  facet normal -0.951057 0.309017 0
    outer loop
      vertex -32.4598 6.89955 0
      vertex -32.4598 6.89955 3
      vertex -30.316 13.4976 0
    endloop
  endfacet
  facet normal -0.951057 0.309017 0
    outer loop
      vertex -30.316 13.4976 0
      vertex -32.4598 6.89955 3
      vertex -30.316 13.4976 3
    endloop
  endfacet
  facet normal 0.994522 -0.104528 0
    outer loop
      vertex -11.0042 2.33901 0
      vertex -11.0042 2.33901 7
      vertex -11.25 0 7
    endloop
  endfacet
  facet normal 0.994522 -0.104528 0
    outer loop
      vertex -11.25 0 0
      vertex -11.0042 2.33901 0
      vertex -11.25 0 7
    endloop
  endfacet
  facet normal 0.994522 0.104528 0
    outer loop
      vertex -11.25 0 7
      vertex -11.0042 -2.33901 7
      vertex -11.0042 -2.33901 0
    endloop
  endfacet
  facet normal 0.994522 0.104528 0
    outer loop
      vertex -11.25 0 0
      vertex -11.25 0 7
      vertex -11.0042 -2.33901 0
    endloop
  endfacet
  facet normal 0.951056 -0.309017 0
    outer loop
      vertex -10.2774 4.57579 0
      vertex -10.2774 4.57579 7
      vertex -11.0042 2.33901 7
    endloop
  endfacet
  facet normal 0.951056 -0.309017 0
    outer loop
      vertex -11.0042 2.33901 0
      vertex -10.2774 4.57579 0
      vertex -11.0042 2.33901 7
    endloop
  endfacet
  facet normal 0.866025 -0.5 0
    outer loop
      vertex -9.10144 6.61258 0
      vertex -9.10144 6.61258 7
      vertex -10.2774 4.57579 7
    endloop
  endfacet
  facet normal 0.866025 -0.5 0
    outer loop
      vertex -10.2774 4.57579 0
      vertex -9.10144 6.61258 0
      vertex -10.2774 4.57579 7
    endloop
  endfacet
  facet normal 0.743145 -0.669131 0
    outer loop
      vertex -7.52772 8.36038 0
      vertex -7.52772 8.36038 7
      vertex -9.10144 6.61258 7
    endloop
  endfacet
  facet normal 0.743145 -0.669131 0
    outer loop
      vertex -9.10144 6.61258 0
      vertex -7.52772 8.36038 0
      vertex -9.10144 6.61258 7
    endloop
  endfacet
  facet normal 0.587785 -0.809017 0
    outer loop
      vertex -5.625 9.74279 0
      vertex -5.625 9.74279 7
      vertex -7.52772 8.36038 7
    endloop
  endfacet
  facet normal 0.587785 -0.809017 0
    outer loop
      vertex -7.52772 8.36038 0
      vertex -5.625 9.74279 0
      vertex -7.52772 8.36038 7
    endloop
  endfacet
  facet normal 0.406737 -0.913545 0
    outer loop
      vertex -3.47644 10.6994 0
      vertex -3.47644 10.6994 7
      vertex -5.625 9.74279 7
    endloop
  endfacet
  facet normal 0.406737 -0.913545 0
    outer loop
      vertex -5.625 9.74279 0
      vertex -3.47644 10.6994 0
      vertex -5.625 9.74279 7
    endloop
  endfacet
  facet normal 0.207911 -0.978148 0
    outer loop
      vertex -1.17595 11.1884 0
      vertex -1.17595 11.1884 7
      vertex -3.47644 10.6994 7
    endloop
  endfacet
  facet normal 0.207911 -0.978148 0
    outer loop
      vertex -3.47644 10.6994 0
      vertex -1.17595 11.1884 0
      vertex -3.47644 10.6994 7
    endloop
  endfacet
  facet normal 0 -1 0
    outer loop
      vertex 1.17595 11.1884 0
      vertex 1.17595 11.1884 7
      vertex -1.17595 11.1884 7
    endloop
  endfacet
  facet normal 0 -1 0
    outer loop
      vertex -1.17595 11.1884 0
      vertex 1.17595 11.1884 0
      vertex -1.17595 11.1884 7
    endloop
  endfacet
  facet normal -0.207911 -0.978148 0
    outer loop
      vertex 3.47644 10.6994 0
      vertex 3.47644 10.6994 7
      vertex 1.17595 11.1884 7
    endloop
  endfacet
  facet normal -0.207911 -0.978148 0
    outer loop
      vertex 1.17595 11.1884 0
      vertex 3.47644 10.6994 0
      vertex 1.17595 11.1884 7
    endloop
  endfacet
  facet normal -0.406737 -0.913545 0
    outer loop
      vertex 5.625 9.74279 0
      vertex 5.625 9.74279 7
      vertex 3.47644 10.6994 7
    endloop
  endfacet
  facet normal -0.406737 -0.913545 0
    outer loop
      vertex 3.47644 10.6994 0
      vertex 5.625 9.74279 0
      vertex 3.47644 10.6994 7
    endloop
  endfacet
  facet normal -0.587785 -0.809017 0
    outer loop
      vertex 7.52772 8.36038 0
      vertex 7.52772 8.36038 7
      vertex 5.625 9.74279 7
    endloop
  endfacet
  facet normal -0.587785 -0.809017 0
    outer loop
      vertex 5.625 9.74279 0
      vertex 7.52772 8.36038 0
      vertex 5.625 9.74279 7
    endloop
  endfacet
  facet normal -0.743145 -0.669131 0
    outer loop
      vertex 9.10144 6.61258 7
      vertex 7.52772 8.36038 7
      vertex 9.10144 6.61258 0
    endloop
  endfacet
  facet normal -0.743145 -0.669131 0
    outer loop
      vertex 9.10144 6.61258 0
      vertex 7.52772 8.36038 7
      vertex 7.52772 8.36038 0
    endloop
  endfacet
  facet normal -0.866025 -0.5 0
    outer loop
      vertex 10.2774 4.57579 7
      vertex 9.10144 6.61258 7
      vertex 10.2774 4.57579 0
    endloop
  endfacet
  facet normal -0.866025 -0.5 0
    outer loop
      vertex 10.2774 4.57579 0
      vertex 9.10144 6.61258 7
      vertex 9.10144 6.61258 0
    endloop
  endfacet
  facet normal -0.951056 -0.309017 0
    outer loop
      vertex 11.0042 2.33901 7
      vertex 10.2774 4.57579 7
      vertex 11.0042 2.33901 0
    endloop
  endfacet
  facet normal -0.951056 -0.309017 0
    outer loop
      vertex 11.0042 2.33901 0
      vertex 10.2774 4.57579 7
      vertex 10.2774 4.57579 0
    endloop
  endfacet
  facet normal -0.994522 -0.104528 0
    outer loop
      vertex 11.25 0 7
      vertex 11.0042 2.33901 7
      vertex 11.25 0 0
    endloop
  endfacet
  facet normal -0.994522 -0.104528 0
    outer loop
      vertex 11.25 0 0
      vertex 11.0042 2.33901 7
      vertex 11.0042 2.33901 0
    endloop
  endfacet
  facet normal -0.994522 0.104528 0
    outer loop
      vertex 11.25 0 7
      vertex 11.25 0 0
      vertex 11.0042 -2.33901 7
    endloop
  endfacet
  facet normal -0.994522 0.104528 0
    outer loop
      vertex 11.0042 -2.33901 7
      vertex 11.25 0 0
      vertex 11.0042 -2.33901 0
    endloop
  endfacet
  facet normal -0.951056 0.309017 0
    outer loop
      vertex 11.0042 -2.33901 7
      vertex 11.0042 -2.33901 0
      vertex 10.2774 -4.57579 7
    endloop
  endfacet
  facet normal -0.951056 0.309017 0
    outer loop
      vertex 10.2774 -4.57579 7
      vertex 11.0042 -2.33901 0
      vertex 10.2774 -4.57579 0
    endloop
  endfacet
  facet normal -0.866025 0.5 0
    outer loop
      vertex 10.2774 -4.57579 7
      vertex 10.2774 -4.57579 0
      vertex 9.10144 -6.61258 7
    endloop
  endfacet
  facet normal -0.866025 0.5 0
    outer loop
      vertex 9.10144 -6.61258 7
      vertex 10.2774 -4.57579 0
      vertex 9.10144 -6.61258 0
    endloop
  endfacet
  facet normal -0.743145 0.669131 0
    outer loop
      vertex 9.10144 -6.61258 7
      vertex 9.10144 -6.61258 0
      vertex 7.52772 -8.36038 7
    endloop
  endfacet
  facet normal -0.743145 0.669131 0
    outer loop
      vertex 7.52772 -8.36038 7
      vertex 9.10144 -6.61258 0
      vertex 7.52772 -8.36038 0
    endloop
  endfacet
  facet normal -0.587785 0.809017 0
    outer loop
      vertex 7.52772 -8.36038 7
      vertex 7.52772 -8.36038 0
      vertex 5.625 -9.74279 7
    endloop
  endfacet
  facet normal -0.587785 0.809017 0
    outer loop
      vertex 5.625 -9.74279 7
      vertex 7.52772 -8.36038 0
      vertex 5.625 -9.74279 0
    endloop
  endfacet
  facet normal -0.406737 0.913545 0
    outer loop
      vertex 5.625 -9.74279 7
      vertex 5.625 -9.74279 0
      vertex 3.47644 -10.6994 7
    endloop
  endfacet
  facet normal -0.406737 0.913545 0
    outer loop
      vertex 3.47644 -10.6994 7
      vertex 5.625 -9.74279 0
      vertex 3.47644 -10.6994 0
    endloop
  endfacet
  facet normal -0.207911 0.978148 0
    outer loop
      vertex 3.47644 -10.6994 7
      vertex 3.47644 -10.6994 0
      vertex 1.17595 -11.1884 7
    endloop
  endfacet
  facet normal -0.207911 0.978148 0
    outer loop
      vertex 1.17595 -11.1884 7
      vertex 3.47644 -10.6994 0
      vertex 1.17595 -11.1884 0
    endloop
  endfacet
  facet normal 0 1 0
    outer loop
      vertex 1.17595 -11.1884 7
      vertex 1.17595 -11.1884 0
      vertex -1.17595 -11.1884 7
    endloop
  endfacet
  facet normal 0 1 0
    outer loop
      vertex -1.17595 -11.1884 7
      vertex 1.17595 -11.1884 0
      vertex -1.17595 -11.1884 0
    endloop
  endfacet
  facet normal 0.207911 0.978148 0
    outer loop
      vertex -1.17595 -11.1884 7
      vertex -1.17595 -11.1884 0
      vertex -3.47644 -10.6994 7
    endloop
  endfacet
  facet normal 0.207911 0.978148 0
    outer loop
      vertex -3.47644 -10.6994 7
      vertex -1.17595 -11.1884 0
      vertex -3.47644 -10.6994 0
    endloop
  endfacet
  facet normal 0.406737 0.913545 0
    outer loop
      vertex -3.47644 -10.6994 7
      vertex -3.47644 -10.6994 0
      vertex -5.625 -9.74279 7
    endloop
  endfacet
  facet normal 0.406737 0.913545 0
    outer loop
      vertex -5.625 -9.74279 7
      vertex -3.47644 -10.6994 0
      vertex -5.625 -9.74279 0
    endloop
  endfacet
  facet normal 0.587785 0.809017 0
    outer loop
      vertex -5.625 -9.74279 7
      vertex -5.625 -9.74279 0
      vertex -7.52772 -8.36038 7
    endloop
  endfacet
  facet normal 0.587785 0.809017 0
    outer loop
      vertex -7.52772 -8.36038 7
      vertex -5.625 -9.74279 0
      vertex -7.52772 -8.36038 0
    endloop
  endfacet
  facet normal 0.743145 0.669131 0
    outer loop
      vertex -9.10144 -6.61258 7
      vertex -7.52772 -8.36038 7
      vertex -7.52772 -8.36038 0
    endloop
  endfacet
  facet normal 0.743145 0.669131 0
    outer loop
      vertex -9.10144 -6.61258 0
      vertex -9.10144 -6.61258 7
      vertex -7.52772 -8.36038 0
    endloop
  endfacet
  facet normal 0.866025 0.5 0
    outer loop
      vertex -10.2774 -4.57579 7
      vertex -9.10144 -6.61258 7
      vertex -9.10144 -6.61258 0
    endloop
  endfacet
  facet normal 0.866025 0.5 0
    outer loop
      vertex -10.2774 -4.57579 0
      vertex -10.2774 -4.57579 7
      vertex -9.10144 -6.61258 0
    endloop
  endfacet
  facet normal 0.951056 0.309017 0
    outer loop
      vertex -11.0042 -2.33901 7
      vertex -10.2774 -4.57579 7
      vertex -10.2774 -4.57579 0
    endloop
  endfacet
  facet normal 0.951056 0.309017 0
    outer loop
      vertex -11.0042 -2.33901 0
      vertex -11.0042 -2.33901 7
      vertex -10.2774 -4.57579 0
    endloop
  endfacet
  facet normal 0 0 1
    outer loop
      vertex -32.4598 6.89955 3
      vertex -33.185 0 3
      vertex -32.4598 -6.89955 3
    endloop
  endfacet
  facet normal 0 0 1
    outer loop
      vertex -26.8472 -19.5057 3
      vertex -32.4598 6.89955 3
      vertex -30.316 -13.4976 3
    endloop
  endfacet
  facet normal 0 0 1
    outer loop
      vertex -30.316 -13.4976 3
      vertex -32.4598 6.89955 3
      vertex -32.4598 -6.89955 3
    endloop
  endfacet
  facet normal 0 0 1
    outer loop
      vertex -22.2051 -24.6613 3
      vertex -32.4598 6.89955 3
      vertex -26.8472 -19.5057 3
    endloop
  endfacet
  facet normal 0 0 1
    outer loop
      vertex -16.5925 -28.7391 3
      vertex -32.4598 6.89955 3
      vertex -22.2051 -24.6613 3
    endloop
  endfacet
  facet normal 0 0 1
    outer loop
      vertex -23.4073 -10.4216 3
      vertex -32.4598 6.89955 3
      vertex -16.5925 -28.7391 3
    endloop
  endfacet
  facet normal 0 0 1
    outer loop
      vertex -23.4073 -10.4216 3
      vertex -23.806 -9.19461 3
      vertex -32.4598 6.89955 3
    endloop
  endfacet
  facet normal 0 0 1
    outer loop
      vertex -2.67828 -25.4821 3
      vertex -3.94023 -25.2139 3
      vertex 3.46878 -33.0032 3
    endloop
  endfacet
  facet normal 0 0 1
    outer loop
      vertex -24.6639 6.55422 3
      vertex -23.4073 10.4216 3
      vertex -32.4598 6.89955 3
    endloop
  endfacet
  facet normal 0 0 1
    outer loop
      vertex 25.4876 -1.28307 3
      vertex 25.0626 -5.32722 3
      vertex 32.4598 -6.89955 3
    endloop
  endfacet
  facet normal 0 0 1
    outer loop
      vertex 12.8112 22.1897 3
      vertex 13.855 21.4314 3
      vertex 22.2051 24.6613 3
    endloop
  endfacet
  facet normal 0 0 1
    outer loop
      vertex -2.67828 25.4821 3
      vertex 2.67828 25.4821 3
      vertex 10.2547 31.5608 3
    endloop
  endfacet
  facet normal 0 0 1
    outer loop
      vertex -10.2547 31.5608 3
      vertex -32.4598 6.89955 3
      vertex -3.46878 33.0032 3
    endloop
  endfacet
  facet normal 0 0 1
    outer loop
      vertex -16.5925 28.7391 3
      vertex -32.4598 6.89955 3
      vertex -10.2547 31.5608 3
    endloop
  endfacet
  facet normal 0 0 1
    outer loop
      vertex -22.2051 24.6613 3
      vertex -32.4598 6.89955 3
      vertex -16.5925 28.7391 3
    endloop
  endfacet
  facet normal 0 0 1
    outer loop
      vertex -26.8472 19.5057 3
      vertex -32.4598 6.89955 3
      vertex -22.2051 24.6613 3
    endloop
  endfacet
  facet normal 0 0 1
    outer loop
      vertex -30.316 13.4976 3
      vertex -32.4598 6.89955 3
      vertex -26.8472 19.5057 3
    endloop
  endfacet
  facet normal 0 0 1
    outer loop
      vertex -9.09639 -23.8437 3
      vertex -12.8112 -22.1897 3
      vertex -3.46878 -33.0032 3
    endloop
  endfacet
  facet normal 0 0 1
    outer loop
      vertex -18.0081 -18.0825 3
      vertex -20.729 -15.0605 3
      vertex -10.2547 -31.5608 3
    endloop
  endfacet
  facet normal 0 0 1
    outer loop
      vertex 23.4073 -10.4216 3
      vertex 22.7622 -11.5389 3
      vertex 30.316 -13.4976 3
    endloop
  endfacet
  facet normal 0 0 1
    outer loop
      vertex 11.6326 -22.7145 3
      vertex 7.91779 -24.3684 3
      vertex 16.5925 -28.7391 3
    endloop
  endfacet
  facet normal 0 0 1
    outer loop
      vertex 18.0081 18.0825 3
      vertex 20.729 15.0605 3
      vertex 26.8472 19.5057 3
    endloop
  endfacet
  facet normal 0 0 1
    outer loop
      vertex -22.7622 11.5389 3
      vertex -20.729 15.0605 3
      vertex -32.4598 6.89955 3
    endloop
  endfacet
  facet normal 0 0 1
    outer loop
      vertex 23.806 9.19461 3
      vertex 25.0626 5.32722 3
      vertex 32.4598 6.89955 3
    endloop
  endfacet
  facet normal 0 0 1
    outer loop
      vertex 3.94023 25.2139 3
      vertex 7.91779 24.3684 3
      vertex 16.5925 28.7391 3
    endloop
  endfacet
  facet normal 0 0 1
    outer loop
      vertex -19.8658 16.0193 3
      vertex -32.4598 6.89955 3
      vertex -20.729 15.0605 3
    endloop
  endfacet
  facet normal 0 0 1
    outer loop
      vertex -12.8112 22.1897 3
      vertex -11.6326 22.7145 3
      vertex 3.46878 33.0032 3
    endloop
  endfacet
  facet normal 0 0 1
    outer loop
      vertex -3.46878 33.0032 3
      vertex -32.4598 6.89955 3
      vertex -17.1448 19.0412 3
    endloop
  endfacet
  facet normal 0 0 1
    outer loop
      vertex -11.6326 22.7145 3
      vertex -7.91779 24.3684 3
      vertex 3.46878 33.0032 3
    endloop
  endfacet
  facet normal 0 0 1
    outer loop
      vertex -3.46878 33.0032 3
      vertex -17.1448 19.0412 3
      vertex -16.1011 19.7996 3
    endloop
  endfacet
  facet normal 0 0 1
    outer loop
      vertex -3.46878 33.0032 3
      vertex -12.8112 22.1897 3
      vertex 3.46878 33.0032 3
    endloop
  endfacet
  facet normal 0 0 1
    outer loop
      vertex -3.46878 33.0032 3
      vertex -16.1011 19.7996 3
      vertex -12.8112 22.1897 3
    endloop
  endfacet
  facet normal 0 0 1
    outer loop
      vertex 3.46878 33.0032 3
      vertex -7.91779 24.3684 3
      vertex 10.2547 31.5608 3
    endloop
  endfacet
  facet normal 0 0 1
    outer loop
      vertex -7.91779 24.3684 3
      vertex -6.65584 24.6367 3
      vertex 10.2547 31.5608 3
    endloop
  endfacet
  facet normal 0 0 1
    outer loop
      vertex -6.65584 24.6367 3
      vertex -2.67828 25.4821 3
      vertex 10.2547 31.5608 3
    endloop
  endfacet
  facet normal 0 0 1
    outer loop
      vertex 10.2547 31.5608 3
      vertex 2.67828 25.4821 3
      vertex 16.5925 28.7391 3
    endloop
  endfacet
  facet normal 0 0 1
    outer loop
      vertex 2.67828 25.4821 3
      vertex 3.94023 25.2139 3
      vertex 16.5925 28.7391 3
    endloop
  endfacet
  facet normal 0 0 1
    outer loop
      vertex 16.5925 28.7391 3
      vertex 7.91779 24.3684 3
      vertex 22.2051 24.6613 3
    endloop
  endfacet
  facet normal 0 0 1
    outer loop
      vertex 7.91779 24.3684 3
      vertex 9.09639 23.8437 3
      vertex 22.2051 24.6613 3
    endloop
  endfacet
  facet normal 0 0 1
    outer loop
      vertex 9.09639 23.8437 3
      vertex 12.8112 22.1897 3
      vertex 22.2051 24.6613 3
    endloop
  endfacet
  facet normal 0 0 1
    outer loop
      vertex 22.2051 24.6613 3
      vertex 13.855 21.4314 3
      vertex 26.8472 19.5057 3
    endloop
  endfacet
  facet normal 0 0 1
    outer loop
      vertex -23.4073 10.4216 3
      vertex -22.7622 11.5389 3
      vertex -32.4598 6.89955 3
    endloop
  endfacet
  facet normal 0 0 1
    outer loop
      vertex 13.855 21.4314 3
      vertex 17.1448 19.0412 3
      vertex 26.8472 19.5057 3
    endloop
  endfacet
  facet normal 0 0 1
    outer loop
      vertex -19.8658 16.0193 3
      vertex -17.1448 19.0412 3
      vertex -32.4598 6.89955 3
    endloop
  endfacet
  facet normal 0 0 1
    outer loop
      vertex 17.1448 19.0412 3
      vertex 18.0081 18.0825 3
      vertex 26.8472 19.5057 3
    endloop
  endfacet
  facet normal 0 0 1
    outer loop
      vertex 26.8472 19.5057 3
      vertex 20.729 15.0605 3
      vertex 30.316 13.4976 3
    endloop
  endfacet
  facet normal 0 0 1
    outer loop
      vertex 20.729 15.0605 3
      vertex 21.3741 13.9432 3
      vertex 30.316 13.4976 3
    endloop
  endfacet
  facet normal 0 0 1
    outer loop
      vertex 30.316 13.4976 3
      vertex 23.4073 10.4216 3
      vertex 32.4598 6.89955 3
    endloop
  endfacet
  facet normal 0 0 1
    outer loop
      vertex 23.4073 10.4216 3
      vertex 23.806 9.19461 3
      vertex 32.4598 6.89955 3
    endloop
  endfacet
  facet normal 0 0 1
    outer loop
      vertex 32.4598 6.89955 3
      vertex 25.0626 5.32722 3
      vertex 33.185 0 3
    endloop
  endfacet
  facet normal 0 0 1
    outer loop
      vertex 25.0626 5.32722 3
      vertex 25.1974 4.04414 3
      vertex 33.185 0 3
    endloop
  endfacet
  facet normal 0 0 1
    outer loop
      vertex 33.185 0 3
      vertex 25.6225 0 3
      vertex 32.4598 -6.89955 3
    endloop
  endfacet
  facet normal 0 0 1
    outer loop
      vertex 25.6225 0 3
      vertex 25.4876 -1.28307 3
      vertex 32.4598 -6.89955 3
    endloop
  endfacet
  facet normal 0 0 1
    outer loop
      vertex 32.4598 -6.89955 3
      vertex 25.0626 -5.32722 3
      vertex 30.316 -13.4976 3
    endloop
  endfacet
  facet normal 0 0 1
    outer loop
      vertex -25.0626 5.32722 3
      vertex -24.6639 6.55422 3
      vertex -32.4598 6.89955 3
    endloop
  endfacet
  facet normal 0 0 1
    outer loop
      vertex 25.0626 -5.32722 3
      vertex 24.6639 -6.55422 3
      vertex 30.316 -13.4976 3
    endloop
  endfacet
  facet normal 0 0 1
    outer loop
      vertex 24.6639 -6.55422 3
      vertex 23.4073 -10.4216 3
      vertex 30.316 -13.4976 3
    endloop
  endfacet
  facet normal 0 0 1
    outer loop
      vertex 21.3741 13.9432 3
      vertex 23.4073 10.4216 3
      vertex 30.316 13.4976 3
    endloop
  endfacet
  facet normal 0 0 1
    outer loop
      vertex 30.316 -13.4976 3
      vertex 22.7622 -11.5389 3
      vertex 26.8472 -19.5057 3
    endloop
  endfacet
  facet normal 0 0 1
    outer loop
      vertex 22.7622 -11.5389 3
      vertex 20.729 -15.0605 3
      vertex 26.8472 -19.5057 3
    endloop
  endfacet
  facet normal 0 0 1
    outer loop
      vertex 20.729 -15.0605 3
      vertex 19.8658 -16.0193 3
      vertex 26.8472 -19.5057 3
    endloop
  endfacet
  facet normal 0 0 1
    outer loop
      vertex 26.8472 -19.5057 3
      vertex 17.1448 -19.0412 3
      vertex 22.2051 -24.6613 3
    endloop
  endfacet
  facet normal 0 0 1
    outer loop
      vertex 25.1974 4.04414 3
      vertex 25.6225 0 3
      vertex 33.185 0 3
    endloop
  endfacet
  facet normal 0 0 1
    outer loop
      vertex 17.1448 -19.0412 3
      vertex 16.1011 -19.7996 3
      vertex 22.2051 -24.6613 3
    endloop
  endfacet
  facet normal 0 0 1
    outer loop
      vertex 22.2051 -24.6613 3
      vertex 12.8112 -22.1897 3
      vertex 16.5925 -28.7391 3
    endloop
  endfacet
  facet normal 0 0 1
    outer loop
      vertex 12.8112 -22.1897 3
      vertex 11.6326 -22.7145 3
      vertex 16.5925 -28.7391 3
    endloop
  endfacet
  facet normal 0 0 1
    outer loop
      vertex 16.5925 -28.7391 3
      vertex 7.91779 -24.3684 3
      vertex 10.2547 -31.5608 3
    endloop
  endfacet
  facet normal 0 0 1
    outer loop
      vertex 7.91779 -24.3684 3
      vertex 6.65584 -24.6367 3
      vertex 10.2547 -31.5608 3
    endloop
  endfacet
  facet normal 0 0 1
    outer loop
      vertex 10.2547 -31.5608 3
      vertex 2.67828 -25.4821 3
      vertex 3.46878 -33.0032 3
    endloop
  endfacet
  facet normal 0 0 1
    outer loop
      vertex 2.67828 -25.4821 3
      vertex -2.67828 -25.4821 3
      vertex 3.46878 -33.0032 3
    endloop
  endfacet
  facet normal 0 0 1
    outer loop
      vertex 3.46878 -33.0032 3
      vertex -3.94023 -25.2139 3
      vertex -3.46878 -33.0032 3
    endloop
  endfacet
  facet normal 0 0 1
    outer loop
      vertex -25.6225 0 3
      vertex -25.4876 1.28307 3
      vertex -32.4598 6.89955 3
    endloop
  endfacet
  facet normal 0 0 1
    outer loop
      vertex -3.94023 -25.2139 3
      vertex -7.91779 -24.3684 3
      vertex -3.46878 -33.0032 3
    endloop
  endfacet
  facet normal 0 0 1
    outer loop
      vertex -7.91779 -24.3684 3
      vertex -9.09639 -23.8437 3
      vertex -3.46878 -33.0032 3
    endloop
  endfacet
  facet normal 0 0 1
    outer loop
      vertex 19.8658 -16.0193 3
      vertex 17.1448 -19.0412 3
      vertex 26.8472 -19.5057 3
    endloop
  endfacet
  facet normal 0 0 1
    outer loop
      vertex -3.46878 -33.0032 3
      vertex -12.8112 -22.1897 3
      vertex -10.2547 -31.5608 3
    endloop
  endfacet
  facet normal 0 0 1
    outer loop
      vertex -12.8112 -22.1897 3
      vertex -13.855 -21.4314 3
      vertex -10.2547 -31.5608 3
    endloop
  endfacet
  facet normal 0 0 1
    outer loop
      vertex -13.855 -21.4314 3
      vertex -17.1448 -19.0412 3
      vertex -10.2547 -31.5608 3
    endloop
  endfacet
  facet normal 0 0 1
    outer loop
      vertex -17.1448 -19.0412 3
      vertex -18.0081 -18.0825 3
      vertex -10.2547 -31.5608 3
    endloop
  endfacet
  facet normal 0 0 1
    outer loop
      vertex -25.0626 -5.32722 3
      vertex -25.1974 -4.04414 3
      vertex -32.4598 6.89955 3
    endloop
  endfacet
  facet normal 0 0 1
    outer loop
      vertex -10.2547 -31.5608 3
      vertex -20.729 -15.0605 3
      vertex -16.5925 -28.7391 3
    endloop
  endfacet
  facet normal 0 0 1
    outer loop
      vertex -20.729 -15.0605 3
      vertex -21.3741 -13.9432 3
      vertex -16.5925 -28.7391 3
    endloop
  endfacet
  facet normal 0 0 1
    outer loop
      vertex -21.3741 -13.9432 3
      vertex -23.4073 -10.4216 3
      vertex -16.5925 -28.7391 3
    endloop
  endfacet
  facet normal 0 0 1
    outer loop
      vertex -23.806 -9.19461 3
      vertex -25.0626 -5.32722 3
      vertex -32.4598 6.89955 3
    endloop
  endfacet
  facet normal 0 0 1
    outer loop
      vertex -25.1974 -4.04414 3
      vertex -25.6225 0 3
      vertex -32.4598 6.89955 3
    endloop
  endfacet
  facet normal 0 0 1
    outer loop
      vertex 16.1011 -19.7996 3
      vertex 12.8112 -22.1897 3
      vertex 22.2051 -24.6613 3
    endloop
  endfacet
  facet normal 0 0 1
    outer loop
      vertex 6.65584 -24.6367 3
      vertex 2.67828 -25.4821 3
      vertex 10.2547 -31.5608 3
    endloop
  endfacet
  facet normal 0 0 1
    outer loop
      vertex -25.4876 1.28307 3
      vertex -25.0626 5.32722 3
      vertex -32.4598 6.89955 3
    endloop
  endfacet
  facet normal 0 0 -1
    outer loop
      vertex -10.2774 4.57579 7
      vertex -9.10144 6.61258 7
      vertex -11.0042 2.33901 7
    endloop
  endfacet
  facet normal 0 0 -1
    outer loop
      vertex -11.0042 2.33901 7
      vertex -9.10144 6.61258 7
      vertex -7.52772 8.36038 7
    endloop
  endfacet
  facet normal 0 0 -1
    outer loop
      vertex -11.0042 2.33901 7
      vertex -7.52772 8.36038 7
      vertex -5.625 9.74279 7
    endloop
  endfacet
  facet normal 0 0 -1
    outer loop
      vertex -11.0042 2.33901 7
      vertex -5.625 9.74279 7
      vertex -3.47644 10.6994 7
    endloop
  endfacet
  facet normal 0 0 -1
    outer loop
      vertex -11.0042 2.33901 7
      vertex -3.47644 10.6994 7
      vertex -1.17595 11.1884 7
    endloop
  endfacet
  facet normal 0 0 -1
    outer loop
      vertex -11.0042 2.33901 7
      vertex -1.17595 11.1884 7
      vertex 1.17595 11.1884 7
    endloop
  endfacet
  facet normal 0 0 -1
    outer loop
      vertex -11.0042 2.33901 7
      vertex 1.17595 11.1884 7
      vertex 3.47644 10.6994 7
    endloop
  endfacet
  facet normal 0 0 -1
    outer loop
      vertex -11.0042 2.33901 7
      vertex 3.47644 10.6994 7
      vertex 5.625 9.74279 7
    endloop
  endfacet
  facet normal 0 0 -1
    outer loop
      vertex -11.0042 2.33901 7
      vertex 5.625 9.74279 7
      vertex 7.52772 8.36038 7
    endloop
  endfacet
  facet normal 0 0 -1
    outer loop
      vertex -11.0042 2.33901 7
      vertex 7.52772 8.36038 7
      vertex 9.10144 6.61258 7
    endloop
  endfacet
  facet normal 0 0 -1
    outer loop
      vertex -11.0042 2.33901 7
      vertex 9.10144 6.61258 7
      vertex 10.2774 4.57579 7
    endloop
  endfacet
  facet normal 0 0 -1
    outer loop
      vertex -11.0042 2.33901 7
      vertex 10.2774 4.57579 7
      vertex 11.0042 2.33901 7
    endloop
  endfacet
  facet normal 0 0 -1
    outer loop
      vertex -11.0042 2.33901 7
      vertex 11.0042 2.33901 7
      vertex 11.25 0 7
    endloop
  endfacet
  facet normal 0 0 -1
    outer loop
      vertex -11.0042 2.33901 7
      vertex 11.25 0 7
      vertex 11.0042 -2.33901 7
    endloop
  endfacet
  facet normal 0 0 -1
    outer loop
      vertex -11.0042 2.33901 7
      vertex 11.0042 -2.33901 7
      vertex 10.2774 -4.57579 7
    endloop
  endfacet
  facet normal 0 0 -1
    outer loop
      vertex -11.0042 2.33901 7
      vertex 10.2774 -4.57579 7
      vertex 9.10144 -6.61258 7
    endloop
  endfacet
  facet normal 0 0 -1
    outer loop
      vertex -11.0042 2.33901 7
      vertex 9.10144 -6.61258 7
      vertex 7.52772 -8.36038 7
    endloop
  endfacet
  facet normal 0 0 -1
    outer loop
      vertex -11.0042 2.33901 7
      vertex 7.52772 -8.36038 7
      vertex 5.625 -9.74279 7
    endloop
  endfacet
  facet normal 0 0 -1
    outer loop
      vertex -11.0042 2.33901 7
      vertex 5.625 -9.74279 7
      vertex 3.47644 -10.6994 7
    endloop
  endfacet
  facet normal 0 0 -1
    outer loop
      vertex -11.0042 2.33901 7
      vertex 3.47644 -10.6994 7
      vertex 1.17595 -11.1884 7
    endloop
  endfacet
  facet normal 0 0 -1
    outer loop
      vertex -11.0042 2.33901 7
      vertex 1.17595 -11.1884 7
      vertex -1.17595 -11.1884 7
    endloop
  endfacet
  facet normal 0 0 -1
    outer loop
      vertex -11.0042 2.33901 7
      vertex -1.17595 -11.1884 7
      vertex -3.47644 -10.6994 7
    endloop
  endfacet
  facet normal 0 0 -1
    outer loop
      vertex -11.0042 2.33901 7
      vertex -3.47644 -10.6994 7
      vertex -5.625 -9.74279 7
    endloop
  endfacet
  facet normal 0 0 -1
    outer loop
      vertex -11.0042 2.33901 7
      vertex -5.625 -9.74279 7
      vertex -7.52772 -8.36038 7
    endloop
  endfacet
  facet normal 0 0 -1
    outer loop
      vertex -11.0042 2.33901 7
      vertex -7.52772 -8.36038 7
      vertex -9.10144 -6.61258 7
    endloop
  endfacet
  facet normal 0 0 -1
    outer loop
      vertex -11.0042 2.33901 7
      vertex -9.10144 -6.61258 7
      vertex -10.2774 -4.57579 7
    endloop
  endfacet
  facet normal 0 0 -1
    outer loop
      vertex -11.0042 2.33901 7
      vertex -10.2774 -4.57579 7
      vertex -11.0042 -2.33901 7
    endloop
  endfacet
  facet normal 0 0 -1
    outer loop
      vertex -11.0042 2.33901 7
      vertex -11.0042 -2.33901 7
      vertex -11.25 0 7
    endloop
  endfacet
  facet normal -0.989228 0.103972 0.103045
    outer loop
      vertex -25.6225 0 3
      vertex -24.685 0 12
      vertex -25.4876 1.28307 3
    endloop
  endfacet
  facet normal -0.989228 0.103972 0.103045
    outer loop
      vertex -25.4876 1.28307 3
      vertex -24.685 0 12
      vertex -24.1456 5.1323 12
    endloop
  endfacet
  facet normal -0.989228 -0.103972 0.103045
    outer loop
      vertex -24.685 0 12
      vertex -25.6225 0 3
      vertex -25.1974 -4.04414 3
    endloop
  endfacet
  facet normal -0.989228 -0.103972 0.103045
    outer loop
      vertex -25.1974 -4.04414 3
      vertex -25.0626 -5.32722 3
      vertex -24.685 0 12
    endloop
  endfacet
  facet normal -0.989228 -0.103972 0.103045
    outer loop
      vertex -24.685 0 12
      vertex -25.0626 -5.32722 3
      vertex -24.1456 -5.1323 12
    endloop
  endfacet
  facet normal -0.945994 -0.307372 0.103045
    outer loop
      vertex -24.1456 -5.1323 12
      vertex -25.0626 -5.32722 3
      vertex -23.806 -9.19461 3
    endloop
  endfacet
  facet normal -0.945994 -0.307372 0.103045
    outer loop
      vertex -24.1456 -5.1323 12
      vertex -23.806 -9.19461 3
      vertex -22.5509 -10.0403 12
    endloop
  endfacet
  facet normal -0.945994 -0.307372 0.103045
    outer loop
      vertex -22.5509 -10.0403 12
      vertex -23.806 -9.19461 3
      vertex -23.4073 -10.4216 3
    endloop
  endfacet
  facet normal -0.861415 -0.497338 0.103045
    outer loop
      vertex -22.5509 -10.0403 12
      vertex -23.4073 -10.4216 3
      vertex -21.3741 -13.9432 3
    endloop
  endfacet
  facet normal -0.861415 -0.497338 0.103045
    outer loop
      vertex -22.5509 -10.0403 12
      vertex -21.3741 -13.9432 3
      vertex -19.9706 -14.5095 12
    endloop
  endfacet
  facet normal -0.861415 -0.497338 0.103045
    outer loop
      vertex -19.9706 -14.5095 12
      vertex -21.3741 -13.9432 3
      vertex -20.729 -15.0605 3
    endloop
  endfacet
  facet normal -0.739189 -0.665569 0.103045
    outer loop
      vertex -19.9706 -14.5095 12
      vertex -20.729 -15.0605 3
      vertex -18.0081 -18.0825 3
    endloop
  endfacet
  facet normal -0.739189 -0.665569 0.103045
    outer loop
      vertex -19.9706 -14.5095 12
      vertex -18.0081 -18.0825 3
      vertex -16.5175 -18.3445 12
    endloop
  endfacet
  facet normal -0.739189 -0.665569 0.103045
    outer loop
      vertex -16.5175 -18.3445 12
      vertex -18.0081 -18.0825 3
      vertex -17.1448 -19.0412 3
    endloop
  endfacet
  facet normal -0.584656 -0.80471 0.103045
    outer loop
      vertex -16.5175 -18.3445 12
      vertex -17.1448 -19.0412 3
      vertex -13.855 -21.4314 3
    endloop
  endfacet
  facet normal -0.584656 -0.80471 0.103045
    outer loop
      vertex -12.3425 -21.3778 12
      vertex -16.5175 -18.3445 12
      vertex -13.855 -21.4314 3
    endloop
  endfacet
  facet normal -0.584656 -0.80471 0.103045
    outer loop
      vertex -12.8112 -22.1897 3
      vertex -12.3425 -21.3778 12
      vertex -13.855 -21.4314 3
    endloop
  endfacet
  facet normal -0.404572 -0.908682 0.103045
    outer loop
      vertex -12.3425 -21.3778 12
      vertex -12.8112 -22.1897 3
      vertex -9.09639 -23.8437 3
    endloop
  endfacet
  facet normal -0.404572 -0.908682 0.103045
    outer loop
      vertex -7.62808 -23.4768 12
      vertex -12.3425 -21.3778 12
      vertex -9.09639 -23.8437 3
    endloop
  endfacet
  facet normal -0.404572 -0.908682 0.103045
    outer loop
      vertex -7.91779 -24.3684 3
      vertex -7.62808 -23.4768 12
      vertex -9.09639 -23.8437 3
    endloop
  endfacet
  facet normal -0.206805 -0.972941 0.103045
    outer loop
      vertex -7.62808 -23.4768 12
      vertex -7.91779 -24.3684 3
      vertex -3.94023 -25.2139 3
    endloop
  endfacet
  facet normal -0.206805 -0.972941 0.103045
    outer loop
      vertex -2.58028 -24.5498 12
      vertex -7.62808 -23.4768 12
      vertex -3.94023 -25.2139 3
    endloop
  endfacet
  facet normal -0.206805 -0.972941 0.103045
    outer loop
      vertex -2.67828 -25.4821 3
      vertex -2.58028 -24.5498 12
      vertex -3.94023 -25.2139 3
    endloop
  endfacet
  facet normal 0 -0.994677 0.103045
    outer loop
      vertex -2.58028 -24.5498 12
      vertex -2.67828 -25.4821 3
      vertex 2.67828 -25.4821 3
    endloop
  endfacet
  facet normal 0 -0.994677 0.103045
    outer loop
      vertex 2.58028 -24.5498 12
      vertex -2.58028 -24.5498 12
      vertex 2.67828 -25.4821 3
    endloop
  endfacet
  facet normal 0.206805 -0.972941 0.103045
    outer loop
      vertex 6.65584 -24.6367 3
      vertex 2.58028 -24.5498 12
      vertex 2.67828 -25.4821 3
    endloop
  endfacet
  facet normal 0.206805 -0.972941 0.103045
    outer loop
      vertex 7.62808 -23.4768 12
      vertex 2.58028 -24.5498 12
      vertex 6.65584 -24.6367 3
    endloop
  endfacet
  facet normal 0.206805 -0.972941 0.103045
    outer loop
      vertex 7.91779 -24.3684 3
      vertex 7.62808 -23.4768 12
      vertex 6.65584 -24.6367 3
    endloop
  endfacet
  facet normal 0.404572 -0.908682 0.103045
    outer loop
      vertex 11.6326 -22.7145 3
      vertex 7.62808 -23.4768 12
      vertex 7.91779 -24.3684 3
    endloop
  endfacet
  facet normal 0.404572 -0.908682 0.103045
    outer loop
      vertex 12.3425 -21.3778 12
      vertex 7.62808 -23.4768 12
      vertex 11.6326 -22.7145 3
    endloop
  endfacet
  facet normal 0.404572 -0.908682 0.103045
    outer loop
      vertex 12.8112 -22.1897 3
      vertex 12.3425 -21.3778 12
      vertex 11.6326 -22.7145 3
    endloop
  endfacet
  facet normal 0.584656 -0.80471 0.103045
    outer loop
      vertex 16.1011 -19.7996 3
      vertex 12.3425 -21.3778 12
      vertex 12.8112 -22.1897 3
    endloop
  endfacet
  facet normal 0.584656 -0.80471 0.103045
    outer loop
      vertex 16.5175 -18.3445 12
      vertex 12.3425 -21.3778 12
      vertex 16.1011 -19.7996 3
    endloop
  endfacet
  facet normal 0.584656 -0.80471 0.103045
    outer loop
      vertex 17.1448 -19.0412 3
      vertex 16.5175 -18.3445 12
      vertex 16.1011 -19.7996 3
    endloop
  endfacet
  facet normal 0.739189 -0.665569 0.103045
    outer loop
      vertex 19.8658 -16.0193 3
      vertex 16.5175 -18.3445 12
      vertex 17.1448 -19.0412 3
    endloop
  endfacet
  facet normal 0.739189 -0.665569 0.103045
    outer loop
      vertex 19.9706 -14.5095 12
      vertex 16.5175 -18.3445 12
      vertex 19.8658 -16.0193 3
    endloop
  endfacet
  facet normal 0.739189 -0.665569 0.103045
    outer loop
      vertex 20.729 -15.0605 3
      vertex 19.9706 -14.5095 12
      vertex 19.8658 -16.0193 3
    endloop
  endfacet
  facet normal 0.861415 -0.497338 0.103045
    outer loop
      vertex 22.7622 -11.5389 3
      vertex 19.9706 -14.5095 12
      vertex 20.729 -15.0605 3
    endloop
  endfacet
  facet normal 0.861415 -0.497338 0.103045
    outer loop
      vertex 22.5509 -10.0403 12
      vertex 19.9706 -14.5095 12
      vertex 22.7622 -11.5389 3
    endloop
  endfacet
  facet normal 0.861415 -0.497338 0.103045
    outer loop
      vertex 23.4073 -10.4216 3
      vertex 22.5509 -10.0403 12
      vertex 22.7622 -11.5389 3
    endloop
  endfacet
  facet normal 0.945994 -0.307372 0.103045
    outer loop
      vertex 24.6639 -6.55422 3
      vertex 22.5509 -10.0403 12
      vertex 23.4073 -10.4216 3
    endloop
  endfacet
  facet normal 0.945994 -0.307372 0.103045
    outer loop
      vertex 24.1456 -5.1323 12
      vertex 22.5509 -10.0403 12
      vertex 24.6639 -6.55422 3
    endloop
  endfacet
  facet normal 0.945994 -0.307372 0.103045
    outer loop
      vertex 25.0626 -5.32722 3
      vertex 24.1456 -5.1323 12
      vertex 24.6639 -6.55422 3
    endloop
  endfacet
  facet normal 0.989228 -0.103972 0.103045
    outer loop
      vertex 25.4876 -1.28307 3
      vertex 24.1456 -5.1323 12
      vertex 25.0626 -5.32722 3
    endloop
  endfacet
  facet normal 0.989228 -0.103972 0.103045
    outer loop
      vertex 24.685 0 12
      vertex 24.1456 -5.1323 12
      vertex 25.4876 -1.28307 3
    endloop
  endfacet
  facet normal 0.989228 -0.103972 0.103045
    outer loop
      vertex 25.6225 0 3
      vertex 24.685 0 12
      vertex 25.4876 -1.28307 3
    endloop
  endfacet
  facet normal 0.989228 0.103972 0.103045
    outer loop
      vertex 25.1974 4.04414 3
      vertex 24.685 0 12
      vertex 25.6225 0 3
    endloop
  endfacet
  facet normal 0.989228 0.103972 0.103045
    outer loop
      vertex 25.0626 5.32722 3
      vertex 24.1456 5.1323 12
      vertex 24.685 0 12
    endloop
  endfacet
  facet normal 0.989228 0.103972 0.103045
    outer loop
      vertex 25.1974 4.04414 3
      vertex 25.0626 5.32722 3
      vertex 24.685 0 12
    endloop
  endfacet
  facet normal 0.945994 0.307372 0.103045
    outer loop
      vertex 25.0626 5.32722 3
      vertex 23.806 9.19461 3
      vertex 24.1456 5.1323 12
    endloop
  endfacet
  facet normal 0.945994 0.307372 0.103045
    outer loop
      vertex 23.4073 10.4216 3
      vertex 22.5509 10.0403 12
      vertex 24.1456 5.1323 12
    endloop
  endfacet
  facet normal 0.945994 0.307372 0.103045
    outer loop
      vertex 23.806 9.19461 3
      vertex 23.4073 10.4216 3
      vertex 24.1456 5.1323 12
    endloop
  endfacet
  facet normal 0.861415 0.497338 0.103045
    outer loop
      vertex 23.4073 10.4216 3
      vertex 21.3741 13.9432 3
      vertex 22.5509 10.0403 12
    endloop
  endfacet
  facet normal 0.861415 0.497338 0.103045
    outer loop
      vertex 20.729 15.0605 3
      vertex 19.9706 14.5095 12
      vertex 22.5509 10.0403 12
    endloop
  endfacet
  facet normal 0.861415 0.497338 0.103045
    outer loop
      vertex 21.3741 13.9432 3
      vertex 20.729 15.0605 3
      vertex 22.5509 10.0403 12
    endloop
  endfacet
  facet normal 0.739189 0.665569 0.103045
    outer loop
      vertex 20.729 15.0605 3
      vertex 18.0081 18.0825 3
      vertex 19.9706 14.5095 12
    endloop
  endfacet
  facet normal 0.739189 0.665569 0.103045
    outer loop
      vertex 17.1448 19.0412 3
      vertex 16.5175 18.3445 12
      vertex 19.9706 14.5095 12
    endloop
  endfacet
  facet normal 0.739189 0.665569 0.103045
    outer loop
      vertex 18.0081 18.0825 3
      vertex 17.1448 19.0412 3
      vertex 19.9706 14.5095 12
    endloop
  endfacet
  facet normal 0.584656 0.80471 0.103045
    outer loop
      vertex 17.1448 19.0412 3
      vertex 13.855 21.4314 3
      vertex 16.5175 18.3445 12
    endloop
  endfacet
  facet normal 0.584656 0.80471 0.103045
    outer loop
      vertex 12.3425 21.3778 12
      vertex 16.5175 18.3445 12
      vertex 12.8112 22.1897 3
    endloop
  endfacet
  facet normal 0.584656 0.80471 0.103045
    outer loop
      vertex 12.8112 22.1897 3
      vertex 16.5175 18.3445 12
      vertex 13.855 21.4314 3
    endloop
  endfacet
  facet normal 0.404572 0.908682 0.103045
    outer loop
      vertex 12.8112 22.1897 3
      vertex 9.09639 23.8437 3
      vertex 12.3425 21.3778 12
    endloop
  endfacet
  facet normal 0.404572 0.908682 0.103045
    outer loop
      vertex 7.62808 23.4768 12
      vertex 12.3425 21.3778 12
      vertex 7.91779 24.3684 3
    endloop
  endfacet
  facet normal 0.404572 0.908682 0.103045
    outer loop
      vertex 7.91779 24.3684 3
      vertex 12.3425 21.3778 12
      vertex 9.09639 23.8437 3
    endloop
  endfacet
  facet normal 0.206805 0.972941 0.103045
    outer loop
      vertex 7.91779 24.3684 3
      vertex 3.94023 25.2139 3
      vertex 7.62808 23.4768 12
    endloop
  endfacet
  facet normal 0.206805 0.972941 0.103045
    outer loop
      vertex 2.58028 24.5498 12
      vertex 7.62808 23.4768 12
      vertex 2.67828 25.4821 3
    endloop
  endfacet
  facet normal 0.206805 0.972941 0.103045
    outer loop
      vertex 2.67828 25.4821 3
      vertex 7.62808 23.4768 12
      vertex 3.94023 25.2139 3
    endloop
  endfacet
  facet normal 0 0.994677 0.103045
    outer loop
      vertex -2.67828 25.4821 3
      vertex -2.58028 24.5498 12
      vertex 2.67828 25.4821 3
    endloop
  endfacet
  facet normal 0 0.994677 0.103045
    outer loop
      vertex 2.67828 25.4821 3
      vertex -2.58028 24.5498 12
      vertex 2.58028 24.5498 12
    endloop
  endfacet
  facet normal -0.206805 0.972941 0.103045
    outer loop
      vertex -2.67828 25.4821 3
      vertex -6.65584 24.6367 3
      vertex -2.58028 24.5498 12
    endloop
  endfacet
  facet normal -0.206805 0.972941 0.103045
    outer loop
      vertex -7.91779 24.3684 3
      vertex -7.62808 23.4768 12
      vertex -6.65584 24.6367 3
    endloop
  endfacet
  facet normal -0.206805 0.972941 0.103045
    outer loop
      vertex -6.65584 24.6367 3
      vertex -7.62808 23.4768 12
      vertex -2.58028 24.5498 12
    endloop
  endfacet
  facet normal -0.404572 0.908682 0.103045
    outer loop
      vertex -7.91779 24.3684 3
      vertex -11.6326 22.7145 3
      vertex -7.62808 23.4768 12
    endloop
  endfacet
  facet normal -0.404572 0.908682 0.103045
    outer loop
      vertex -12.8112 22.1897 3
      vertex -12.3425 21.3778 12
      vertex -11.6326 22.7145 3
    endloop
  endfacet
  facet normal -0.404572 0.908682 0.103045
    outer loop
      vertex -11.6326 22.7145 3
      vertex -12.3425 21.3778 12
      vertex -7.62808 23.4768 12
    endloop
  endfacet
  facet normal -0.584656 0.80471 0.103045
    outer loop
      vertex -12.8112 22.1897 3
      vertex -16.1011 19.7996 3
      vertex -12.3425 21.3778 12
    endloop
  endfacet
  facet normal -0.584656 0.80471 0.103045
    outer loop
      vertex -17.1448 19.0412 3
      vertex -16.5175 18.3445 12
      vertex -16.1011 19.7996 3
    endloop
  endfacet
  facet normal -0.584656 0.80471 0.103045
    outer loop
      vertex -16.1011 19.7996 3
      vertex -16.5175 18.3445 12
      vertex -12.3425 21.3778 12
    endloop
  endfacet
  facet normal -0.739189 0.665569 0.103045
    outer loop
      vertex -17.1448 19.0412 3
      vertex -19.8658 16.0193 3
      vertex -16.5175 18.3445 12
    endloop
  endfacet
  facet normal -0.739189 0.665569 0.103045
    outer loop
      vertex -20.729 15.0605 3
      vertex -19.9706 14.5095 12
      vertex -19.8658 16.0193 3
    endloop
  endfacet
  facet normal -0.739189 0.665569 0.103045
    outer loop
      vertex -19.8658 16.0193 3
      vertex -19.9706 14.5095 12
      vertex -16.5175 18.3445 12
    endloop
  endfacet
  facet normal -0.861415 0.497338 0.103045
    outer loop
      vertex -20.729 15.0605 3
      vertex -22.7622 11.5389 3
      vertex -19.9706 14.5095 12
    endloop
  endfacet
  facet normal -0.861415 0.497338 0.103045
    outer loop
      vertex -23.4073 10.4216 3
      vertex -22.5509 10.0403 12
      vertex -22.7622 11.5389 3
    endloop
  endfacet
  facet normal -0.861415 0.497338 0.103045
    outer loop
      vertex -22.7622 11.5389 3
      vertex -22.5509 10.0403 12
      vertex -19.9706 14.5095 12
    endloop
  endfacet
  facet normal -0.945994 0.307372 0.103045
    outer loop
      vertex -23.4073 10.4216 3
      vertex -24.6639 6.55422 3
      vertex -22.5509 10.0403 12
    endloop
  endfacet
  facet normal -0.945994 0.307372 0.103045
    outer loop
      vertex -25.0626 5.32722 3
      vertex -24.1456 5.1323 12
      vertex -24.6639 6.55422 3
    endloop
  endfacet
  facet normal -0.945994 0.307372 0.103045
    outer loop
      vertex -24.6639 6.55422 3
      vertex -24.1456 5.1323 12
      vertex -22.5509 10.0403 12
    endloop
  endfacet
  facet normal -0.989228 0.103972 0.103045
    outer loop
      vertex -25.0626 5.32722 3
      vertex -25.4876 1.28307 3
      vertex -24.1456 5.1323 12
    endloop
  endfacet
  facet normal 0 0 1
    outer loop
      vertex -24.1456 5.1323 12
      vertex -24.685 0 12
      vertex -24.1456 -5.1323 12
    endloop
  endfacet
  facet normal 0 0 1
    outer loop
      vertex -19.9706 -14.5095 12
      vertex -24.1456 5.1323 12
      vertex -22.5509 -10.0403 12
    endloop
  endfacet
  facet normal 0 0 1
    outer loop
      vertex -22.5509 -10.0403 12
      vertex -24.1456 5.1323 12
      vertex -24.1456 -5.1323 12
    endloop
  endfacet
  facet normal 0 0 1
    outer loop
      vertex -16.5175 -18.3445 12
      vertex -24.1456 5.1323 12
      vertex -19.9706 -14.5095 12
    endloop
  endfacet
  facet normal 0 0 1
    outer loop
      vertex -12.3425 -21.3778 12
      vertex -24.1456 5.1323 12
      vertex -16.5175 -18.3445 12
    endloop
  endfacet
  facet normal 0 0 1
    outer loop
      vertex -7.62808 -23.4768 12
      vertex -24.1456 5.1323 12
      vertex -12.3425 -21.3778 12
    endloop
  endfacet
  facet normal 0 0 1
    outer loop
      vertex -2.58028 -24.5498 12
      vertex -24.1456 5.1323 12
      vertex -7.62808 -23.4768 12
    endloop
  endfacet
  facet normal 0 0 1
    outer loop
      vertex 2.58028 -24.5498 12
      vertex -24.1456 5.1323 12
      vertex -2.58028 -24.5498 12
    endloop
  endfacet
  facet normal 0 0 1
    outer loop
      vertex 7.62808 -23.4768 12
      vertex -24.1456 5.1323 12
      vertex 2.58028 -24.5498 12
    endloop
  endfacet
  facet normal 0 0 1
    outer loop
      vertex 12.3425 -21.3778 12
      vertex -24.1456 5.1323 12
      vertex 7.62808 -23.4768 12
    endloop
  endfacet
  facet normal 0 0 1
    outer loop
      vertex 16.5175 -18.3445 12
      vertex -24.1456 5.1323 12
      vertex 12.3425 -21.3778 12
    endloop
  endfacet
  facet normal 0 0 1
    outer loop
      vertex 19.9706 -14.5095 12
      vertex -24.1456 5.1323 12
      vertex 16.5175 -18.3445 12
    endloop
  endfacet
  facet normal 0 0 1
    outer loop
      vertex -2.375 -4.11362 12
      vertex -24.1456 5.1323 12
      vertex 19.9706 -14.5095 12
    endloop
  endfacet
  facet normal 0 0 1
    outer loop
      vertex 4.33934 1.932 12
      vertex 4.75 0 12
      vertex 24.685 0 12
    endloop
  endfacet
  facet normal 0 0 1
    outer loop
      vertex 22.5509 10.0403 12
      vertex -24.1456 5.1323 12
      vertex 24.1456 5.1323 12
    endloop
  endfacet
  facet normal 0 0 1
    outer loop
      vertex 19.9706 14.5095 12
      vertex -24.1456 5.1323 12
      vertex 22.5509 10.0403 12
    endloop
  endfacet
  facet normal 0 0 1
    outer loop
      vertex 16.5175 18.3445 12
      vertex -24.1456 5.1323 12
      vertex 19.9706 14.5095 12
    endloop
  endfacet
  facet normal 0 0 1
    outer loop
      vertex 12.3425 21.3778 12
      vertex -24.1456 5.1323 12
      vertex 16.5175 18.3445 12
    endloop
  endfacet
  facet normal 0 0 1
    outer loop
      vertex 7.62808 23.4768 12
      vertex -24.1456 5.1323 12
      vertex 12.3425 21.3778 12
    endloop
  endfacet
  facet normal 0 0 1
    outer loop
      vertex 2.58028 24.5498 12
      vertex -24.1456 5.1323 12
      vertex 7.62808 23.4768 12
    endloop
  endfacet
  facet normal 0 0 1
    outer loop
      vertex -2.58028 24.5498 12
      vertex -24.1456 5.1323 12
      vertex 2.58028 24.5498 12
    endloop
  endfacet
  facet normal 0 0 1
    outer loop
      vertex -7.62808 23.4768 12
      vertex -24.1456 5.1323 12
      vertex -2.58028 24.5498 12
    endloop
  endfacet
  facet normal 0 0 1
    outer loop
      vertex -12.3425 21.3778 12
      vertex -24.1456 5.1323 12
      vertex -7.62808 23.4768 12
    endloop
  endfacet
  facet normal 0 0 1
    outer loop
      vertex -16.5175 18.3445 12
      vertex -24.1456 5.1323 12
      vertex -12.3425 21.3778 12
    endloop
  endfacet
  facet normal 0 0 1
    outer loop
      vertex -19.9706 14.5095 12
      vertex -24.1456 5.1323 12
      vertex -16.5175 18.3445 12
    endloop
  endfacet
  facet normal 0 0 1
    outer loop
      vertex -22.5509 10.0403 12
      vertex -24.1456 5.1323 12
      vertex -19.9706 14.5095 12
    endloop
  endfacet
  facet normal 0 0 1
    outer loop
      vertex -2.375 -4.11362 12
      vertex -3.84283 -2.79198 12
      vertex -24.1456 5.1323 12
    endloop
  endfacet
  facet normal 0 0 1
    outer loop
      vertex 3.17837 3.52994 12
      vertex 4.33934 1.932 12
      vertex 24.685 0 12
    endloop
  endfacet
  facet normal 0 0 1
    outer loop
      vertex 4.33934 -1.932 12
      vertex 3.17837 -3.52994 12
      vertex 24.1456 -5.1323 12
    endloop
  endfacet
  facet normal 0 0 1
    outer loop
      vertex -3.84283 2.79198 12
      vertex -24.1456 5.1323 12
      vertex -4.6462 0.987581 12
    endloop
  endfacet
  facet normal 0 0 1
    outer loop
      vertex 1.46783 4.51752 12
      vertex 3.17837 3.52994 12
      vertex 24.1456 5.1323 12
    endloop
  endfacet
  facet normal 0 0 1
    outer loop
      vertex -0.49651 4.72398 12
      vertex -24.1456 5.1323 12
      vertex -2.375 4.11362 12
    endloop
  endfacet
  facet normal 0 0 1
    outer loop
      vertex 24.1456 5.1323 12
      vertex -24.1456 5.1323 12
      vertex -0.49651 4.72398 12
    endloop
  endfacet
  facet normal 0 0 1
    outer loop
      vertex 24.1456 5.1323 12
      vertex -0.49651 4.72398 12
      vertex 1.46783 4.51752 12
    endloop
  endfacet
  facet normal 0 0 1
    outer loop
      vertex 24.1456 5.1323 12
      vertex 3.17837 3.52994 12
      vertex 24.685 0 12
    endloop
  endfacet
  facet normal 0 0 1
    outer loop
      vertex 4.75 0 12
      vertex 4.33934 -1.932 12
      vertex 24.1456 -5.1323 12
    endloop
  endfacet
  facet normal 0 0 1
    outer loop
      vertex 24.685 0 12
      vertex 4.75 0 12
      vertex 24.1456 -5.1323 12
    endloop
  endfacet
  facet normal 0 0 1
    outer loop
      vertex 3.17837 -3.52994 12
      vertex 1.46783 -4.51752 12
      vertex 22.5509 -10.0403 12
    endloop
  endfacet
  facet normal 0 0 1
    outer loop
      vertex -3.84283 2.79198 12
      vertex -2.375 4.11362 12
      vertex -24.1456 5.1323 12
    endloop
  endfacet
  facet normal 0 0 1
    outer loop
      vertex 24.1456 -5.1323 12
      vertex 3.17837 -3.52994 12
      vertex 22.5509 -10.0403 12
    endloop
  endfacet
  facet normal 0 0 1
    outer loop
      vertex 22.5509 -10.0403 12
      vertex 1.46783 -4.51752 12
      vertex 19.9706 -14.5095 12
    endloop
  endfacet
  facet normal 0 0 1
    outer loop
      vertex 1.46783 -4.51752 12
      vertex -0.49651 -4.72398 12
      vertex 19.9706 -14.5095 12
    endloop
  endfacet
  facet normal 0 0 1
    outer loop
      vertex -0.49651 -4.72398 12
      vertex -2.375 -4.11362 12
      vertex 19.9706 -14.5095 12
    endloop
  endfacet
  facet normal 0 0 1
    outer loop
      vertex -4.6462 -0.987581 12
      vertex -4.6462 0.987581 12
      vertex -24.1456 5.1323 12
    endloop
  endfacet
  facet normal 0 0 1
    outer loop
      vertex -3.84283 -2.79198 12
      vertex -4.6462 -0.987581 12
      vertex -24.1456 5.1323 12
    endloop
  endfacet
  facet normal 1 0 0
    outer loop
      vertex -4.6462 0.987581 7.25
      vertex -4.6462 0.987581 12
      vertex -4.6462 -0.987581 12
    endloop
  endfacet
  facet normal 1 0 0
    outer loop
      vertex -4.6462 -0.987581 7.25
      vertex -4.6462 0.987581 7.25
      vertex -4.6462 -0.987581 12
    endloop
  endfacet
  facet normal 0.913545 0.406737 0
    outer loop
      vertex -4.6462 -0.987581 12
      vertex -3.84283 -2.79198 12
      vertex -3.84283 -2.79198 7.25
    endloop
  endfacet
  facet normal 0.913545 0.406737 0
    outer loop
      vertex -4.6462 -0.987581 7.25
      vertex -4.6462 -0.987581 12
      vertex -3.84283 -2.79198 7.25
    endloop
  endfacet
  facet normal 0.669131 0.743145 0
    outer loop
      vertex -2.375 -4.11362 12
      vertex -2.375 -4.11362 7.25
      vertex -3.84283 -2.79198 12
    endloop
  endfacet
  facet normal 0.669131 0.743145 0
    outer loop
      vertex -3.84283 -2.79198 12
      vertex -2.375 -4.11362 7.25
      vertex -3.84283 -2.79198 7.25
    endloop
  endfacet
  facet normal 0.309017 0.951057 0
    outer loop
      vertex -0.49651 -4.72398 12
      vertex -0.49651 -4.72398 7.25
      vertex -2.375 -4.11362 12
    endloop
  endfacet
  facet normal 0.309017 0.951057 0
    outer loop
      vertex -2.375 -4.11362 12
      vertex -0.49651 -4.72398 7.25
      vertex -2.375 -4.11362 7.25
    endloop
  endfacet
  facet normal -0.104529 0.994522 0
    outer loop
      vertex 1.46783 -4.51752 12
      vertex 1.46783 -4.51752 7.25
      vertex -0.49651 -4.72398 12
    endloop
  endfacet
  facet normal -0.104529 0.994522 0
    outer loop
      vertex -0.49651 -4.72398 12
      vertex 1.46783 -4.51752 7.25
      vertex -0.49651 -4.72398 7.25
    endloop
  endfacet
  facet normal -0.5 0.866025 0
    outer loop
      vertex 3.17837 -3.52994 12
      vertex 3.17837 -3.52994 7.25
      vertex 1.46783 -4.51752 12
    endloop
  endfacet
  facet normal -0.5 0.866025 0
    outer loop
      vertex 1.46783 -4.51752 12
      vertex 3.17837 -3.52994 7.25
      vertex 1.46783 -4.51752 7.25
    endloop
  endfacet
  facet normal -0.809017 0.587785 0
    outer loop
      vertex 4.33934 -1.932 12
      vertex 4.33934 -1.932 7.25
      vertex 3.17837 -3.52994 12
    endloop
  endfacet
  facet normal -0.809017 0.587785 0
    outer loop
      vertex 3.17837 -3.52994 12
      vertex 4.33934 -1.932 7.25
      vertex 3.17837 -3.52994 7.25
    endloop
  endfacet
  facet normal -0.978148 0.207912 0
    outer loop
      vertex 4.75 0 12
      vertex 4.75 0 7.25
      vertex 4.33934 -1.932 12
    endloop
  endfacet
  facet normal -0.978148 0.207912 0
    outer loop
      vertex 4.33934 -1.932 12
      vertex 4.75 0 7.25
      vertex 4.33934 -1.932 7.25
    endloop
  endfacet
  facet normal -0.978148 -0.207912 0
    outer loop
      vertex 4.75 0 12
      vertex 4.33934 1.932 12
      vertex 4.75 0 7.25
    endloop
  endfacet
  facet normal -0.978148 -0.207912 0
    outer loop
      vertex 4.75 0 7.25
      vertex 4.33934 1.932 12
      vertex 4.33934 1.932 7.25
    endloop
  endfacet
  facet normal -0.809017 -0.587785 0
    outer loop
      vertex 4.33934 1.932 12
      vertex 3.17837 3.52994 12
      vertex 4.33934 1.932 7.25
    endloop
  endfacet
  facet normal -0.809017 -0.587785 0
    outer loop
      vertex 4.33934 1.932 7.25
      vertex 3.17837 3.52994 12
      vertex 3.17837 3.52994 7.25
    endloop
  endfacet
  facet normal -0.5 -0.866025 0
    outer loop
      vertex 3.17837 3.52994 7.25
      vertex 3.17837 3.52994 12
      vertex 1.46783 4.51752 12
    endloop
  endfacet
  facet normal -0.5 -0.866025 0
    outer loop
      vertex 1.46783 4.51752 7.25
      vertex 3.17837 3.52994 7.25
      vertex 1.46783 4.51752 12
    endloop
  endfacet
  facet normal -0.104529 -0.994522 0
    outer loop
      vertex 1.46783 4.51752 7.25
      vertex 1.46783 4.51752 12
      vertex -0.49651 4.72398 12
    endloop
  endfacet
  facet normal -0.104529 -0.994522 0
    outer loop
      vertex -0.49651 4.72398 7.25
      vertex 1.46783 4.51752 7.25
      vertex -0.49651 4.72398 12
    endloop
  endfacet
  facet normal 0.309017 -0.951057 0
    outer loop
      vertex -0.49651 4.72398 7.25
      vertex -0.49651 4.72398 12
      vertex -2.375 4.11362 12
    endloop
  endfacet
  facet normal 0.309017 -0.951057 0
    outer loop
      vertex -2.375 4.11362 7.25
      vertex -0.49651 4.72398 7.25
      vertex -2.375 4.11362 12
    endloop
  endfacet
  facet normal 0.669131 -0.743145 0
    outer loop
      vertex -2.375 4.11362 7.25
      vertex -2.375 4.11362 12
      vertex -3.84283 2.79198 12
    endloop
  endfacet
  facet normal 0.669131 -0.743145 0
    outer loop
      vertex -3.84283 2.79198 7.25
      vertex -2.375 4.11362 7.25
      vertex -3.84283 2.79198 12
    endloop
  endfacet
  facet normal 0.913545 -0.406737 0
    outer loop
      vertex -3.84283 2.79198 7.25
      vertex -3.84283 2.79198 12
      vertex -4.6462 0.987581 12
    endloop
  endfacet
  facet normal 0.913545 -0.406737 0
    outer loop
      vertex -4.6462 0.987581 7.25
      vertex -3.84283 2.79198 7.25
      vertex -4.6462 0.987581 12
    endloop
  endfacet
  facet normal 0 0 1
    outer loop
      vertex -3.84283 -2.79198 7.25
      vertex -2.375 -4.11362 7.25
      vertex -0.49651 -4.72398 7.25
    endloop
  endfacet
  facet normal 0 0 1
    outer loop
      vertex 3.17837 -3.52994 7.25
      vertex -3.84283 -2.79198 7.25
      vertex 1.46783 -4.51752 7.25
    endloop
  endfacet
  facet normal 0 0 1
    outer loop
      vertex 1.46783 -4.51752 7.25
      vertex -3.84283 -2.79198 7.25
      vertex -0.49651 -4.72398 7.25
    endloop
  endfacet
  facet normal 0 0 1
    outer loop
      vertex 4.33934 -1.932 7.25
      vertex -3.84283 -2.79198 7.25
      vertex 3.17837 -3.52994 7.25
    endloop
  endfacet
  facet normal 0 0 1
    outer loop
      vertex 4.75 0 7.25
      vertex -3.84283 -2.79198 7.25
      vertex 4.33934 -1.932 7.25
    endloop
  endfacet
  facet normal 0 0 1
    outer loop
      vertex 4.33934 1.932 7.25
      vertex -3.84283 -2.79198 7.25
      vertex 4.75 0 7.25
    endloop
  endfacet
  facet normal 0 0 1
    outer loop
      vertex 3.17837 3.52994 7.25
      vertex -3.84283 -2.79198 7.25
      vertex 4.33934 1.932 7.25
    endloop
  endfacet
  facet normal 0 0 1
    outer loop
      vertex 1.46783 4.51752 7.25
      vertex -3.84283 -2.79198 7.25
      vertex 3.17837 3.52994 7.25
    endloop
  endfacet
  facet normal 0 0 1
    outer loop
      vertex -0.49651 4.72398 7.25
      vertex -3.84283 -2.79198 7.25
      vertex 1.46783 4.51752 7.25
    endloop
  endfacet
  facet normal 0 0 1
    outer loop
      vertex -2.375 4.11362 7.25
      vertex -3.84283 -2.79198 7.25
      vertex -0.49651 4.72398 7.25
    endloop
  endfacet
  facet normal 0 0 1
    outer loop
      vertex -3.84283 2.79198 7.25
      vertex -3.84283 -2.79198 7.25
      vertex -2.375 4.11362 7.25
    endloop
  endfacet
  facet normal 0 0 1
    outer loop
      vertex -4.6462 0.987581 7.25
      vertex -3.84283 -2.79198 7.25
      vertex -3.84283 2.79198 7.25
    endloop
  endfacet
  facet normal 0 0 1
    outer loop
      vertex -4.6462 -0.987581 7.25
      vertex -3.84283 -2.79198 7.25
      vertex -4.6462 0.987581 7.25
    endloop
  endfacet
endsolid OpenSCAD_Model
