solid OpenSCAD_Model
  facet normal -2.22045e-16 -1 -4.93038e-32
    outer loop
      vertex 40 -10 4
      vertex -10 -10 4
      vertex -10 -10 0
    endloop
  endfacet
  facet normal -2.22045e-16 -1 -4.93038e-32
    outer loop
      vertex 40 -10 1.11022e-14
      vertex 40 -10 4
      vertex -10 -10 0
    endloop
  endfacet
  facet normal -1 2.22045e-16 -2.22045e-16
    outer loop
      vertex -10 -10 4
      vertex -10 10 4
      vertex -10 -10 0
    endloop
  endfacet
  facet normal -1 2.22045e-16 -2.22045e-16
    outer loop
      vertex -10 2.95 0
      vertex -10 10 4
      vertex -10 10 0
    endloop
  endfacet
  facet normal -1 2.22045e-16 -2.22045e-16
    outer loop
      vertex -10 -10 0
      vertex -10 10 4
      vertex -10 -2.95 0
    endloop
  endfacet
  facet normal -1 2.22045e-16 -2.22045e-16
    outer loop
      vertex -10 -2.95 -0.01
      vertex -10 2.95 -0.01
      vertex -10 2.55 -1.5
    endloop
  endfacet
  facet normal -1 2.22045e-16 -2.22045e-16
    outer loop
      vertex -10 -2.95 0
      vertex -10 2.95 -0.01
      vertex -10 -2.95 -0.01
    endloop
  endfacet
  facet normal -1 2.22045e-16 -2.22045e-16
    outer loop
      vertex -10 2.95 0
      vertex -10 2.95 -0.01
      vertex -10 -2.95 0
    endloop
  endfacet
  facet normal -1 2.22045e-16 -2.22045e-16
    outer loop
      vertex -10 2.95 0
      vertex -10 -2.95 0
      vertex -10 10 4
    endloop
  endfacet
  facet normal -1 2.22045e-16 -2.22045e-16
    outer loop
      vertex -10 -2.95 -0.01
      vertex -10 2.55 -1.5
      vertex -10 -2.55 -1.5
    endloop
  endfacet
  facet normal -2.22045e-16 4.93038e-32 1
    outer loop
      vertex 5 -10 4
      vertex -10 -10 4
      vertex 40 -10 4
    endloop
  endfacet
  facet normal -2.22045e-16 4.93038e-32 1
    outer loop
      vertex -10 10 4
      vertex -10 -10 4
      vertex -5.16506 -1.25 4
    endloop
  endfacet
  facet normal -2.22045e-16 4.93038e-32 1
    outer loop
      vertex -10 10 4
      vertex -5.16506 -1.25 4
      vertex -5.5 -9.99201e-16 4
    endloop
  endfacet
  facet normal -2.22045e-16 4.93038e-32 1
    outer loop
      vertex -10 10 4
      vertex -5.5 -9.99201e-16 4
      vertex -5.16506 1.25 4
    endloop
  endfacet
  facet normal -2.22045e-16 4.93038e-32 1
    outer loop
      vertex 5 -10 4
      vertex -0.834936 -1.25 4
      vertex -1.75 -2.16506 4
    endloop
  endfacet
  facet normal -2.22045e-16 4.93038e-32 1
    outer loop
      vertex -10 10 4
      vertex -5.16506 1.25 4
      vertex -4.25 2.16506 4
    endloop
  endfacet
  facet normal -2.22045e-16 4.93038e-32 1
    outer loop
      vertex -10 10 4
      vertex -4.25 2.16506 4
      vertex -3 2.5 4
    endloop
  endfacet
  facet normal -2.22045e-16 4.93038e-32 1
    outer loop
      vertex 31.75 -2.16506 4
      vertex 24 -10 4
      vertex 40 -10 4
    endloop
  endfacet
  facet normal -2.22045e-16 4.93038e-32 1
    outer loop
      vertex -10 10 4
      vertex -3 2.5 4
      vertex -1.75 2.16506 4
    endloop
  endfacet
  facet normal -2.22045e-16 4.93038e-32 1
    outer loop
      vertex -3 -2.5 4
      vertex -10 -10 4
      vertex -1.75 -2.16506 4
    endloop
  endfacet
  facet normal -2.22045e-16 4.93038e-32 1
    outer loop
      vertex -4.25 -2.16506 4
      vertex -10 -10 4
      vertex -3 -2.5 4
    endloop
  endfacet
  facet normal -2.22045e-16 4.93038e-32 1
    outer loop
      vertex -5.16506 -1.25 4
      vertex -10 -10 4
      vertex -4.25 -2.16506 4
    endloop
  endfacet
  facet normal -2.22045e-16 4.93038e-32 1
    outer loop
      vertex 24 -10 4
      vertex 5 -10 4
      vertex 40 -10 4
    endloop
  endfacet
  facet normal -2.22045e-16 4.93038e-32 1
    outer loop
      vertex -1.75 -2.16506 4
      vertex -10 -10 4
      vertex 5 -10 4
    endloop
  endfacet
  facet normal -2.22045e-16 4.93038e-32 1
    outer loop
      vertex 40 10 4
      vertex -10 10 4
      vertex 5 7 4
    endloop
  endfacet
  facet normal -2.22045e-16 4.93038e-32 1
    outer loop
      vertex 31.75 2.16506 4
      vertex 33 2.5 4
      vertex 40 10 4
    endloop
  endfacet
  facet normal -2.22045e-16 4.93038e-32 1
    outer loop
      vertex 40 10 4
      vertex 5 7 4
      vertex 24 7 4
    endloop
  endfacet
  facet normal -2.22045e-16 4.93038e-32 1
    outer loop
      vertex 33 -2.5 4
      vertex 31.75 -2.16506 4
      vertex 40 -10 4
    endloop
  endfacet
  facet normal -2.22045e-16 4.93038e-32 1
    outer loop
      vertex 24 7 4
      vertex 30.8349 -1.25 4
      vertex 30.5 -8.99281e-15 4
    endloop
  endfacet
  facet normal -2.22045e-16 4.93038e-32 1
    outer loop
      vertex 31.75 2.16506 4
      vertex 24 7 4
      vertex 30.8349 1.25 4
    endloop
  endfacet
  facet normal -2.22045e-16 4.93038e-32 1
    outer loop
      vertex 35.5 -1.0103e-14 4
      vertex 35.1651 -1.25 4
      vertex 40 -10 4
    endloop
  endfacet
  facet normal -2.22045e-16 4.93038e-32 1
    outer loop
      vertex 40 10 4
      vertex 24 7 4
      vertex 31.75 2.16506 4
    endloop
  endfacet
  facet normal -2.22045e-16 4.93038e-32 1
    outer loop
      vertex 34.25 -2.16506 4
      vertex 33 -2.5 4
      vertex 40 -10 4
    endloop
  endfacet
  facet normal -2.22045e-16 4.93038e-32 1
    outer loop
      vertex 35.1651 -1.25 4
      vertex 34.25 -2.16506 4
      vertex 40 -10 4
    endloop
  endfacet
  facet normal -2.22045e-16 4.93038e-32 1
    outer loop
      vertex 40 10 4
      vertex 33 2.5 4
      vertex 34.25 2.16506 4
    endloop
  endfacet
  facet normal -2.22045e-16 4.93038e-32 1
    outer loop
      vertex 40 10 4
      vertex 35.1651 1.25 4
      vertex 40 -10 4
    endloop
  endfacet
  facet normal -2.22045e-16 4.93038e-32 1
    outer loop
      vertex 40 10 4
      vertex 34.25 2.16506 4
      vertex 35.1651 1.25 4
    endloop
  endfacet
  facet normal -2.22045e-16 4.93038e-32 1
    outer loop
      vertex 35.1651 1.25 4
      vertex 35.5 -1.0103e-14 4
      vertex 40 -10 4
    endloop
  endfacet
  facet normal -2.22045e-16 4.93038e-32 1
    outer loop
      vertex 30.5 -8.99281e-15 4
      vertex 30.8349 1.25 4
      vertex 24 7 4
    endloop
  endfacet
  facet normal -2.22045e-16 4.93038e-32 1
    outer loop
      vertex 30.8349 -1.25 4
      vertex 24 -10 4
      vertex 31.75 -2.16506 4
    endloop
  endfacet
  facet normal -2.22045e-16 4.93038e-32 1
    outer loop
      vertex 24 7 4
      vertex 24 -10 4
      vertex 30.8349 -1.25 4
    endloop
  endfacet
  facet normal -2.22045e-16 4.93038e-32 1
    outer loop
      vertex 5 -10 4
      vertex -0.5 -2.10942e-15 4
      vertex -0.834936 -1.25 4
    endloop
  endfacet
  facet normal -2.22045e-16 4.93038e-32 1
    outer loop
      vertex 5 -10 4
      vertex -0.834936 1.25 4
      vertex -0.5 -2.10942e-15 4
    endloop
  endfacet
  facet normal -2.22045e-16 4.93038e-32 1
    outer loop
      vertex -1.75 2.16506 4
      vertex 5 7 4
      vertex -10 10 4
    endloop
  endfacet
  facet normal -2.22045e-16 4.93038e-32 1
    outer loop
      vertex -0.834936 1.25 4
      vertex 5 7 4
      vertex -1.75 2.16506 4
    endloop
  endfacet
  facet normal -2.22045e-16 4.93038e-32 1
    outer loop
      vertex 5 -10 4
      vertex 5 7 4
      vertex -0.834936 1.25 4
    endloop
  endfacet
  facet normal 1 -2.22045e-16 2.22045e-16
    outer loop
      vertex 40 10 4
      vertex 40 -10 4
      vertex 40 -10 1.11022e-14
    endloop
  endfacet
  facet normal 1 -2.22045e-16 2.22045e-16
    outer loop
      vertex 40 -2.95 -0.01
      vertex 40 10 4
      vertex 40 -2.95 1.11022e-14
    endloop
  endfacet
  facet normal 1 -2.22045e-16 2.22045e-16
    outer loop
      vertex 40 -2.95 1.11022e-14
      vertex 40 10 4
      vertex 40 -10 1.11022e-14
    endloop
  endfacet
  facet normal 1 -2.22045e-16 2.22045e-16
    outer loop
      vertex 40 -2.55 -1.5
      vertex 40 10 4
      vertex 40 -2.95 -0.01
    endloop
  endfacet
  facet normal 1 -2.22045e-16 2.22045e-16
    outer loop
      vertex 40 2.95 1.11022e-14
      vertex 40 10 4
      vertex 40 -2.55 -1.5
    endloop
  endfacet
  facet normal 1 -2.22045e-16 2.22045e-16
    outer loop
      vertex 40 2.55 -1.5
      vertex 40 2.95 -0.01
      vertex 40 -2.55 -1.5
    endloop
  endfacet
  facet normal 1 -2.22045e-16 2.22045e-16
    outer loop
      vertex 40 2.95 -0.01
      vertex 40 2.95 1.11022e-14
      vertex 40 -2.55 -1.5
    endloop
  endfacet
  facet normal 1 -2.22045e-16 2.22045e-16
    outer loop
      vertex 40 2.95 1.11022e-14
      vertex 40 10 1.11022e-14
      vertex 40 10 4
    endloop
  endfacet
  facet normal 2.22045e-16 -4.93038e-32 -1
    outer loop
      vertex -10 -10 0
      vertex -10 -2.95 0
      vertex 5 -10 3.33067e-15
    endloop
  endfacet
  facet normal 2.22045e-16 -4.93038e-32 -1
    outer loop
      vertex -10 -10 0
      vertex 5 -10 3.33067e-15
      vertex 40 -10 1.11022e-14
    endloop
  endfacet
  facet normal 2.22045e-16 -4.93038e-32 -1
    outer loop
      vertex 24 -2.95 7.54952e-15
      vertex 40 -10 1.11022e-14
      vertex 24 -10 7.54952e-15
    endloop
  endfacet
  facet normal 2.22045e-16 -4.93038e-32 -1
    outer loop
      vertex 5 -10 3.33067e-15
      vertex 24 -10 7.54952e-15
      vertex 40 -10 1.11022e-14
    endloop
  endfacet
  facet normal 2.22045e-16 -4.93038e-32 -1
    outer loop
      vertex 40 -10 1.11022e-14
      vertex 24 -2.95 7.54952e-15
      vertex 40 -2.95 1.11022e-14
    endloop
  endfacet
  facet normal 2.22045e-16 -4.93038e-32 -1
    outer loop
      vertex 5 -10 3.33067e-15
      vertex -10 -2.95 0
      vertex 5 -2.95 3.33067e-15
    endloop
  endfacet
  facet normal -2.22045e-16 -1 -4.93038e-32
    outer loop
      vertex 5 -2.95 3.33067e-15
      vertex -10 -2.95 0
      vertex -10 -2.95 -0.01
    endloop
  endfacet
  facet normal -2.22045e-16 -1 -4.93038e-32
    outer loop
      vertex 5 -2.95 0
      vertex 5 -2.95 3.33067e-15
      vertex -10 -2.95 -0.01
    endloop
  endfacet
  facet normal -2.22045e-16 -1 -4.93038e-32
    outer loop
      vertex 40 -2.95 1.11022e-14
      vertex 24 -2.95 7.54952e-15
      vertex 40 -2.95 -0.01
    endloop
  endfacet
  facet normal -2.22045e-16 -1 -4.93038e-32
    outer loop
      vertex 24 -2.95 7.54952e-15
      vertex 24 -2.95 0
      vertex 40 -2.95 -0.01
    endloop
  endfacet
  facet normal -2.22045e-16 -1 -4.93038e-32
    outer loop
      vertex 40 -2.95 -0.01
      vertex 5 -2.95 0
      vertex -10 -2.95 -0.01
    endloop
  endfacet
  facet normal -2.22045e-16 -1 -4.93038e-32
    outer loop
      vertex 24 -2.95 0
      vertex 5 -2.95 0
      vertex 40 -2.95 -0.01
    endloop
  endfacet
  facet normal -1.56881e-16 -0.965803 -0.259276
    outer loop
      vertex 40 -2.95 -0.01
      vertex -10 -2.95 -0.01
      vertex -10 -2.55 -1.5
    endloop
  endfacet
  facet normal -1.56881e-16 -0.965803 -0.259276
    outer loop
      vertex 40 -2.55 -1.5
      vertex 40 -2.95 -0.01
      vertex -10 -2.55 -1.5
    endloop
  endfacet
  facet normal 2.22045e-16 -4.93038e-32 -1
    outer loop
      vertex -3 2.5 -1.5
      vertex -10 2.55 -1.5
      vertex 40 2.55 -1.5
    endloop
  endfacet
  facet normal 2.22045e-16 -4.93038e-32 -1
    outer loop
      vertex -10 -2.55 -1.5
      vertex -10 2.55 -1.5
      vertex -5.5 -9.99201e-16 -1.5
    endloop
  endfacet
  facet normal 2.22045e-16 -4.93038e-32 -1
    outer loop
      vertex -10 -2.55 -1.5
      vertex -5.5 -9.99201e-16 -1.5
      vertex -5.16506 -1.25 -1.5
    endloop
  endfacet
  facet normal 2.22045e-16 -4.93038e-32 -1
    outer loop
      vertex 18.2066 -2.5 -1.5
      vertex 13.0368 -5.66426e-07 -1.5
      vertex 13.0368 -2.83213e-07 -1.5
    endloop
  endfacet
  facet normal 2.22045e-16 -4.93038e-32 -1
    outer loop
      vertex -10 -2.55 -1.5
      vertex -5.16506 -1.25 -1.5
      vertex -4.25 -2.16506 -1.5
    endloop
  endfacet
  facet normal 2.22045e-16 -4.93038e-32 -1
    outer loop
      vertex -10 -2.55 -1.5
      vertex -4.25 -2.16506 -1.5
      vertex -3 -2.5 -1.5
    endloop
  endfacet
  facet normal 2.22045e-16 -4.93038e-32 -1
    outer loop
      vertex -10 -2.55 -1.5
      vertex -3 -2.5 -1.5
      vertex 40 -2.55 -1.5
    endloop
  endfacet
  facet normal 2.22045e-16 -4.93038e-32 -1
    outer loop
      vertex 8.70662 -2.5 -1.5
      vertex -1.75 -2.16506 -1.5
      vertex -0.834936 -1.25 -1.5
    endloop
  endfacet
  facet normal 2.22045e-16 -4.93038e-32 -1
    outer loop
      vertex 8.70662 -2.5 -1.5
      vertex -0.834936 -1.25 -1.5
      vertex -0.5 -2.10942e-15 -1.5
    endloop
  endfacet
  facet normal 2.22045e-16 -4.93038e-32 -1
    outer loop
      vertex 21.0934 2.5 -1.5
      vertex 33 2.5 -1.5
      vertex 31.75 2.16506 -1.5
    endloop
  endfacet
  facet normal 2.22045e-16 -4.93038e-32 -1
    outer loop
      vertex -5.16506 1.25 -1.5
      vertex -10 2.55 -1.5
      vertex -4.25 2.16506 -1.5
    endloop
  endfacet
  facet normal 2.22045e-16 -4.93038e-32 -1
    outer loop
      vertex 8.70662 2.5 -1.5
      vertex -3 2.5 -1.5
      vertex 40 2.55 -1.5
    endloop
  endfacet
  facet normal 2.22045e-16 -4.93038e-32 -1
    outer loop
      vertex -4.25 2.16506 -1.5
      vertex -10 2.55 -1.5
      vertex -3 2.5 -1.5
    endloop
  endfacet
  facet normal 2.22045e-16 -4.93038e-32 -1
    outer loop
      vertex -5.5 -9.99201e-16 -1.5
      vertex -10 2.55 -1.5
      vertex -5.16506 1.25 -1.5
    endloop
  endfacet
  facet normal 2.22045e-16 -4.93038e-32 -1
    outer loop
      vertex -0.5 -2.10942e-15 -1.5
      vertex -0.834936 1.25 -1.5
      vertex 7.26325 2.83213e-07 -1.5
    endloop
  endfacet
  facet normal 2.22045e-16 -4.93038e-32 -1
    outer loop
      vertex -0.5 -2.10942e-15 -1.5
      vertex 7.26325 2.83213e-07 -1.5
      vertex 7.26325 1.15316e-15 -1.5
    endloop
  endfacet
  facet normal 2.22045e-16 -4.93038e-32 -1
    outer loop
      vertex 30.5 -8.99281e-15 -1.5
      vertex 22.5368 5.66426e-07 -1.5
      vertex 30.8349 1.25 -1.5
    endloop
  endfacet
  facet normal 2.22045e-16 -4.93038e-32 -1
    outer loop
      vertex -0.5 -2.10942e-15 -1.5
      vertex 7.26325 1.15316e-15 -1.5
      vertex 7.26325 -2.83213e-07 -1.5
    endloop
  endfacet
  facet normal 2.22045e-16 -4.93038e-32 -1
    outer loop
      vertex 30.5 -8.99281e-15 -1.5
      vertex 22.5368 2.83213e-07 -1.5
      vertex 22.5368 5.66426e-07 -1.5
    endloop
  endfacet
  facet normal 2.22045e-16 -4.93038e-32 -1
    outer loop
      vertex -0.5 -2.10942e-15 -1.5
      vertex 7.26325 -2.83213e-07 -1.5
      vertex 7.26325 -5.66426e-07 -1.5
    endloop
  endfacet
  facet normal 2.22045e-16 -4.93038e-32 -1
    outer loop
      vertex 30.5 -8.99281e-15 -1.5
      vertex 22.5368 -1.15316e-15 -1.5
      vertex 22.5368 2.83213e-07 -1.5
    endloop
  endfacet
  facet normal 2.22045e-16 -4.93038e-32 -1
    outer loop
      vertex 11.5934 2.5 -1.5
      vertex 16.7632 -2.83213e-07 -1.5
      vertex 16.7632 -5.66426e-07 -1.5
    endloop
  endfacet
  facet normal 2.22045e-16 -4.93038e-32 -1
    outer loop
      vertex -3 -2.5 -1.5
      vertex 8.70662 -2.5 -1.5
      vertex 40 -2.55 -1.5
    endloop
  endfacet
  facet normal 2.22045e-16 -4.93038e-32 -1
    outer loop
      vertex 11.5934 -2.5 -1.5
      vertex 40 -2.55 -1.5
      vertex 8.70662 -2.5 -1.5
    endloop
  endfacet
  facet normal 2.22045e-16 -4.93038e-32 -1
    outer loop
      vertex 8.70662 -2.5 -1.5
      vertex -0.5 -2.10942e-15 -1.5
      vertex 7.26325 -5.66426e-07 -1.5
    endloop
  endfacet
  facet normal 2.22045e-16 -4.93038e-32 -1
    outer loop
      vertex 18.2066 -2.5 -1.5
      vertex 13.0368 -2.83213e-07 -1.5
      vertex 13.0368 -1.15316e-15 -1.5
    endloop
  endfacet
  facet normal 2.22045e-16 -4.93038e-32 -1
    outer loop
      vertex 18.2066 -2.5 -1.5
      vertex 13.0368 -1.15316e-15 -1.5
      vertex 13.0368 2.83213e-07 -1.5
    endloop
  endfacet
  facet normal 2.22045e-16 -4.93038e-32 -1
    outer loop
      vertex 11.5934 2.5 -1.5
      vertex 16.7632 1.15316e-15 -1.5
      vertex 16.7632 -2.83213e-07 -1.5
    endloop
  endfacet
  facet normal 2.22045e-16 -4.93038e-32 -1
    outer loop
      vertex 30.8349 1.25 -1.5
      vertex 22.5368 5.66426e-07 -1.5
      vertex 31.75 2.16506 -1.5
    endloop
  endfacet
  facet normal 2.22045e-16 -4.93038e-32 -1
    outer loop
      vertex 11.5934 2.5 -1.5
      vertex 16.7632 2.83213e-07 -1.5
      vertex 16.7632 1.15316e-15 -1.5
    endloop
  endfacet
  facet normal 2.22045e-16 -4.93038e-32 -1
    outer loop
      vertex 11.5934 2.5 -1.5
      vertex 16.7632 5.66426e-07 -1.5
      vertex 16.7632 2.83213e-07 -1.5
    endloop
  endfacet
  facet normal 2.22045e-16 -4.93038e-32 -1
    outer loop
      vertex 30.5 -8.99281e-15 -1.5
      vertex 22.5368 -5.66426e-07 -1.5
      vertex 22.5368 -2.83213e-07 -1.5
    endloop
  endfacet
  facet normal 2.22045e-16 -4.93038e-32 -1
    outer loop
      vertex 21.0934 2.5 -1.5
      vertex 31.75 2.16506 -1.5
      vertex 22.5368 5.66426e-07 -1.5
    endloop
  endfacet
  facet normal 2.22045e-16 -4.93038e-32 -1
    outer loop
      vertex 7.26325 5.66426e-07 -1.5
      vertex -0.834936 1.25 -1.5
      vertex -1.75 2.16506 -1.5
    endloop
  endfacet
  facet normal 2.22045e-16 -4.93038e-32 -1
    outer loop
      vertex 18.2066 2.5 -1.5
      vertex 11.5934 2.5 -1.5
      vertex 40 2.55 -1.5
    endloop
  endfacet
  facet normal 2.22045e-16 -4.93038e-32 -1
    outer loop
      vertex 7.26325 5.66426e-07 -1.5
      vertex -1.75 2.16506 -1.5
      vertex 8.70662 2.5 -1.5
    endloop
  endfacet
  facet normal 2.22045e-16 -4.93038e-32 -1
    outer loop
      vertex 11.5934 2.5 -1.5
      vertex 8.70662 2.5 -1.5
      vertex 40 2.55 -1.5
    endloop
  endfacet
  facet normal 2.22045e-16 -4.93038e-32 -1
    outer loop
      vertex -1.75 2.16506 -1.5
      vertex -3 2.5 -1.5
      vertex 8.70662 2.5 -1.5
    endloop
  endfacet
  facet normal 2.22045e-16 -4.93038e-32 -1
    outer loop
      vertex 7.26325 2.83213e-07 -1.5
      vertex -0.834936 1.25 -1.5
      vertex 7.26325 5.66426e-07 -1.5
    endloop
  endfacet
  facet normal 2.22045e-16 -4.93038e-32 -1
    outer loop
      vertex 35.1651 -1.25 -1.5
      vertex 40 -2.55 -1.5
      vertex 34.25 -2.16506 -1.5
    endloop
  endfacet
  facet normal 2.22045e-16 -4.93038e-32 -1
    outer loop
      vertex 30.5 -8.99281e-15 -1.5
      vertex 22.5368 -2.83213e-07 -1.5
      vertex 22.5368 -1.15316e-15 -1.5
    endloop
  endfacet
  facet normal 2.22045e-16 -4.93038e-32 -1
    outer loop
      vertex 18.2066 -2.5 -1.5
      vertex 13.0368 2.83213e-07 -1.5
      vertex 13.0368 5.66426e-07 -1.5
    endloop
  endfacet
  facet normal 2.22045e-16 -4.93038e-32 -1
    outer loop
      vertex 34.25 -2.16506 -1.5
      vertex 40 -2.55 -1.5
      vertex 33 -2.5 -1.5
    endloop
  endfacet
  facet normal 2.22045e-16 -4.93038e-32 -1
    outer loop
      vertex 11.5934 -2.5 -1.5
      vertex 18.2066 -2.5 -1.5
      vertex 40 -2.55 -1.5
    endloop
  endfacet
  facet normal 2.22045e-16 -4.93038e-32 -1
    outer loop
      vertex 21.0934 -2.5 -1.5
      vertex 40 -2.55 -1.5
      vertex 18.2066 -2.5 -1.5
    endloop
  endfacet
  facet normal 2.22045e-16 -4.93038e-32 -1
    outer loop
      vertex 18.2066 -2.5 -1.5
      vertex 13.0368 5.66426e-07 -1.5
      vertex 16.7632 -5.66426e-07 -1.5
    endloop
  endfacet
  facet normal 2.22045e-16 -4.93038e-32 -1
    outer loop
      vertex 30.8349 -1.25 -1.5
      vertex 22.5368 -5.66426e-07 -1.5
      vertex 30.5 -8.99281e-15 -1.5
    endloop
  endfacet
  facet normal 2.22045e-16 -4.93038e-32 -1
    outer loop
      vertex 33 2.5 -1.5
      vertex 21.0934 2.5 -1.5
      vertex 40 2.55 -1.5
    endloop
  endfacet
  facet normal 2.22045e-16 -4.93038e-32 -1
    outer loop
      vertex 16.7632 5.66426e-07 -1.5
      vertex 11.5934 2.5 -1.5
      vertex 18.2066 2.5 -1.5
    endloop
  endfacet
  facet normal 2.22045e-16 -4.93038e-32 -1
    outer loop
      vertex 21.0934 2.5 -1.5
      vertex 18.2066 2.5 -1.5
      vertex 40 2.55 -1.5
    endloop
  endfacet
  facet normal 2.22045e-16 -4.93038e-32 -1
    outer loop
      vertex 31.75 -2.16506 -1.5
      vertex 22.5368 -5.66426e-07 -1.5
      vertex 30.8349 -1.25 -1.5
    endloop
  endfacet
  facet normal 2.22045e-16 -4.93038e-32 -1
    outer loop
      vertex 21.0934 -2.5 -1.5
      vertex 33 -2.5 -1.5
      vertex 40 -2.55 -1.5
    endloop
  endfacet
  facet normal 2.22045e-16 -4.93038e-32 -1
    outer loop
      vertex 11.5934 2.5 -1.5
      vertex 16.7632 -5.66426e-07 -1.5
      vertex 13.0368 5.66426e-07 -1.5
    endloop
  endfacet
  facet normal 2.22045e-16 -4.93038e-32 -1
    outer loop
      vertex 34.25 2.16506 -1.5
      vertex 40 2.55 -1.5
      vertex 35.1651 1.25 -1.5
    endloop
  endfacet
  facet normal 2.22045e-16 -4.93038e-32 -1
    outer loop
      vertex 40 -2.55 -1.5
      vertex 35.1651 -1.25 -1.5
      vertex 40 2.55 -1.5
    endloop
  endfacet
  facet normal 2.22045e-16 -4.93038e-32 -1
    outer loop
      vertex 35.1651 -1.25 -1.5
      vertex 35.5 -1.0103e-14 -1.5
      vertex 40 2.55 -1.5
    endloop
  endfacet
  facet normal 2.22045e-16 -4.93038e-32 -1
    outer loop
      vertex 35.5 -1.0103e-14 -1.5
      vertex 35.1651 1.25 -1.5
      vertex 40 2.55 -1.5
    endloop
  endfacet
  facet normal 2.22045e-16 -4.93038e-32 -1
    outer loop
      vertex 33 2.5 -1.5
      vertex 40 2.55 -1.5
      vertex 34.25 2.16506 -1.5
    endloop
  endfacet
  facet normal 2.22045e-16 -4.93038e-32 -1
    outer loop
      vertex 13.0368 -5.66426e-07 -1.5
      vertex 18.2066 -2.5 -1.5
      vertex 11.5934 -2.5 -1.5
    endloop
  endfacet
  facet normal 2.22045e-16 -4.93038e-32 -1
    outer loop
      vertex 22.5368 -5.66426e-07 -1.5
      vertex 31.75 -2.16506 -1.5
      vertex 33 -2.5 -1.5
    endloop
  endfacet
  facet normal 2.22045e-16 -4.93038e-32 -1
    outer loop
      vertex 22.5368 -5.66426e-07 -1.5
      vertex 33 -2.5 -1.5
      vertex 21.0934 -2.5 -1.5
    endloop
  endfacet
  facet normal 2.22045e-16 -4.93038e-32 -1
    outer loop
      vertex -1.75 -2.16506 -1.5
      vertex 8.70662 -2.5 -1.5
      vertex -3 -2.5 -1.5
    endloop
  endfacet
  facet normal 2.72022e-16 0.965803 -0.259276
    outer loop
      vertex -10 2.95 -0.01
      vertex 40 2.95 -0.01
      vertex -10 2.55 -1.5
    endloop
  endfacet
  facet normal 2.72022e-16 0.965803 -0.259276
    outer loop
      vertex -10 2.55 -1.5
      vertex 40 2.95 -0.01
      vertex 40 2.55 -1.5
    endloop
  endfacet
  facet normal 2.22045e-16 1 4.93038e-32
    outer loop
      vertex -10 2.95 0
      vertex 5 2.95 3.33067e-15
      vertex -10 2.95 -0.01
    endloop
  endfacet
  facet normal 2.22045e-16 1 4.93038e-32
    outer loop
      vertex -10 2.95 -0.01
      vertex 5 2.95 3.33067e-15
      vertex 5 2.95 0
    endloop
  endfacet
  facet normal 2.22045e-16 1 4.93038e-32
    outer loop
      vertex -10 2.95 -0.01
      vertex 5 2.95 0
      vertex 24 2.95 0
    endloop
  endfacet
  facet normal 2.22045e-16 1 4.93038e-32
    outer loop
      vertex 24 2.95 0
      vertex 24 2.95 7.54952e-15
      vertex 40 2.95 1.11022e-14
    endloop
  endfacet
  facet normal 2.22045e-16 1 4.93038e-32
    outer loop
      vertex 24 2.95 0
      vertex 40 2.95 1.11022e-14
      vertex -10 2.95 -0.01
    endloop
  endfacet
  facet normal 2.22045e-16 1 4.93038e-32
    outer loop
      vertex -10 2.95 -0.01
      vertex 40 2.95 1.11022e-14
      vertex 40 2.95 -0.01
    endloop
  endfacet
  facet normal 2.22045e-16 -4.93038e-32 -1
    outer loop
      vertex -10 2.95 0
      vertex -10 10 0
      vertex 5 2.95 3.33067e-15
    endloop
  endfacet
  facet normal 2.22045e-16 -4.93038e-32 -1
    outer loop
      vertex 24 7 7.54952e-15
      vertex -10 10 0
      vertex 40 10 1.11022e-14
    endloop
  endfacet
  facet normal 2.22045e-16 -4.93038e-32 -1
    outer loop
      vertex 24 2.95 7.54952e-15
      vertex 40 10 1.11022e-14
      vertex 40 2.95 1.11022e-14
    endloop
  endfacet
  facet normal 2.22045e-16 -4.93038e-32 -1
    outer loop
      vertex 5 7 3.33067e-15
      vertex -10 10 0
      vertex 24 7 7.54952e-15
    endloop
  endfacet
  facet normal 2.22045e-16 -4.93038e-32 -1
    outer loop
      vertex 5 2.95 3.33067e-15
      vertex -10 10 0
      vertex 5 7 3.33067e-15
    endloop
  endfacet
  facet normal 2.22045e-16 -4.93038e-32 -1
    outer loop
      vertex 24 7 7.54952e-15
      vertex 40 10 1.11022e-14
      vertex 24 2.95 7.54952e-15
    endloop
  endfacet
  facet normal 2.22045e-16 1 4.93038e-32
    outer loop
      vertex -10 10 4
      vertex 40 10 4
      vertex -10 10 0
    endloop
  endfacet
  facet normal 2.22045e-16 1 4.93038e-32
    outer loop
      vertex -10 10 0
      vertex 40 10 4
      vertex 40 10 1.11022e-14
    endloop
  endfacet
  facet normal 0.965926 0.258819 4.28957e-16
    outer loop
      vertex -5.16506 -1.25 4
      vertex -5.16506 -1.25 -1.5
      vertex -5.5 -9.99201e-16 -1.5
    endloop
  endfacet
  facet normal 0.965926 0.258819 4.28957e-16
    outer loop
      vertex -5.5 -9.99201e-16 4
      vertex -5.16506 -1.25 4
      vertex -5.5 -9.99201e-16 -1.5
    endloop
  endfacet
  facet normal 0.707107 0.707107 3.14018e-16
    outer loop
      vertex -4.25 -2.16506 4
      vertex -4.25 -2.16506 -1.5
      vertex -5.16506 -1.25 -1.5
    endloop
  endfacet
  facet normal 0.707107 0.707107 3.14018e-16
    outer loop
      vertex -5.16506 -1.25 4
      vertex -4.25 -2.16506 4
      vertex -5.16506 -1.25 -1.5
    endloop
  endfacet
  facet normal 0.258819 0.965926 1.14939e-16
    outer loop
      vertex -3 -2.5 -1.5
      vertex -4.25 -2.16506 -1.5
      vertex -3 -2.5 4
    endloop
  endfacet
  facet normal 0.258819 0.965926 1.14939e-16
    outer loop
      vertex -3 -2.5 4
      vertex -4.25 -2.16506 -1.5
      vertex -4.25 -2.16506 4
    endloop
  endfacet
  facet normal -0.258819 0.965926 -1.14939e-16
    outer loop
      vertex -1.75 -2.16506 -1.5
      vertex -3 -2.5 -1.5
      vertex -1.75 -2.16506 4
    endloop
  endfacet
  facet normal -0.258819 0.965926 -1.14939e-16
    outer loop
      vertex -1.75 -2.16506 4
      vertex -3 -2.5 -1.5
      vertex -3 -2.5 4
    endloop
  endfacet
  facet normal -0.707107 0.707107 -3.14018e-16
    outer loop
      vertex -0.834936 -1.25 -1.5
      vertex -1.75 -2.16506 -1.5
      vertex -0.834936 -1.25 4
    endloop
  endfacet
  facet normal -0.707107 0.707107 -3.14018e-16
    outer loop
      vertex -0.834936 -1.25 4
      vertex -1.75 -2.16506 -1.5
      vertex -1.75 -2.16506 4
    endloop
  endfacet
  facet normal -0.965926 0.258819 -4.28957e-16
    outer loop
      vertex -0.5 -2.10942e-15 -1.5
      vertex -0.834936 -1.25 -1.5
      vertex -0.5 -2.10942e-15 4
    endloop
  endfacet
  facet normal -0.965926 0.258819 -4.28957e-16
    outer loop
      vertex -0.5 -2.10942e-15 4
      vertex -0.834936 -1.25 -1.5
      vertex -0.834936 -1.25 4
    endloop
  endfacet
  facet normal -0.965926 -0.258819 -4.28957e-16
    outer loop
      vertex -0.5 -2.10942e-15 -1.5
      vertex -0.5 -2.10942e-15 4
      vertex -0.834936 1.25 -1.5
    endloop
  endfacet
  facet normal -0.965926 -0.258819 -4.28957e-16
    outer loop
      vertex -0.834936 1.25 -1.5
      vertex -0.5 -2.10942e-15 4
      vertex -0.834936 1.25 4
    endloop
  endfacet
  facet normal -0.707107 -0.707107 -3.14018e-16
    outer loop
      vertex -0.834936 1.25 -1.5
      vertex -0.834936 1.25 4
      vertex -1.75 2.16506 -1.5
    endloop
  endfacet
  facet normal -0.707107 -0.707107 -3.14018e-16
    outer loop
      vertex -1.75 2.16506 -1.5
      vertex -0.834936 1.25 4
      vertex -1.75 2.16506 4
    endloop
  endfacet
  facet normal -0.258819 -0.965926 -1.14939e-16
    outer loop
      vertex -3 2.5 -1.5
      vertex -1.75 2.16506 -1.5
      vertex -1.75 2.16506 4
    endloop
  endfacet
  facet normal -0.258819 -0.965926 -1.14939e-16
    outer loop
      vertex -3 2.5 4
      vertex -3 2.5 -1.5
      vertex -1.75 2.16506 4
    endloop
  endfacet
  facet normal 0.258819 -0.965926 1.14939e-16
    outer loop
      vertex -4.25 2.16506 -1.5
      vertex -3 2.5 -1.5
      vertex -3 2.5 4
    endloop
  endfacet
  facet normal 0.258819 -0.965926 1.14939e-16
    outer loop
      vertex -4.25 2.16506 4
      vertex -4.25 2.16506 -1.5
      vertex -3 2.5 4
    endloop
  endfacet
  facet normal 0.707107 -0.707107 3.14018e-16
    outer loop
      vertex -5.16506 1.25 -1.5
      vertex -4.25 2.16506 -1.5
      vertex -4.25 2.16506 4
    endloop
  endfacet
  facet normal 0.707107 -0.707107 3.14018e-16
    outer loop
      vertex -5.16506 1.25 4
      vertex -5.16506 1.25 -1.5
      vertex -4.25 2.16506 4
    endloop
  endfacet
  facet normal 0.965926 -0.258819 4.28957e-16
    outer loop
      vertex -5.5 -9.99201e-16 -1.5
      vertex -5.16506 1.25 -1.5
      vertex -5.16506 1.25 4
    endloop
  endfacet
  facet normal 0.965926 -0.258819 4.28957e-16
    outer loop
      vertex -5.5 -9.99201e-16 4
      vertex -5.5 -9.99201e-16 -1.5
      vertex -5.16506 1.25 4
    endloop
  endfacet
  facet normal -1 0 0
    outer loop
      vertex 5 -10 4
      vertex 5 -10 6.4
      vertex 5 7 4
    endloop
  endfacet
  facet normal -1 0 0
    outer loop
      vertex 5 7 4
      vertex 5 -10 6.4
      vertex 5 7 6.4
    endloop
  endfacet
  facet normal 0 -1 0
    outer loop
      vertex 5 -10 6.4
      vertex 5 -10 4
      vertex 24 -10 4
    endloop
  endfacet
  facet normal 0 -1 0
    outer loop
      vertex 24 -10 6.4
      vertex 5 -10 6.4
      vertex 24 -10 4
    endloop
  endfacet
  facet normal 1 0 0
    outer loop
      vertex 24 -10 6.4
      vertex 24 -10 4
      vertex 24 7 4
    endloop
  endfacet
  facet normal 1 0 0
    outer loop
      vertex 24 7 6.4
      vertex 24 -10 6.4
      vertex 24 7 4
    endloop
  endfacet
  facet normal 0 1 0
    outer loop
      vertex 5 7 4
      vertex 5 7 6.4
      vertex 24 7 4
    endloop
  endfacet
  facet normal 0 1 0
    outer loop
      vertex 24 7 4
      vertex 5 7 6.4
      vertex 24 7 6.4
    endloop
  endfacet
  facet normal 0.707107 0.707107 3.14018e-16
    outer loop
      vertex 31.75 -2.16506 4
      vertex 31.75 -2.16506 -1.5
      vertex 30.8349 -1.25 -1.5
    endloop
  endfacet
  facet normal 0.707107 0.707107 3.14018e-16
    outer loop
      vertex 30.8349 -1.25 4
      vertex 31.75 -2.16506 4
      vertex 30.8349 -1.25 -1.5
    endloop
  endfacet
  facet normal 0.965926 0.258819 4.28957e-16
    outer loop
      vertex 30.8349 -1.25 4
      vertex 30.8349 -1.25 -1.5
      vertex 30.5 -8.99281e-15 -1.5
    endloop
  endfacet
  facet normal 0.965926 0.258819 4.28957e-16
    outer loop
      vertex 30.5 -8.99281e-15 4
      vertex 30.8349 -1.25 4
      vertex 30.5 -8.99281e-15 -1.5
    endloop
  endfacet
  facet normal 0.258819 0.965926 1.14939e-16
    outer loop
      vertex 33 -2.5 -1.5
      vertex 31.75 -2.16506 -1.5
      vertex 33 -2.5 4
    endloop
  endfacet
  facet normal 0.258819 0.965926 1.14939e-16
    outer loop
      vertex 33 -2.5 4
      vertex 31.75 -2.16506 -1.5
      vertex 31.75 -2.16506 4
    endloop
  endfacet
  facet normal -0.258819 0.965926 -1.14939e-16
    outer loop
      vertex 34.25 -2.16506 -1.5
      vertex 33 -2.5 -1.5
      vertex 34.25 -2.16506 4
    endloop
  endfacet
  facet normal -0.258819 0.965926 -1.14939e-16
    outer loop
      vertex 34.25 -2.16506 4
      vertex 33 -2.5 -1.5
      vertex 33 -2.5 4
    endloop
  endfacet
  facet normal -0.707107 0.707107 -3.14018e-16
    outer loop
      vertex 35.1651 -1.25 -1.5
      vertex 34.25 -2.16506 -1.5
      vertex 35.1651 -1.25 4
    endloop
  endfacet
  facet normal -0.707107 0.707107 -3.14018e-16
    outer loop
      vertex 35.1651 -1.25 4
      vertex 34.25 -2.16506 -1.5
      vertex 34.25 -2.16506 4
    endloop
  endfacet
  facet normal -0.965926 0.258819 -4.28957e-16
    outer loop
      vertex 35.5 -1.0103e-14 -1.5
      vertex 35.1651 -1.25 -1.5
      vertex 35.5 -1.0103e-14 4
    endloop
  endfacet
  facet normal -0.965926 0.258819 -4.28957e-16
    outer loop
      vertex 35.5 -1.0103e-14 4
      vertex 35.1651 -1.25 -1.5
      vertex 35.1651 -1.25 4
    endloop
  endfacet
  facet normal -0.965926 -0.258819 -4.28957e-16
    outer loop
      vertex 35.5 -1.0103e-14 -1.5
      vertex 35.5 -1.0103e-14 4
      vertex 35.1651 1.25 -1.5
    endloop
  endfacet
  facet normal -0.965926 -0.258819 -4.28957e-16
    outer loop
      vertex 35.1651 1.25 -1.5
      vertex 35.5 -1.0103e-14 4
      vertex 35.1651 1.25 4
    endloop
  endfacet
  facet normal -0.707107 -0.707107 -3.14018e-16
    outer loop
      vertex 35.1651 1.25 -1.5
      vertex 35.1651 1.25 4
      vertex 34.25 2.16506 -1.5
    endloop
  endfacet
  facet normal -0.707107 -0.707107 -3.14018e-16
    outer loop
      vertex 34.25 2.16506 -1.5
      vertex 35.1651 1.25 4
      vertex 34.25 2.16506 4
    endloop
  endfacet
  facet normal -0.258819 -0.965926 -1.14939e-16
    outer loop
      vertex 33 2.5 -1.5
      vertex 34.25 2.16506 -1.5
      vertex 34.25 2.16506 4
    endloop
  endfacet
  facet normal -0.258819 -0.965926 -1.14939e-16
    outer loop
      vertex 33 2.5 4
      vertex 33 2.5 -1.5
      vertex 34.25 2.16506 4
    endloop
  endfacet
  facet normal 0.258819 -0.965926 1.14939e-16
    outer loop
      vertex 31.75 2.16506 -1.5
      vertex 33 2.5 -1.5
      vertex 33 2.5 4
    endloop
  endfacet
  facet normal 0.258819 -0.965926 1.14939e-16
    outer loop
      vertex 31.75 2.16506 4
      vertex 31.75 2.16506 -1.5
      vertex 33 2.5 4
    endloop
  endfacet
  facet normal 0.707107 -0.707107 3.14018e-16
    outer loop
      vertex 30.8349 1.25 -1.5
      vertex 31.75 2.16506 -1.5
      vertex 31.75 2.16506 4
    endloop
  endfacet
  facet normal 0.707107 -0.707107 3.14018e-16
    outer loop
      vertex 30.8349 1.25 4
      vertex 30.8349 1.25 -1.5
      vertex 31.75 2.16506 4
    endloop
  endfacet
  facet normal 0.965926 -0.258819 4.28957e-16
    outer loop
      vertex 30.5 -8.99281e-15 -1.5
      vertex 30.8349 1.25 -1.5
      vertex 30.8349 1.25 4
    endloop
  endfacet
  facet normal 0.965926 -0.258819 4.28957e-16
    outer loop
      vertex 30.5 -8.99281e-15 4
      vertex 30.5 -8.99281e-15 -1.5
      vertex 30.8349 1.25 4
    endloop
  endfacet
  facet normal 1 0 0
    outer loop
      vertex 24 -10 7.54952e-15
      vertex 24 -10 0
      vertex 24 -2.95 0
    endloop
  endfacet
  facet normal 1 0 0
    outer loop
      vertex 24 -2.95 7.54952e-15
      vertex 24 -10 7.54952e-15
      vertex 24 -2.95 0
    endloop
  endfacet
  facet normal 0 -1 0
    outer loop
      vertex 5 -10 3.33067e-15
      vertex 5 -10 0
      vertex 24 -10 0
    endloop
  endfacet
  facet normal 0 -1 0
    outer loop
      vertex 24 -10 7.54952e-15
      vertex 5 -10 3.33067e-15
      vertex 24 -10 0
    endloop
  endfacet
  facet normal -1 0 0
    outer loop
      vertex 5 -10 0
      vertex 5 -10 3.33067e-15
      vertex 5 -2.95 0
    endloop
  endfacet
  facet normal -1 0 0
    outer loop
      vertex 5 -2.95 0
      vertex 5 -10 3.33067e-15
      vertex 5 -2.95 3.33067e-15
    endloop
  endfacet
  facet normal 0 0 -1
    outer loop
      vertex 5 -10 0
      vertex 5 -2.95 0
      vertex 24 -10 0
    endloop
  endfacet
  facet normal 0 0 -1
    outer loop
      vertex 24 -10 0
      vertex 5 -2.95 0
      vertex 24 -2.95 0
    endloop
  endfacet
  facet normal 0.866025 0.5 0
    outer loop
      vertex 7.26325 2.83213e-07 2
      vertex 7.26325 1.15316e-15 2
      vertex 7.26325 1.15316e-15 -1.5
    endloop
  endfacet
  facet normal 0.866025 0.5 0
    outer loop
      vertex 7.26325 2.83213e-07 -1.5
      vertex 7.26325 2.83213e-07 2
      vertex 7.26325 1.15316e-15 -1.5
    endloop
  endfacet
  facet normal 0.5 -0.866025 0
    outer loop
      vertex 7.26325 5.66426e-07 -1.5
      vertex 7.26325 5.66426e-07 2
      vertex 7.26325 2.83213e-07 2
    endloop
  endfacet
  facet normal 0.5 -0.866025 0
    outer loop
      vertex 7.26325 2.83213e-07 -1.5
      vertex 7.26325 5.66426e-07 -1.5
      vertex 7.26325 2.83213e-07 2
    endloop
  endfacet
  facet normal 0.866025 -0.5 0
    outer loop
      vertex 8.70662 2.5 -1.5
      vertex 8.70662 2.5 2
      vertex 7.26325 5.66426e-07 2
    endloop
  endfacet
  facet normal 0.866025 -0.5 0
    outer loop
      vertex 7.26325 5.66426e-07 -1.5
      vertex 8.70662 2.5 -1.5
      vertex 7.26325 5.66426e-07 2
    endloop
  endfacet
  facet normal -3.44505e-16 -1 0
    outer loop
      vertex 11.5934 2.5 -1.5
      vertex 11.5934 2.5 2
      vertex 8.70662 2.5 2
    endloop
  endfacet
  facet normal -3.44505e-16 -1 0
    outer loop
      vertex 8.70662 2.5 -1.5
      vertex 11.5934 2.5 -1.5
      vertex 8.70662 2.5 2
    endloop
  endfacet
  facet normal -0.866025 -0.5 0
    outer loop
      vertex 13.0368 5.66426e-07 2
      vertex 11.5934 2.5 2
      vertex 13.0368 5.66426e-07 -1.5
    endloop
  endfacet
  facet normal -0.866025 -0.5 0
    outer loop
      vertex 13.0368 5.66426e-07 -1.5
      vertex 11.5934 2.5 2
      vertex 11.5934 2.5 -1.5
    endloop
  endfacet
  facet normal -0.5 -0.866025 0
    outer loop
      vertex 13.0368 2.83213e-07 -1.5
      vertex 13.0368 2.83213e-07 2
      vertex 13.0368 5.66426e-07 2
    endloop
  endfacet
  facet normal -0.5 -0.866025 0
    outer loop
      vertex 13.0368 5.66426e-07 -1.5
      vertex 13.0368 2.83213e-07 -1.5
      vertex 13.0368 5.66426e-07 2
    endloop
  endfacet
  facet normal -0.866025 0.5 0
    outer loop
      vertex 13.0368 2.83213e-07 2
      vertex 13.0368 2.83213e-07 -1.5
      vertex 13.0368 -1.15316e-15 2
    endloop
  endfacet
  facet normal -0.866025 0.5 0
    outer loop
      vertex 13.0368 -1.15316e-15 2
      vertex 13.0368 2.83213e-07 -1.5
      vertex 13.0368 -1.15316e-15 -1.5
    endloop
  endfacet
  facet normal -0.866025 -0.5 0
    outer loop
      vertex 13.0368 -2.83213e-07 2
      vertex 13.0368 -1.15316e-15 2
      vertex 13.0368 -2.83213e-07 -1.5
    endloop
  endfacet
  facet normal -0.866025 -0.5 0
    outer loop
      vertex 13.0368 -2.83213e-07 -1.5
      vertex 13.0368 -1.15316e-15 2
      vertex 13.0368 -1.15316e-15 -1.5
    endloop
  endfacet
  facet normal -0.5 0.866025 0
    outer loop
      vertex 13.0368 -2.83213e-07 2
      vertex 13.0368 -2.83213e-07 -1.5
      vertex 13.0368 -5.66426e-07 2
    endloop
  endfacet
  facet normal -0.5 0.866025 0
    outer loop
      vertex 13.0368 -5.66426e-07 2
      vertex 13.0368 -2.83213e-07 -1.5
      vertex 13.0368 -5.66426e-07 -1.5
    endloop
  endfacet
  facet normal -0.866025 0.5 0
    outer loop
      vertex 13.0368 -5.66426e-07 2
      vertex 13.0368 -5.66426e-07 -1.5
      vertex 11.5934 -2.5 2
    endloop
  endfacet
  facet normal -0.866025 0.5 0
    outer loop
      vertex 11.5934 -2.5 2
      vertex 13.0368 -5.66426e-07 -1.5
      vertex 11.5934 -2.5 -1.5
    endloop
  endfacet
  facet normal 3.44505e-16 1 0
    outer loop
      vertex 11.5934 -2.5 2
      vertex 11.5934 -2.5 -1.5
      vertex 8.70662 -2.5 2
    endloop
  endfacet
  facet normal 3.44505e-16 1 0
    outer loop
      vertex 8.70662 -2.5 2
      vertex 11.5934 -2.5 -1.5
      vertex 8.70662 -2.5 -1.5
    endloop
  endfacet
  facet normal 0.866025 0.5 0
    outer loop
      vertex 7.26325 -5.66426e-07 2
      vertex 8.70662 -2.5 2
      vertex 8.70662 -2.5 -1.5
    endloop
  endfacet
  facet normal 0.866025 0.5 0
    outer loop
      vertex 7.26325 -5.66426e-07 -1.5
      vertex 7.26325 -5.66426e-07 2
      vertex 8.70662 -2.5 -1.5
    endloop
  endfacet
  facet normal 0.5 0.866025 0
    outer loop
      vertex 7.26325 -5.66426e-07 2
      vertex 7.26325 -5.66426e-07 -1.5
      vertex 7.26325 -2.83213e-07 2
    endloop
  endfacet
  facet normal 0.5 0.866025 0
    outer loop
      vertex 7.26325 -2.83213e-07 2
      vertex 7.26325 -5.66426e-07 -1.5
      vertex 7.26325 -2.83213e-07 -1.5
    endloop
  endfacet
  facet normal 0.866025 -0.5 0
    outer loop
      vertex 7.26325 1.15316e-15 -1.5
      vertex 7.26325 1.15316e-15 2
      vertex 7.26325 -2.83213e-07 2
    endloop
  endfacet
  facet normal 0.866025 -0.5 0
    outer loop
      vertex 7.26325 -2.83213e-07 -1.5
      vertex 7.26325 1.15316e-15 -1.5
      vertex 7.26325 -2.83213e-07 2
    endloop
  endfacet
  facet normal 0.866025 0.5 0
    outer loop
      vertex 16.7632 2.83213e-07 2
      vertex 16.7632 1.15316e-15 2
      vertex 16.7632 1.15316e-15 -1.5
    endloop
  endfacet
  facet normal 0.866025 0.5 0
    outer loop
      vertex 16.7632 2.83213e-07 -1.5
      vertex 16.7632 2.83213e-07 2
      vertex 16.7632 1.15316e-15 -1.5
    endloop
  endfacet
  facet normal 0.5 -0.866025 0
    outer loop
      vertex 16.7632 5.66426e-07 -1.5
      vertex 16.7632 5.66426e-07 2
      vertex 16.7632 2.83213e-07 2
    endloop
  endfacet
  facet normal 0.5 -0.866025 0
    outer loop
      vertex 16.7632 2.83213e-07 -1.5
      vertex 16.7632 5.66426e-07 -1.5
      vertex 16.7632 2.83213e-07 2
    endloop
  endfacet
  facet normal 0.866025 -0.5 0
    outer loop
      vertex 18.2066 2.5 -1.5
      vertex 18.2066 2.5 2
      vertex 16.7632 5.66426e-07 2
    endloop
  endfacet
  facet normal 0.866025 -0.5 0
    outer loop
      vertex 16.7632 5.66426e-07 -1.5
      vertex 18.2066 2.5 -1.5
      vertex 16.7632 5.66426e-07 2
    endloop
  endfacet
  facet normal -3.44505e-16 -1 0
    outer loop
      vertex 21.0934 2.5 -1.5
      vertex 21.0934 2.5 2
      vertex 18.2066 2.5 2
    endloop
  endfacet
  facet normal -3.44505e-16 -1 0
    outer loop
      vertex 18.2066 2.5 -1.5
      vertex 21.0934 2.5 -1.5
      vertex 18.2066 2.5 2
    endloop
  endfacet
  facet normal -0.866025 -0.5 0
    outer loop
      vertex 22.5368 5.66426e-07 2
      vertex 21.0934 2.5 2
      vertex 22.5368 5.66426e-07 -1.5
    endloop
  endfacet
  facet normal -0.866025 -0.5 0
    outer loop
      vertex 22.5368 5.66426e-07 -1.5
      vertex 21.0934 2.5 2
      vertex 21.0934 2.5 -1.5
    endloop
  endfacet
  facet normal -0.5 -0.866025 0
    outer loop
      vertex 22.5368 2.83213e-07 -1.5
      vertex 22.5368 2.83213e-07 2
      vertex 22.5368 5.66426e-07 2
    endloop
  endfacet
  facet normal -0.5 -0.866025 0
    outer loop
      vertex 22.5368 5.66426e-07 -1.5
      vertex 22.5368 2.83213e-07 -1.5
      vertex 22.5368 5.66426e-07 2
    endloop
  endfacet
  facet normal -0.866025 0.5 0
    outer loop
      vertex 22.5368 2.83213e-07 2
      vertex 22.5368 2.83213e-07 -1.5
      vertex 22.5368 -1.15316e-15 2
    endloop
  endfacet
  facet normal -0.866025 0.5 0
    outer loop
      vertex 22.5368 -1.15316e-15 2
      vertex 22.5368 2.83213e-07 -1.5
      vertex 22.5368 -1.15316e-15 -1.5
    endloop
  endfacet
  facet normal -0.866025 -0.5 0
    outer loop
      vertex 22.5368 -2.83213e-07 2
      vertex 22.5368 -1.15316e-15 2
      vertex 22.5368 -2.83213e-07 -1.5
    endloop
  endfacet
  facet normal -0.866025 -0.5 0
    outer loop
      vertex 22.5368 -2.83213e-07 -1.5
      vertex 22.5368 -1.15316e-15 2
      vertex 22.5368 -1.15316e-15 -1.5
    endloop
  endfacet
  facet normal -0.5 0.866025 0
    outer loop
      vertex 22.5368 -2.83213e-07 2
      vertex 22.5368 -2.83213e-07 -1.5
      vertex 22.5368 -5.66426e-07 2
    endloop
  endfacet
  facet normal -0.5 0.866025 0
    outer loop
      vertex 22.5368 -5.66426e-07 2
      vertex 22.5368 -2.83213e-07 -1.5
      vertex 22.5368 -5.66426e-07 -1.5
    endloop
  endfacet
  facet normal -0.866025 0.5 0
    outer loop
      vertex 22.5368 -5.66426e-07 2
      vertex 22.5368 -5.66426e-07 -1.5
      vertex 21.0934 -2.5 2
    endloop
  endfacet
  facet normal -0.866025 0.5 0
    outer loop
      vertex 21.0934 -2.5 2
      vertex 22.5368 -5.66426e-07 -1.5
      vertex 21.0934 -2.5 -1.5
    endloop
  endfacet
  facet normal 3.44505e-16 1 0
    outer loop
      vertex 21.0934 -2.5 2
      vertex 21.0934 -2.5 -1.5
      vertex 18.2066 -2.5 2
    endloop
  endfacet
  facet normal 3.44505e-16 1 0
    outer loop
      vertex 18.2066 -2.5 2
      vertex 21.0934 -2.5 -1.5
      vertex 18.2066 -2.5 -1.5
    endloop
  endfacet
  facet normal 0.866025 0.5 0
    outer loop
      vertex 16.7632 -5.66426e-07 2
      vertex 18.2066 -2.5 2
      vertex 18.2066 -2.5 -1.5
    endloop
  endfacet
  facet normal 0.866025 0.5 0
    outer loop
      vertex 16.7632 -5.66426e-07 -1.5
      vertex 16.7632 -5.66426e-07 2
      vertex 18.2066 -2.5 -1.5
    endloop
  endfacet
  facet normal 0.5 0.866025 0
    outer loop
      vertex 16.7632 -5.66426e-07 2
      vertex 16.7632 -5.66426e-07 -1.5
      vertex 16.7632 -2.83213e-07 2
    endloop
  endfacet
  facet normal 0.5 0.866025 0
    outer loop
      vertex 16.7632 -2.83213e-07 2
      vertex 16.7632 -5.66426e-07 -1.5
      vertex 16.7632 -2.83213e-07 -1.5
    endloop
  endfacet
  facet normal 0.866025 -0.5 0
    outer loop
      vertex 16.7632 1.15316e-15 -1.5
      vertex 16.7632 1.15316e-15 2
      vertex 16.7632 -2.83213e-07 2
    endloop
  endfacet
  facet normal 0.866025 -0.5 0
    outer loop
      vertex 16.7632 -2.83213e-07 -1.5
      vertex 16.7632 1.15316e-15 -1.5
      vertex 16.7632 -2.83213e-07 2
    endloop
  endfacet
  facet normal 1 0 0
    outer loop
      vertex 24 7 7.54952e-15
      vertex 24 2.95 7.54952e-15
      vertex 24 2.95 0
    endloop
  endfacet
  facet normal 1 0 0
    outer loop
      vertex 24 7 0
      vertex 24 7 7.54952e-15
      vertex 24 2.95 0
    endloop
  endfacet
  facet normal 0 0 -1
    outer loop
      vertex 5 2.95 0
      vertex 5 7 0
      vertex 24 2.95 0
    endloop
  endfacet
  facet normal 0 0 -1
    outer loop
      vertex 24 2.95 0
      vertex 5 7 0
      vertex 24 7 0
    endloop
  endfacet
  facet normal -1 0 0
    outer loop
      vertex 5 2.95 3.33067e-15
      vertex 5 7 3.33067e-15
      vertex 5 2.95 0
    endloop
  endfacet
  facet normal -1 0 0
    outer loop
      vertex 5 2.95 0
      vertex 5 7 3.33067e-15
      vertex 5 7 0
    endloop
  endfacet
  facet normal 0 1 0
    outer loop
      vertex 5 7 0
      vertex 5 7 3.33067e-15
      vertex 24 7 0
    endloop
  endfacet
  facet normal 0 1 0
    outer loop
      vertex 24 7 0
      vertex 5 7 3.33067e-15
      vertex 24 7 7.54952e-15
    endloop
  endfacet
  facet normal 0 0 1
    outer loop
      vertex 9.525 -1.08253 6.4
      vertex 5 -10 6.4
      vertex 24 -10 6.4
    endloop
  endfacet
  facet normal 0 0 1
    outer loop
      vertex 18.5675 -0.625 6.4
      vertex 5 7 6.4
      vertex 24 -10 6.4
    endloop
  endfacet
  facet normal 0 0 1
    outer loop
      vertex 19.025 1.08253 6.4
      vertex 19.65 1.25 6.4
      vertex 24 7 6.4
    endloop
  endfacet
  facet normal 0 0 1
    outer loop
      vertex 5 7 6.4
      vertex 5 -10 6.4
      vertex 9.06747 -0.625 6.4
    endloop
  endfacet
  facet normal 0 0 1
    outer loop
      vertex 10.15 -1.25 6.4
      vertex 9.525 -1.08253 6.4
      vertex 24 -10 6.4
    endloop
  endfacet
  facet normal 0 0 1
    outer loop
      vertex 5 7 6.4
      vertex 9.06747 -0.625 6.4
      vertex 8.9 2.77556e-16 6.4
    endloop
  endfacet
  facet normal 0 0 1
    outer loop
      vertex 10.775 -1.08253 6.4
      vertex 10.15 -1.25 6.4
      vertex 24 -10 6.4
    endloop
  endfacet
  facet normal 0 0 1
    outer loop
      vertex 5 7 6.4
      vertex 8.9 2.77556e-16 6.4
      vertex 9.06747 0.625 6.4
    endloop
  endfacet
  facet normal 0 0 1
    outer loop
      vertex 11.2325 -0.625 6.4
      vertex 10.775 -1.08253 6.4
      vertex 24 -10 6.4
    endloop
  endfacet
  facet normal 0 0 1
    outer loop
      vertex 5 7 6.4
      vertex 9.06747 0.625 6.4
      vertex 9.525 1.08253 6.4
    endloop
  endfacet
  facet normal 0 0 1
    outer loop
      vertex 11.4 -2.77556e-16 6.4
      vertex 11.2325 -0.625 6.4
      vertex 24 -10 6.4
    endloop
  endfacet
  facet normal 0 0 1
    outer loop
      vertex 5 7 6.4
      vertex 9.525 1.08253 6.4
      vertex 10.15 1.25 6.4
    endloop
  endfacet
  facet normal 0 0 1
    outer loop
      vertex 5 7 6.4
      vertex 10.775 1.08253 6.4
      vertex 24 -10 6.4
    endloop
  endfacet
  facet normal 0 0 1
    outer loop
      vertex 5 7 6.4
      vertex 10.15 1.25 6.4
      vertex 10.775 1.08253 6.4
    endloop
  endfacet
  facet normal 0 0 1
    outer loop
      vertex 10.775 1.08253 6.4
      vertex 11.2325 0.625 6.4
      vertex 24 -10 6.4
    endloop
  endfacet
  facet normal 0 0 1
    outer loop
      vertex 9.06747 -0.625 6.4
      vertex 5 -10 6.4
      vertex 9.525 -1.08253 6.4
    endloop
  endfacet
  facet normal 0 0 1
    outer loop
      vertex 19.025 -1.08253 6.4
      vertex 18.5675 -0.625 6.4
      vertex 24 -10 6.4
    endloop
  endfacet
  facet normal 0 0 1
    outer loop
      vertex 18.4 2.77556e-16 6.4
      vertex 5 7 6.4
      vertex 18.5675 -0.625 6.4
    endloop
  endfacet
  facet normal 0 0 1
    outer loop
      vertex 18.5675 0.625 6.4
      vertex 5 7 6.4
      vertex 18.4 2.77556e-16 6.4
    endloop
  endfacet
  facet normal 0 0 1
    outer loop
      vertex 24 7 6.4
      vertex 5 7 6.4
      vertex 18.5675 0.625 6.4
    endloop
  endfacet
  facet normal 0 0 1
    outer loop
      vertex 19.65 1.25 6.4
      vertex 20.275 1.08253 6.4
      vertex 24 7 6.4
    endloop
  endfacet
  facet normal 0 0 1
    outer loop
      vertex 24 7 6.4
      vertex 18.5675 0.625 6.4
      vertex 19.025 1.08253 6.4
    endloop
  endfacet
  facet normal 0 0 1
    outer loop
      vertex 20.9 -2.77556e-16 6.4
      vertex 20.7325 -0.625 6.4
      vertex 24 -10 6.4
    endloop
  endfacet
  facet normal 0 0 1
    outer loop
      vertex 24 7 6.4
      vertex 20.7325 0.625 6.4
      vertex 24 -10 6.4
    endloop
  endfacet
  facet normal 0 0 1
    outer loop
      vertex 24 7 6.4
      vertex 20.275 1.08253 6.4
      vertex 20.7325 0.625 6.4
    endloop
  endfacet
  facet normal 0 0 1
    outer loop
      vertex 20.7325 0.625 6.4
      vertex 20.9 -2.77556e-16 6.4
      vertex 24 -10 6.4
    endloop
  endfacet
  facet normal 0 0 1
    outer loop
      vertex 20.7325 -0.625 6.4
      vertex 20.275 -1.08253 6.4
      vertex 24 -10 6.4
    endloop
  endfacet
  facet normal 0 0 1
    outer loop
      vertex 20.275 -1.08253 6.4
      vertex 19.65 -1.25 6.4
      vertex 24 -10 6.4
    endloop
  endfacet
  facet normal 0 0 1
    outer loop
      vertex 19.65 -1.25 6.4
      vertex 19.025 -1.08253 6.4
      vertex 24 -10 6.4
    endloop
  endfacet
  facet normal 0 0 1
    outer loop
      vertex 11.2325 0.625 6.4
      vertex 11.4 -2.77556e-16 6.4
      vertex 24 -10 6.4
    endloop
  endfacet
  facet normal 0 0 -1
    outer loop
      vertex 7.26325 -5.66426e-07 2
      vertex 7.26325 5.66426e-07 2
      vertex 8.70662 -2.5 2
    endloop
  endfacet
  facet normal 0 0 -1
    outer loop
      vertex 8.70662 2.5 2
      vertex 11.5934 2.5 2
      vertex 7.26325 5.66426e-07 2
    endloop
  endfacet
  facet normal 0 0 -1
    outer loop
      vertex 9.06747 0.625 2
      vertex 7.26325 5.66426e-07 2
      vertex 9.525 1.08253 2
    endloop
  endfacet
  facet normal 0 0 -1
    outer loop
      vertex 11.2325 0.625 2
      vertex 13.0368 5.66426e-07 2
      vertex 13.0368 2.83213e-07 2
    endloop
  endfacet
  facet normal 0 0 -1
    outer loop
      vertex 11.2325 0.625 2
      vertex 13.0368 2.83213e-07 2
      vertex 13.0368 -1.15316e-15 2
    endloop
  endfacet
  facet normal 0 0 -1
    outer loop
      vertex 9.525 -1.08253 2
      vertex 11.5934 -2.5 2
      vertex 7.26325 5.66426e-07 2
    endloop
  endfacet
  facet normal 0 0 -1
    outer loop
      vertex 11.5934 -2.5 2
      vertex 8.70662 -2.5 2
      vertex 7.26325 5.66426e-07 2
    endloop
  endfacet
  facet normal 0 0 -1
    outer loop
      vertex 10.15 -1.25 2
      vertex 11.5934 -2.5 2
      vertex 9.525 -1.08253 2
    endloop
  endfacet
  facet normal 0 0 -1
    outer loop
      vertex 7.26325 -5.66426e-07 2
      vertex 7.26325 1.15316e-15 2
      vertex 7.26325 5.66426e-07 2
    endloop
  endfacet
  facet normal 0 0 -1
    outer loop
      vertex 7.26325 -2.83213e-07 2
      vertex 7.26325 1.15316e-15 2
      vertex 7.26325 -5.66426e-07 2
    endloop
  endfacet
  facet normal 0 0 -1
    outer loop
      vertex 11.2325 -0.625 2
      vertex 13.0368 -5.66426e-07 2
      vertex 10.775 -1.08253 2
    endloop
  endfacet
  facet normal 0 0 -1
    outer loop
      vertex 8.9 2.77556e-16 2
      vertex 9.06747 -0.625 2
      vertex 7.26325 5.66426e-07 2
    endloop
  endfacet
  facet normal 0 0 -1
    outer loop
      vertex 9.06747 -0.625 2
      vertex 9.525 -1.08253 2
      vertex 7.26325 5.66426e-07 2
    endloop
  endfacet
  facet normal 0 0 -1
    outer loop
      vertex 10.775 -1.08253 2
      vertex 11.5934 -2.5 2
      vertex 10.15 -1.25 2
    endloop
  endfacet
  facet normal 0 0 -1
    outer loop
      vertex 13.0368 -5.66426e-07 2
      vertex 11.5934 -2.5 2
      vertex 10.775 -1.08253 2
    endloop
  endfacet
  facet normal 0 0 -1
    outer loop
      vertex 11.4 -2.77556e-16 2
      vertex 13.0368 -5.66426e-07 2
      vertex 11.2325 -0.625 2
    endloop
  endfacet
  facet normal 0 0 -1
    outer loop
      vertex 11.4 -2.77556e-16 2
      vertex 13.0368 -2.83213e-07 2
      vertex 13.0368 -5.66426e-07 2
    endloop
  endfacet
  facet normal 0 0 -1
    outer loop
      vertex 13.0368 -1.15316e-15 2
      vertex 13.0368 -2.83213e-07 2
      vertex 11.4 -2.77556e-16 2
    endloop
  endfacet
  facet normal 0 0 -1
    outer loop
      vertex 11.5934 2.5 2
      vertex 13.0368 5.66426e-07 2
      vertex 11.2325 0.625 2
    endloop
  endfacet
  facet normal 0 0 -1
    outer loop
      vertex 11.5934 2.5 2
      vertex 11.2325 0.625 2
      vertex 10.775 1.08253 2
    endloop
  endfacet
  facet normal 0 0 -1
    outer loop
      vertex 11.5934 2.5 2
      vertex 10.775 1.08253 2
      vertex 10.15 1.25 2
    endloop
  endfacet
  facet normal 0 0 -1
    outer loop
      vertex 11.5934 2.5 2
      vertex 10.15 1.25 2
      vertex 9.525 1.08253 2
    endloop
  endfacet
  facet normal 0 0 -1
    outer loop
      vertex 11.5934 2.5 2
      vertex 9.525 1.08253 2
      vertex 7.26325 5.66426e-07 2
    endloop
  endfacet
  facet normal 0 0 -1
    outer loop
      vertex 8.9 2.77556e-16 2
      vertex 7.26325 5.66426e-07 2
      vertex 9.06747 0.625 2
    endloop
  endfacet
  facet normal 0 0 -1
    outer loop
      vertex 11.2325 0.625 2
      vertex 13.0368 -1.15316e-15 2
      vertex 11.4 -2.77556e-16 2
    endloop
  endfacet
  facet normal 0 0 -1
    outer loop
      vertex 7.26325 5.66426e-07 2
      vertex 7.26325 1.15316e-15 2
      vertex 7.26325 2.83213e-07 2
    endloop
  endfacet
  facet normal 0 0 -1
    outer loop
      vertex 16.7632 -5.66426e-07 2
      vertex 16.7632 5.66426e-07 2
      vertex 18.2066 -2.5 2
    endloop
  endfacet
  facet normal 0 0 -1
    outer loop
      vertex 18.2066 2.5 2
      vertex 21.0934 2.5 2
      vertex 16.7632 5.66426e-07 2
    endloop
  endfacet
  facet normal 0 0 -1
    outer loop
      vertex 18.5675 0.625 2
      vertex 16.7632 5.66426e-07 2
      vertex 19.025 1.08253 2
    endloop
  endfacet
  facet normal 0 0 -1
    outer loop
      vertex 20.7325 0.625 2
      vertex 22.5368 5.66426e-07 2
      vertex 22.5368 2.83213e-07 2
    endloop
  endfacet
  facet normal 0 0 -1
    outer loop
      vertex 20.7325 0.625 2
      vertex 22.5368 2.83213e-07 2
      vertex 22.5368 -1.15316e-15 2
    endloop
  endfacet
  facet normal 0 0 -1
    outer loop
      vertex 19.025 -1.08253 2
      vertex 21.0934 -2.5 2
      vertex 16.7632 5.66426e-07 2
    endloop
  endfacet
  facet normal 0 0 -1
    outer loop
      vertex 21.0934 -2.5 2
      vertex 18.2066 -2.5 2
      vertex 16.7632 5.66426e-07 2
    endloop
  endfacet
  facet normal 0 0 -1
    outer loop
      vertex 19.65 -1.25 2
      vertex 21.0934 -2.5 2
      vertex 19.025 -1.08253 2
    endloop
  endfacet
  facet normal 0 0 -1
    outer loop
      vertex 16.7632 -5.66426e-07 2
      vertex 16.7632 1.15316e-15 2
      vertex 16.7632 5.66426e-07 2
    endloop
  endfacet
  facet normal 0 0 -1
    outer loop
      vertex 16.7632 -2.83213e-07 2
      vertex 16.7632 1.15316e-15 2
      vertex 16.7632 -5.66426e-07 2
    endloop
  endfacet
  facet normal 0 0 -1
    outer loop
      vertex 20.7325 -0.625 2
      vertex 22.5368 -5.66426e-07 2
      vertex 20.275 -1.08253 2
    endloop
  endfacet
  facet normal 0 0 -1
    outer loop
      vertex 18.4 2.77556e-16 2
      vertex 18.5675 -0.625 2
      vertex 16.7632 5.66426e-07 2
    endloop
  endfacet
  facet normal 0 0 -1
    outer loop
      vertex 18.5675 -0.625 2
      vertex 19.025 -1.08253 2
      vertex 16.7632 5.66426e-07 2
    endloop
  endfacet
  facet normal 0 0 -1
    outer loop
      vertex 20.275 -1.08253 2
      vertex 21.0934 -2.5 2
      vertex 19.65 -1.25 2
    endloop
  endfacet
  facet normal 0 0 -1
    outer loop
      vertex 22.5368 -5.66426e-07 2
      vertex 21.0934 -2.5 2
      vertex 20.275 -1.08253 2
    endloop
  endfacet
  facet normal 0 0 -1
    outer loop
      vertex 20.9 -2.77556e-16 2
      vertex 22.5368 -5.66426e-07 2
      vertex 20.7325 -0.625 2
    endloop
  endfacet
  facet normal 0 0 -1
    outer loop
      vertex 20.9 -2.77556e-16 2
      vertex 22.5368 -2.83213e-07 2
      vertex 22.5368 -5.66426e-07 2
    endloop
  endfacet
  facet normal 0 0 -1
    outer loop
      vertex 22.5368 -1.15316e-15 2
      vertex 22.5368 -2.83213e-07 2
      vertex 20.9 -2.77556e-16 2
    endloop
  endfacet
  facet normal 0 0 -1
    outer loop
      vertex 21.0934 2.5 2
      vertex 22.5368 5.66426e-07 2
      vertex 20.7325 0.625 2
    endloop
  endfacet
  facet normal 0 0 -1
    outer loop
      vertex 21.0934 2.5 2
      vertex 20.7325 0.625 2
      vertex 20.275 1.08253 2
    endloop
  endfacet
  facet normal 0 0 -1
    outer loop
      vertex 21.0934 2.5 2
      vertex 20.275 1.08253 2
      vertex 19.65 1.25 2
    endloop
  endfacet
  facet normal 0 0 -1
    outer loop
      vertex 21.0934 2.5 2
      vertex 19.65 1.25 2
      vertex 19.025 1.08253 2
    endloop
  endfacet
  facet normal 0 0 -1
    outer loop
      vertex 21.0934 2.5 2
      vertex 19.025 1.08253 2
      vertex 16.7632 5.66426e-07 2
    endloop
  endfacet
  facet normal 0 0 -1
    outer loop
      vertex 18.4 2.77556e-16 2
      vertex 16.7632 5.66426e-07 2
      vertex 18.5675 0.625 2
    endloop
  endfacet
  facet normal 0 0 -1
    outer loop
      vertex 20.7325 0.625 2
      vertex 22.5368 -1.15316e-15 2
      vertex 20.9 -2.77556e-16 2
    endloop
  endfacet
  facet normal 0 0 -1
    outer loop
      vertex 16.7632 5.66426e-07 2
      vertex 16.7632 1.15316e-15 2
      vertex 16.7632 2.83213e-07 2
    endloop
  endfacet
  facet normal 0.965926 0.258819 0
    outer loop
      vertex 8.9 2.77556e-16 6.4
      vertex 9.06747 -0.625 6.4
      vertex 9.06747 -0.625 2
    endloop
  endfacet
  facet normal 0.965926 0.258819 0
    outer loop
      vertex 8.9 2.77556e-16 2
      vertex 8.9 2.77556e-16 6.4
      vertex 9.06747 -0.625 2
    endloop
  endfacet
  facet normal 0.707107 0.707107 0
    outer loop
      vertex 9.06747 -0.625 6.4
      vertex 9.525 -1.08253 6.4
      vertex 9.525 -1.08253 2
    endloop
  endfacet
  facet normal 0.707107 0.707107 0
    outer loop
      vertex 9.06747 -0.625 2
      vertex 9.06747 -0.625 6.4
      vertex 9.525 -1.08253 2
    endloop
  endfacet
  facet normal 0.258819 0.965926 0
    outer loop
      vertex 10.15 -1.25 6.4
      vertex 10.15 -1.25 2
      vertex 9.525 -1.08253 6.4
    endloop
  endfacet
  facet normal 0.258819 0.965926 0
    outer loop
      vertex 9.525 -1.08253 6.4
      vertex 10.15 -1.25 2
      vertex 9.525 -1.08253 2
    endloop
  endfacet
  facet normal -0.258819 0.965926 0
    outer loop
      vertex 10.775 -1.08253 6.4
      vertex 10.775 -1.08253 2
      vertex 10.15 -1.25 6.4
    endloop
  endfacet
  facet normal -0.258819 0.965926 0
    outer loop
      vertex 10.15 -1.25 6.4
      vertex 10.775 -1.08253 2
      vertex 10.15 -1.25 2
    endloop
  endfacet
  facet normal -0.707107 0.707107 0
    outer loop
      vertex 11.2325 -0.625 6.4
      vertex 11.2325 -0.625 2
      vertex 10.775 -1.08253 6.4
    endloop
  endfacet
  facet normal -0.707107 0.707107 0
    outer loop
      vertex 10.775 -1.08253 6.4
      vertex 11.2325 -0.625 2
      vertex 10.775 -1.08253 2
    endloop
  endfacet
  facet normal -0.965926 0.258819 0
    outer loop
      vertex 11.4 -2.77556e-16 6.4
      vertex 11.4 -2.77556e-16 2
      vertex 11.2325 -0.625 6.4
    endloop
  endfacet
  facet normal -0.965926 0.258819 0
    outer loop
      vertex 11.2325 -0.625 6.4
      vertex 11.4 -2.77556e-16 2
      vertex 11.2325 -0.625 2
    endloop
  endfacet
  facet normal -0.965926 -0.258819 0
    outer loop
      vertex 11.4 -2.77556e-16 6.4
      vertex 11.2325 0.625 6.4
      vertex 11.4 -2.77556e-16 2
    endloop
  endfacet
  facet normal -0.965926 -0.258819 0
    outer loop
      vertex 11.4 -2.77556e-16 2
      vertex 11.2325 0.625 6.4
      vertex 11.2325 0.625 2
    endloop
  endfacet
  facet normal -0.707107 -0.707107 0
    outer loop
      vertex 11.2325 0.625 6.4
      vertex 10.775 1.08253 6.4
      vertex 11.2325 0.625 2
    endloop
  endfacet
  facet normal -0.707107 -0.707107 0
    outer loop
      vertex 11.2325 0.625 2
      vertex 10.775 1.08253 6.4
      vertex 10.775 1.08253 2
    endloop
  endfacet
  facet normal -0.258819 -0.965926 0
    outer loop
      vertex 10.775 1.08253 2
      vertex 10.775 1.08253 6.4
      vertex 10.15 1.25 6.4
    endloop
  endfacet
  facet normal -0.258819 -0.965926 0
    outer loop
      vertex 10.15 1.25 2
      vertex 10.775 1.08253 2
      vertex 10.15 1.25 6.4
    endloop
  endfacet
  facet normal 0.258819 -0.965926 0
    outer loop
      vertex 10.15 1.25 2
      vertex 10.15 1.25 6.4
      vertex 9.525 1.08253 6.4
    endloop
  endfacet
  facet normal 0.258819 -0.965926 0
    outer loop
      vertex 9.525 1.08253 2
      vertex 10.15 1.25 2
      vertex 9.525 1.08253 6.4
    endloop
  endfacet
  facet normal 0.707107 -0.707107 0
    outer loop
      vertex 9.525 1.08253 2
      vertex 9.525 1.08253 6.4
      vertex 9.06747 0.625 6.4
    endloop
  endfacet
  facet normal 0.707107 -0.707107 0
    outer loop
      vertex 9.06747 0.625 2
      vertex 9.525 1.08253 2
      vertex 9.06747 0.625 6.4
    endloop
  endfacet
  facet normal 0.965926 -0.258819 0
    outer loop
      vertex 9.06747 0.625 2
      vertex 9.06747 0.625 6.4
      vertex 8.9 2.77556e-16 6.4
    endloop
  endfacet
  facet normal 0.965926 -0.258819 0
    outer loop
      vertex 8.9 2.77556e-16 2
      vertex 9.06747 0.625 2
      vertex 8.9 2.77556e-16 6.4
    endloop
  endfacet
  facet normal 0.707107 0.707107 0
    outer loop
      vertex 18.5675 -0.625 6.4
      vertex 19.025 -1.08253 6.4
      vertex 19.025 -1.08253 2
    endloop
  endfacet
  facet normal 0.707107 0.707107 0
    outer loop
      vertex 18.5675 -0.625 2
      vertex 18.5675 -0.625 6.4
      vertex 19.025 -1.08253 2
    endloop
  endfacet
  facet normal 0.965926 0.258819 0
    outer loop
      vertex 18.4 2.77556e-16 6.4
      vertex 18.5675 -0.625 6.4
      vertex 18.5675 -0.625 2
    endloop
  endfacet
  facet normal 0.965926 0.258819 0
    outer loop
      vertex 18.4 2.77556e-16 2
      vertex 18.4 2.77556e-16 6.4
      vertex 18.5675 -0.625 2
    endloop
  endfacet
  facet normal 0.258819 0.965926 0
    outer loop
      vertex 19.65 -1.25 6.4
      vertex 19.65 -1.25 2
      vertex 19.025 -1.08253 6.4
    endloop
  endfacet
  facet normal 0.258819 0.965926 0
    outer loop
      vertex 19.025 -1.08253 6.4
      vertex 19.65 -1.25 2
      vertex 19.025 -1.08253 2
    endloop
  endfacet
  facet normal -0.258819 0.965926 0
    outer loop
      vertex 20.275 -1.08253 6.4
      vertex 20.275 -1.08253 2
      vertex 19.65 -1.25 6.4
    endloop
  endfacet
  facet normal -0.258819 0.965926 0
    outer loop
      vertex 19.65 -1.25 6.4
      vertex 20.275 -1.08253 2
      vertex 19.65 -1.25 2
    endloop
  endfacet
  facet normal -0.707107 0.707107 0
    outer loop
      vertex 20.7325 -0.625 6.4
      vertex 20.7325 -0.625 2
      vertex 20.275 -1.08253 6.4
    endloop
  endfacet
  facet normal -0.707107 0.707107 0
    outer loop
      vertex 20.275 -1.08253 6.4
      vertex 20.7325 -0.625 2
      vertex 20.275 -1.08253 2
    endloop
  endfacet
  facet normal -0.965926 0.258819 0
    outer loop
      vertex 20.9 -2.77556e-16 6.4
      vertex 20.9 -2.77556e-16 2
      vertex 20.7325 -0.625 6.4
    endloop
  endfacet
  facet normal -0.965926 0.258819 0
    outer loop
      vertex 20.7325 -0.625 6.4
      vertex 20.9 -2.77556e-16 2
      vertex 20.7325 -0.625 2
    endloop
  endfacet
  facet normal -0.965926 -0.258819 0
    outer loop
      vertex 20.9 -2.77556e-16 6.4
      vertex 20.7325 0.625 6.4
      vertex 20.9 -2.77556e-16 2
    endloop
  endfacet
  facet normal -0.965926 -0.258819 0
    outer loop
      vertex 20.9 -2.77556e-16 2
      vertex 20.7325 0.625 6.4
      vertex 20.7325 0.625 2
    endloop
  endfacet
  facet normal -0.707107 -0.707107 0
    outer loop
      vertex 20.7325 0.625 6.4
      vertex 20.275 1.08253 6.4
      vertex 20.7325 0.625 2
    endloop
  endfacet
  facet normal -0.707107 -0.707107 0
    outer loop
      vertex 20.7325 0.625 2
      vertex 20.275 1.08253 6.4
      vertex 20.275 1.08253 2
    endloop
  endfacet
  facet normal -0.258819 -0.965926 0
    outer loop
      vertex 20.275 1.08253 2
      vertex 20.275 1.08253 6.4
      vertex 19.65 1.25 6.4
    endloop
  endfacet
  facet normal -0.258819 -0.965926 0
    outer loop
      vertex 19.65 1.25 2
      vertex 20.275 1.08253 2
      vertex 19.65 1.25 6.4
    endloop
  endfacet
  facet normal 0.258819 -0.965926 0
    outer loop
      vertex 19.65 1.25 2
      vertex 19.65 1.25 6.4
      vertex 19.025 1.08253 6.4
    endloop
  endfacet
  facet normal 0.258819 -0.965926 0
    outer loop
      vertex 19.025 1.08253 2
      vertex 19.65 1.25 2
      vertex 19.025 1.08253 6.4
    endloop
  endfacet
  facet normal 0.707107 -0.707107 0
    outer loop
      vertex 19.025 1.08253 2
      vertex 19.025 1.08253 6.4
      vertex 18.5675 0.625 6.4
    endloop
  endfacet
  facet normal 0.707107 -0.707107 0
    outer loop
      vertex 18.5675 0.625 2
      vertex 19.025 1.08253 2
      vertex 18.5675 0.625 6.4
    endloop
  endfacet
  facet normal 0.965926 -0.258819 0
    outer loop
      vertex 18.5675 0.625 2
      vertex 18.5675 0.625 6.4
      vertex 18.4 2.77556e-16 6.4
    endloop
  endfacet
  facet normal 0.965926 -0.258819 0
    outer loop
      vertex 18.4 2.77556e-16 2
      vertex 18.5675 0.625 2
      vertex 18.4 2.77556e-16 6.4
    endloop
  endfacet
endsolid OpenSCAD_Model
