solid OpenSCAD_Model
  facet normal -1 0 0
    outer loop
      vertex -20 0 0
      vertex -20 0 13
      vertex -20 4 0
    endloop
  endfacet
  facet normal -1 0 0
    outer loop
      vertex -20 4 0
      vertex -20 0 13
      vertex -20 4 13
    endloop
  endfacet
  facet normal 0 -1 0
    outer loop
      vertex -20 0 13
      vertex -20 0 0
      vertex -12.95 0 0
    endloop
  endfacet
  facet normal 0 -1 0
    outer loop
      vertex -12.95 0 13
      vertex -20 0 13
      vertex -12.95 0 0
    endloop
  endfacet
  facet normal 0 0 -1
    outer loop
      vertex -20 0 0
      vertex -20 4 0
      vertex -12.95 0 0
    endloop
  endfacet
  facet normal 0 0 -1
    outer loop
      vertex -12.95 0 0
      vertex -20 4 0
      vertex -9.55516 4 0
    endloop
  endfacet
  facet normal 0 0 -1
    outer loop
      vertex 10.15 43.15 0
      vertex -3.8885 46.5 0
      vertex 24 46.5 0
    endloop
  endfacet
  facet normal 0 0 -1
    outer loop
      vertex 20.6459 41.425 0
      vertex 24 46.5 0
      vertex 24 37.5 0
    endloop
  endfacet
  facet normal 0 0 -1
    outer loop
      vertex -9.55516 4 0
      vertex -3.8885 46.5 0
      vertex 5 37.5 0
    endloop
  endfacet
  facet normal 0 0 -1
    outer loop
      vertex -7.05 0 0
      vertex -12.95 0 0
      vertex -9.55516 4 0
    endloop
  endfacet
  facet normal 0 0 -1
    outer loop
      vertex 0 0 0
      vertex -7.05 0 0
      vertex -9.55516 4 0
    endloop
  endfacet
  facet normal 0 0 -1
    outer loop
      vertex -12.95 -0.01 0
      vertex -7.45 -1.5 0
      vertex -12.55 -1.5 0
    endloop
  endfacet
  facet normal 0 0 -1
    outer loop
      vertex 5 37.5 0
      vertex 24 46.5 0
      vertex 19.075 42.9959 0
    endloop
  endfacet
  facet normal 0 0 -1
    outer loop
      vertex -7.05 0 0
      vertex -7.05 -0.01 0
      vertex -12.95 0 0
    endloop
  endfacet
  facet normal 0 0 -1
    outer loop
      vertex 11.1459 41.425 0
      vertex 24 46.5 0
      vertex 10.725 41.0041 0
    endloop
  endfacet
  facet normal 0 0 -1
    outer loop
      vertex -7.05 -0.01 0
      vertex -7.45 -1.5 0
      vertex -12.95 -0.01 0
    endloop
  endfacet
  facet normal 0 0 -1
    outer loop
      vertex 5 37.5 0
      vertex -3.8885 46.5 0
      vertex 9 42 0
    endloop
  endfacet
  facet normal 0 0 -1
    outer loop
      vertex 5 37.5 0
      vertex 9 42 0
      vertex 9.15407 41.425 0
    endloop
  endfacet
  facet normal 0 0 -1
    outer loop
      vertex 5 37.5 0
      vertex 9.15407 41.425 0
      vertex 9.575 41.0041 0
    endloop
  endfacet
  facet normal 0 0 -1
    outer loop
      vertex 5 37.5 0
      vertex 9.575 41.0041 0
      vertex 10.15 40.85 0
    endloop
  endfacet
  facet normal 0 0 -1
    outer loop
      vertex 5 37.5 0
      vertex 10.15 40.85 0
      vertex 10.725 41.0041 0
    endloop
  endfacet
  facet normal 0 0 -1
    outer loop
      vertex 5 37.5 0
      vertex 10.725 41.0041 0
      vertex 24 46.5 0
    endloop
  endfacet
  facet normal 0 0 -1
    outer loop
      vertex 11.3 42 0
      vertex 24 46.5 0
      vertex 11.1459 41.425 0
    endloop
  endfacet
  facet normal 0 0 -1
    outer loop
      vertex 11.1459 42.575 0
      vertex 24 46.5 0
      vertex 11.3 42 0
    endloop
  endfacet
  facet normal 0 0 -1
    outer loop
      vertex 10.725 42.9959 0
      vertex 24 46.5 0
      vertex 11.1459 42.575 0
    endloop
  endfacet
  facet normal 0 0 -1
    outer loop
      vertex 20.8 42 0
      vertex 24 46.5 0
      vertex 20.6459 41.425 0
    endloop
  endfacet
  facet normal 0 0 -1
    outer loop
      vertex 9.575 42.9959 0
      vertex -3.8885 46.5 0
      vertex 10.15 43.15 0
    endloop
  endfacet
  facet normal 0 0 -1
    outer loop
      vertex 10.725 42.9959 0
      vertex 10.15 43.15 0
      vertex 24 46.5 0
    endloop
  endfacet
  facet normal 0 0 -1
    outer loop
      vertex 9.15407 42.575 0
      vertex -3.8885 46.5 0
      vertex 9.575 42.9959 0
    endloop
  endfacet
  facet normal 0 0 -1
    outer loop
      vertex 9 42 0
      vertex -3.8885 46.5 0
      vertex 9.15407 42.575 0
    endloop
  endfacet
  facet normal 0 0 -1
    outer loop
      vertex 20.6459 42.575 0
      vertex 24 46.5 0
      vertex 20.8 42 0
    endloop
  endfacet
  facet normal 0 0 -1
    outer loop
      vertex 19.65 40.85 0
      vertex 20.225 41.0041 0
      vertex 24 37.5 0
    endloop
  endfacet
  facet normal 0 0 -1
    outer loop
      vertex 20.225 41.0041 0
      vertex 20.6459 41.425 0
      vertex 24 37.5 0
    endloop
  endfacet
  facet normal 0 0 -1
    outer loop
      vertex 19.65 43.15 0
      vertex 24 46.5 0
      vertex 20.225 42.9959 0
    endloop
  endfacet
  facet normal 0 0 -1
    outer loop
      vertex 18.6541 42.575 0
      vertex 5 37.5 0
      vertex 19.075 42.9959 0
    endloop
  endfacet
  facet normal 0 0 -1
    outer loop
      vertex 0 0 0
      vertex -9.55516 4 0
      vertex 5 37.5 0
    endloop
  endfacet
  facet normal 0 0 -1
    outer loop
      vertex 19.65 43.15 0
      vertex 19.075 42.9959 0
      vertex 24 46.5 0
    endloop
  endfacet
  facet normal 0 0 -1
    outer loop
      vertex -12.95 0 0
      vertex -7.05 -0.01 0
      vertex -12.95 -0.01 0
    endloop
  endfacet
  facet normal 0 0 -1
    outer loop
      vertex 5 37.5 0
      vertex 18.6541 42.575 0
      vertex 18.5 42 0
    endloop
  endfacet
  facet normal 0 0 -1
    outer loop
      vertex 5 37.5 0
      vertex 18.5 42 0
      vertex 18.6541 41.425 0
    endloop
  endfacet
  facet normal 0 0 -1
    outer loop
      vertex 5 37.5 0
      vertex 18.6541 41.425 0
      vertex 19.075 41.0041 0
    endloop
  endfacet
  facet normal 0 0 -1
    outer loop
      vertex 20.225 42.9959 0
      vertex 24 46.5 0
      vertex 20.6459 42.575 0
    endloop
  endfacet
  facet normal 0 0 -1
    outer loop
      vertex 5 37.5 0
      vertex 19.075 41.0041 0
      vertex 19.65 40.85 0
    endloop
  endfacet
  facet normal 0 0 -1
    outer loop
      vertex 5 37.5 0
      vertex 19.65 40.85 0
      vertex 24 37.5 0
    endloop
  endfacet
  facet normal 0 1 0
    outer loop
      vertex -8.75 4 8.66506
      vertex -20 4 13
      vertex 0 4 13
    endloop
  endfacet
  facet normal 0 1 0
    outer loop
      vertex -12.1651 4 7.75
      vertex -20 4 13
      vertex -11.25 4 8.66506
    endloop
  endfacet
  facet normal 0 1 0
    outer loop
      vertex -13.8105 4 4.3
      vertex -20 4 13
      vertex -14.4 4 6.5
    endloop
  endfacet
  facet normal 0 1 0
    outer loop
      vertex -7.83494 4 7.75
      vertex -5.6 4 6.5
      vertex -7.5 4 6.5
    endloop
  endfacet
  facet normal 0 1 0
    outer loop
      vertex -5.86795 4 5.5
      vertex -5.6 4 6.5
      vertex 0 4 13
    endloop
  endfacet
  facet normal 0 1 0
    outer loop
      vertex -11.25 4 8.66506
      vertex -20 4 13
      vertex -10 4 9
    endloop
  endfacet
  facet normal 0 1 0
    outer loop
      vertex -5.6 4 6.5
      vertex -7.83494 4 7.75
      vertex 0 4 13
    endloop
  endfacet
  facet normal 0 1 0
    outer loop
      vertex -10 4 9
      vertex -20 4 13
      vertex -8.75 4 8.66506
    endloop
  endfacet
  facet normal 0 1 0
    outer loop
      vertex -7.83494 4 7.75
      vertex -8.75 4 8.66506
      vertex 0 4 13
    endloop
  endfacet
  facet normal 0 1 0
    outer loop
      vertex -12.5 4 6.5
      vertex -20 4 13
      vertex -12.1651 4 7.75
    endloop
  endfacet
  facet normal 0 1 0
    outer loop
      vertex -14.4 4 6.5
      vertex -20 4 13
      vertex -12.5 4 6.5
    endloop
  endfacet
  facet normal 0 1 0
    outer loop
      vertex -20 4 0
      vertex -20 4 13
      vertex -13.8105 4 4.3
    endloop
  endfacet
  facet normal 0 1 0
    outer loop
      vertex -20 4 0
      vertex -13.8105 4 4.3
      vertex -9.55516 4 0
    endloop
  endfacet
  facet normal 0 1 0
    outer loop
      vertex -10 4 2.1
      vertex -9.55516 4 0
      vertex -12.2 4 2.68949
    endloop
  endfacet
  facet normal 0 1 0
    outer loop
      vertex -13.8105 4 4.3
      vertex -12.2 4 2.68949
      vertex -9.55516 4 0
    endloop
  endfacet
  facet normal 0 1 0
    outer loop
      vertex -9.55516 4 0
      vertex -10 4 2.1
      vertex -9.55516 4 2.21919
    endloop
  endfacet
  facet normal 0 1 0
    outer loop
      vertex -5.86795 4 5.5
      vertex 0 4 13
      vertex 0 4 5.5
    endloop
  endfacet
  facet normal 0 0 1
    outer loop
      vertex -12.95 -0.01 13
      vertex -12.55 -1.5 13
      vertex -12.95 0 13
    endloop
  endfacet
  facet normal 0 0 1
    outer loop
      vertex -20 4 13
      vertex -20 0 13
      vertex -12.95 0 13
    endloop
  endfacet
  facet normal 0 0 1
    outer loop
      vertex -7.05 0 13
      vertex 0 0 13
      vertex -20 4 13
    endloop
  endfacet
  facet normal 0 0 1
    outer loop
      vertex -7.45 -1.5 13
      vertex -20 4 13
      vertex -12.95 0 13
    endloop
  endfacet
  facet normal 0 0 1
    outer loop
      vertex -12.55 -1.5 13
      vertex -7.45 -1.5 13
      vertex -12.95 0 13
    endloop
  endfacet
  facet normal 0 0 1
    outer loop
      vertex -7.45 -1.5 13
      vertex -7.05 -0.01 13
      vertex -20 4 13
    endloop
  endfacet
  facet normal 0 0 1
    outer loop
      vertex -7.05 -0.01 13
      vertex -7.05 0 13
      vertex -20 4 13
    endloop
  endfacet
  facet normal 0 0 1
    outer loop
      vertex 0 0 13
      vertex 0 4 13
      vertex -20 4 13
    endloop
  endfacet
  facet normal -1 0 0
    outer loop
      vertex -12.95 -0.01 0
      vertex -12.95 -0.01 13
      vertex -12.95 0 0
    endloop
  endfacet
  facet normal -1 0 0
    outer loop
      vertex -12.95 0 0
      vertex -12.95 -0.01 13
      vertex -12.95 0 13
    endloop
  endfacet
  facet normal -0.965803 -0.259276 0
    outer loop
      vertex -12.95 -0.01 0
      vertex -12.55 -1.5 0
      vertex -12.95 -0.01 13
    endloop
  endfacet
  facet normal -0.965803 -0.259276 0
    outer loop
      vertex -12.95 -0.01 13
      vertex -12.55 -1.5 0
      vertex -12.55 -1.5 13
    endloop
  endfacet
  facet normal 0 -1 0
    outer loop
      vertex -12.1651 -1.5 5.25
      vertex -12.55 -1.5 0
      vertex -7.45 -1.5 0
    endloop
  endfacet
  facet normal 0 -1 0
    outer loop
      vertex -7.5 -1.5 6.5
      vertex -7.83494 -1.5 5.25
      vertex -7.45 -1.5 0
    endloop
  endfacet
  facet normal 0 -1 0
    outer loop
      vertex -11.25 -1.5 4.33494
      vertex -12.1651 -1.5 5.25
      vertex -7.45 -1.5 0
    endloop
  endfacet
  facet normal 0 -1 0
    outer loop
      vertex -12.5 -1.5 6.5
      vertex -12.55 -1.5 0
      vertex -12.1651 -1.5 5.25
    endloop
  endfacet
  facet normal 0 -1 0
    outer loop
      vertex -12.55 -1.5 13
      vertex -12.55 -1.5 0
      vertex -12.5 -1.5 6.5
    endloop
  endfacet
  facet normal 0 -1 0
    outer loop
      vertex -7.83494 -1.5 5.25
      vertex -8.75 -1.5 4.33494
      vertex -7.45 -1.5 0
    endloop
  endfacet
  facet normal 0 -1 0
    outer loop
      vertex -12.55 -1.5 13
      vertex -12.1651 -1.5 7.75
      vertex -11.25 -1.5 8.66506
    endloop
  endfacet
  facet normal 0 -1 0
    outer loop
      vertex -7.45 -1.5 13
      vertex -12.55 -1.5 13
      vertex -10 -1.5 9
    endloop
  endfacet
  facet normal 0 -1 0
    outer loop
      vertex -8.75 -1.5 4.33494
      vertex -10 -1.5 4
      vertex -7.45 -1.5 0
    endloop
  endfacet
  facet normal 0 -1 0
    outer loop
      vertex -7.45 -1.5 13
      vertex -10 -1.5 9
      vertex -8.75 -1.5 8.66506
    endloop
  endfacet
  facet normal 0 -1 0
    outer loop
      vertex -7.45 -1.5 13
      vertex -8.75 -1.5 8.66506
      vertex -7.83494 -1.5 7.75
    endloop
  endfacet
  facet normal 0 -1 0
    outer loop
      vertex -7.45 -1.5 13
      vertex -7.5 -1.5 6.5
      vertex -7.45 -1.5 0
    endloop
  endfacet
  facet normal 0 -1 0
    outer loop
      vertex -7.45 -1.5 13
      vertex -7.83494 -1.5 7.75
      vertex -7.5 -1.5 6.5
    endloop
  endfacet
  facet normal 0 -1 0
    outer loop
      vertex -10 -1.5 4
      vertex -11.25 -1.5 4.33494
      vertex -7.45 -1.5 0
    endloop
  endfacet
  facet normal 0 -1 0
    outer loop
      vertex -12.5 -1.5 6.5
      vertex -12.1651 -1.5 7.75
      vertex -12.55 -1.5 13
    endloop
  endfacet
  facet normal 0 -1 0
    outer loop
      vertex -11.25 -1.5 8.66506
      vertex -10 -1.5 9
      vertex -12.55 -1.5 13
    endloop
  endfacet
  facet normal 0.965803 -0.259276 0
    outer loop
      vertex -7.45 -1.5 13
      vertex -7.45 -1.5 0
      vertex -7.05 -0.01 0
    endloop
  endfacet
  facet normal 0.965803 -0.259276 0
    outer loop
      vertex -7.05 -0.01 13
      vertex -7.45 -1.5 13
      vertex -7.05 -0.01 0
    endloop
  endfacet
  facet normal 1 0 0
    outer loop
      vertex -7.05 -0.01 13
      vertex -7.05 -0.01 0
      vertex -7.05 0 0
    endloop
  endfacet
  facet normal 1 0 0
    outer loop
      vertex -7.05 0 13
      vertex -7.05 -0.01 13
      vertex -7.05 0 0
    endloop
  endfacet
  facet normal 0 -1 0
    outer loop
      vertex -7.05 0 13
      vertex -7.05 0 0
      vertex 0 0 0
    endloop
  endfacet
  facet normal 0 -1 0
    outer loop
      vertex 0 0 13
      vertex -7.05 0 13
      vertex 0 0 5.5
    endloop
  endfacet
  facet normal 0 -1 0
    outer loop
      vertex 0 0 5.5
      vertex -7.05 0 13
      vertex 0 0 0
    endloop
  endfacet
  facet normal 0.991228 -0.132164 0
    outer loop
      vertex 0 0 5.5
      vertex 0 0 0
      vertex 5 37.5 0
    endloop
  endfacet
  facet normal 0.991228 -0.132164 0
    outer loop
      vertex 5 37.5 5.5
      vertex 0 0 5.5
      vertex 5 37.5 0
    endloop
  endfacet
  facet normal 0 -1 0
    outer loop
      vertex 5 37.5 5.5
      vertex 5 37.5 0
      vertex 24 37.5 0
    endloop
  endfacet
  facet normal 0 -1 0
    outer loop
      vertex 24 37.5 5.5
      vertex 5 37.5 5.5
      vertex 24 37.5 0
    endloop
  endfacet
  facet normal 1 0 0
    outer loop
      vertex 24 37.5 5.5
      vertex 24 37.5 0
      vertex 24 46.5 0
    endloop
  endfacet
  facet normal 1 0 0
    outer loop
      vertex 24 46.5 5.5
      vertex 24 37.5 5.5
      vertex 24 46.5 0
    endloop
  endfacet
  facet normal 0 1 0
    outer loop
      vertex -3.8885 46.5 0
      vertex -3.8885 46.5 5.5
      vertex 24 46.5 0
    endloop
  endfacet
  facet normal 0 1 0
    outer loop
      vertex 24 46.5 0
      vertex -3.8885 46.5 5.5
      vertex 24 46.5 5.5
    endloop
  endfacet
  facet normal -0.991228 0.132164 0
    outer loop
      vertex -9.55516 4 0
      vertex -9.55516 4 2.21919
      vertex -3.8885 46.5 0
    endloop
  endfacet
  facet normal -0.991228 0.132164 0
    outer loop
      vertex -3.8885 46.5 0
      vertex -9.55516 4 2.21919
      vertex -7.8 17.1637 2.68949
    endloop
  endfacet
  facet normal -0.991228 0.132164 0
    outer loop
      vertex -3.8885 46.5 0
      vertex -7.8 17.1637 2.68949
      vertex -6.18949 29.2426 4.3
    endloop
  endfacet
  facet normal -0.991228 0.132164 0
    outer loop
      vertex -6.18949 29.2426 4.3
      vertex -5.86795 31.6541 5.5
      vertex -3.8885 46.5 0
    endloop
  endfacet
  facet normal -0.991228 0.132164 0
    outer loop
      vertex -3.8885 46.5 0
      vertex -5.86795 31.6541 5.5
      vertex -3.8885 46.5 5.5
    endloop
  endfacet
  facet normal 0.965926 -0.258819 0
    outer loop
      vertex 9.15407 42.575 0
      vertex 9.15407 42.575 5.5
      vertex 9 42 5.5
    endloop
  endfacet
  facet normal 0.965926 -0.258819 0
    outer loop
      vertex 9 42 0
      vertex 9.15407 42.575 0
      vertex 9 42 5.5
    endloop
  endfacet
  facet normal 0.965926 0.258819 0
    outer loop
      vertex 9 42 5.5
      vertex 9.15407 41.425 5.5
      vertex 9.15407 41.425 0
    endloop
  endfacet
  facet normal 0.965926 0.258819 0
    outer loop
      vertex 9 42 0
      vertex 9 42 5.5
      vertex 9.15407 41.425 0
    endloop
  endfacet
  facet normal 0.707107 -0.707107 0
    outer loop
      vertex 9.575 42.9959 0
      vertex 9.575 42.9959 5.5
      vertex 9.15407 42.575 5.5
    endloop
  endfacet
  facet normal 0.707107 -0.707107 0
    outer loop
      vertex 9.15407 42.575 0
      vertex 9.575 42.9959 0
      vertex 9.15407 42.575 5.5
    endloop
  endfacet
  facet normal 0.258819 -0.965926 0
    outer loop
      vertex 10.15 43.15 0
      vertex 10.15 43.15 5.5
      vertex 9.575 42.9959 5.5
    endloop
  endfacet
  facet normal 0.258819 -0.965926 0
    outer loop
      vertex 9.575 42.9959 0
      vertex 10.15 43.15 0
      vertex 9.575 42.9959 5.5
    endloop
  endfacet
  facet normal -0.258819 -0.965926 0
    outer loop
      vertex 10.725 42.9959 0
      vertex 10.725 42.9959 5.5
      vertex 10.15 43.15 5.5
    endloop
  endfacet
  facet normal -0.258819 -0.965926 0
    outer loop
      vertex 10.15 43.15 0
      vertex 10.725 42.9959 0
      vertex 10.15 43.15 5.5
    endloop
  endfacet
  facet normal -0.707107 -0.707107 0
    outer loop
      vertex 11.1459 42.575 5.5
      vertex 10.725 42.9959 5.5
      vertex 11.1459 42.575 0
    endloop
  endfacet
  facet normal -0.707107 -0.707107 0
    outer loop
      vertex 11.1459 42.575 0
      vertex 10.725 42.9959 5.5
      vertex 10.725 42.9959 0
    endloop
  endfacet
  facet normal -0.965926 -0.258819 0
    outer loop
      vertex 11.3 42 5.5
      vertex 11.1459 42.575 5.5
      vertex 11.3 42 0
    endloop
  endfacet
  facet normal -0.965926 -0.258819 0
    outer loop
      vertex 11.3 42 0
      vertex 11.1459 42.575 5.5
      vertex 11.1459 42.575 0
    endloop
  endfacet
  facet normal -0.965926 0.258819 0
    outer loop
      vertex 11.3 42 5.5
      vertex 11.3 42 0
      vertex 11.1459 41.425 5.5
    endloop
  endfacet
  facet normal -0.965926 0.258819 0
    outer loop
      vertex 11.1459 41.425 5.5
      vertex 11.3 42 0
      vertex 11.1459 41.425 0
    endloop
  endfacet
  facet normal -0.707107 0.707107 0
    outer loop
      vertex 11.1459 41.425 5.5
      vertex 11.1459 41.425 0
      vertex 10.725 41.0041 5.5
    endloop
  endfacet
  facet normal -0.707107 0.707107 0
    outer loop
      vertex 10.725 41.0041 5.5
      vertex 11.1459 41.425 0
      vertex 10.725 41.0041 0
    endloop
  endfacet
  facet normal -0.258819 0.965926 0
    outer loop
      vertex 10.725 41.0041 5.5
      vertex 10.725 41.0041 0
      vertex 10.15 40.85 5.5
    endloop
  endfacet
  facet normal -0.258819 0.965926 0
    outer loop
      vertex 10.15 40.85 5.5
      vertex 10.725 41.0041 0
      vertex 10.15 40.85 0
    endloop
  endfacet
  facet normal 0.258819 0.965926 0
    outer loop
      vertex 10.15 40.85 5.5
      vertex 10.15 40.85 0
      vertex 9.575 41.0041 5.5
    endloop
  endfacet
  facet normal 0.258819 0.965926 0
    outer loop
      vertex 9.575 41.0041 5.5
      vertex 10.15 40.85 0
      vertex 9.575 41.0041 0
    endloop
  endfacet
  facet normal 0.707107 0.707107 0
    outer loop
      vertex 9.15407 41.425 5.5
      vertex 9.575 41.0041 5.5
      vertex 9.575 41.0041 0
    endloop
  endfacet
  facet normal 0.707107 0.707107 0
    outer loop
      vertex 9.15407 41.425 0
      vertex 9.15407 41.425 5.5
      vertex 9.575 41.0041 0
    endloop
  endfacet
  facet normal 0.965926 -0.258819 0
    outer loop
      vertex 18.6541 42.575 0
      vertex 18.6541 42.575 5.5
      vertex 18.5 42 5.5
    endloop
  endfacet
  facet normal 0.965926 -0.258819 0
    outer loop
      vertex 18.5 42 0
      vertex 18.6541 42.575 0
      vertex 18.5 42 5.5
    endloop
  endfacet
  facet normal 0.965926 0.258819 0
    outer loop
      vertex 18.5 42 5.5
      vertex 18.6541 41.425 5.5
      vertex 18.6541 41.425 0
    endloop
  endfacet
  facet normal 0.965926 0.258819 0
    outer loop
      vertex 18.5 42 0
      vertex 18.5 42 5.5
      vertex 18.6541 41.425 0
    endloop
  endfacet
  facet normal 0.707107 -0.707107 0
    outer loop
      vertex 19.075 42.9959 0
      vertex 19.075 42.9959 5.5
      vertex 18.6541 42.575 5.5
    endloop
  endfacet
  facet normal 0.707107 -0.707107 0
    outer loop
      vertex 18.6541 42.575 0
      vertex 19.075 42.9959 0
      vertex 18.6541 42.575 5.5
    endloop
  endfacet
  facet normal 0.258819 -0.965926 0
    outer loop
      vertex 19.65 43.15 0
      vertex 19.65 43.15 5.5
      vertex 19.075 42.9959 5.5
    endloop
  endfacet
  facet normal 0.258819 -0.965926 0
    outer loop
      vertex 19.075 42.9959 0
      vertex 19.65 43.15 0
      vertex 19.075 42.9959 5.5
    endloop
  endfacet
  facet normal -0.258819 -0.965926 0
    outer loop
      vertex 20.225 42.9959 0
      vertex 20.225 42.9959 5.5
      vertex 19.65 43.15 5.5
    endloop
  endfacet
  facet normal -0.258819 -0.965926 0
    outer loop
      vertex 19.65 43.15 0
      vertex 20.225 42.9959 0
      vertex 19.65 43.15 5.5
    endloop
  endfacet
  facet normal -0.707107 -0.707107 0
    outer loop
      vertex 20.6459 42.575 5.5
      vertex 20.225 42.9959 5.5
      vertex 20.6459 42.575 0
    endloop
  endfacet
  facet normal -0.707107 -0.707107 0
    outer loop
      vertex 20.6459 42.575 0
      vertex 20.225 42.9959 5.5
      vertex 20.225 42.9959 0
    endloop
  endfacet
  facet normal -0.965926 -0.258819 0
    outer loop
      vertex 20.8 42 5.5
      vertex 20.6459 42.575 5.5
      vertex 20.8 42 0
    endloop
  endfacet
  facet normal -0.965926 -0.258819 0
    outer loop
      vertex 20.8 42 0
      vertex 20.6459 42.575 5.5
      vertex 20.6459 42.575 0
    endloop
  endfacet
  facet normal -0.965926 0.258819 0
    outer loop
      vertex 20.8 42 5.5
      vertex 20.8 42 0
      vertex 20.6459 41.425 5.5
    endloop
  endfacet
  facet normal -0.965926 0.258819 0
    outer loop
      vertex 20.6459 41.425 5.5
      vertex 20.8 42 0
      vertex 20.6459 41.425 0
    endloop
  endfacet
  facet normal -0.707107 0.707107 0
    outer loop
      vertex 20.6459 41.425 5.5
      vertex 20.6459 41.425 0
      vertex 20.225 41.0041 5.5
    endloop
  endfacet
  facet normal -0.707107 0.707107 0
    outer loop
      vertex 20.225 41.0041 5.5
      vertex 20.6459 41.425 0
      vertex 20.225 41.0041 0
    endloop
  endfacet
  facet normal -0.258819 0.965926 0
    outer loop
      vertex 20.225 41.0041 5.5
      vertex 20.225 41.0041 0
      vertex 19.65 40.85 5.5
    endloop
  endfacet
  facet normal -0.258819 0.965926 0
    outer loop
      vertex 19.65 40.85 5.5
      vertex 20.225 41.0041 0
      vertex 19.65 40.85 0
    endloop
  endfacet
  facet normal 0.258819 0.965926 0
    outer loop
      vertex 19.65 40.85 5.5
      vertex 19.65 40.85 0
      vertex 19.075 41.0041 5.5
    endloop
  endfacet
  facet normal 0.258819 0.965926 0
    outer loop
      vertex 19.075 41.0041 5.5
      vertex 19.65 40.85 0
      vertex 19.075 41.0041 0
    endloop
  endfacet
  facet normal 0.707107 0.707107 0
    outer loop
      vertex 18.6541 41.425 5.5
      vertex 19.075 41.0041 5.5
      vertex 19.075 41.0041 0
    endloop
  endfacet
  facet normal 0.707107 0.707107 0
    outer loop
      vertex 18.6541 41.425 0
      vertex 18.6541 41.425 5.5
      vertex 19.075 41.0041 0
    endloop
  endfacet
  facet normal -0.258819 2.14479e-16 0.965926
    outer loop
      vertex -7.8 4 2.68949
      vertex -7.8 17.1637 2.68949
      vertex -9.55516 4 2.21919
    endloop
  endfacet
  facet normal -0.258819 2.14479e-16 0.965926
    outer loop
      vertex -10 4 2.1
      vertex -7.8 4 2.68949
      vertex -9.55516 4 2.21919
    endloop
  endfacet
  facet normal 0 1 -2.22045e-16
    outer loop
      vertex -10 4 2.1
      vertex -11.25 4 4.33494
      vertex -7.8 4 2.68949
    endloop
  endfacet
  facet normal 0 1 -2.22045e-16
    outer loop
      vertex -7.8 4 2.68949
      vertex -10 4 4
      vertex -6.18949 4 4.3
    endloop
  endfacet
  facet normal 0 1 -2.22045e-16
    outer loop
      vertex -6.18949 4 4.3
      vertex -8.75 4 4.33494
      vertex -5.6 4 6.5
    endloop
  endfacet
  facet normal 0 1 -2.22045e-16
    outer loop
      vertex -5.6 4 6.5
      vertex -7.83494 4 5.25
      vertex -7.5 4 6.5
    endloop
  endfacet
  facet normal 0 1 -2.22045e-16
    outer loop
      vertex -8.75 4 4.33494
      vertex -7.83494 4 5.25
      vertex -5.6 4 6.5
    endloop
  endfacet
  facet normal 0 1 -2.22045e-16
    outer loop
      vertex -10 4 4
      vertex -8.75 4 4.33494
      vertex -6.18949 4 4.3
    endloop
  endfacet
  facet normal 0 1 -2.22045e-16
    outer loop
      vertex -11.25 4 4.33494
      vertex -10 4 4
      vertex -7.8 4 2.68949
    endloop
  endfacet
  facet normal 0 1 -2.22045e-16
    outer loop
      vertex -12.1651 4 5.25
      vertex -11.25 4 4.33494
      vertex -10 4 2.1
    endloop
  endfacet
  facet normal 0 1 -2.22045e-16
    outer loop
      vertex -12.1651 4 5.25
      vertex -10 4 2.1
      vertex -12.2 4 2.68949
    endloop
  endfacet
  facet normal 0 1 -2.22045e-16
    outer loop
      vertex -12.1651 4 5.25
      vertex -12.2 4 2.68949
      vertex -12.5 4 6.5
    endloop
  endfacet
  facet normal 0 1 -2.22045e-16
    outer loop
      vertex -12.2 4 2.68949
      vertex -13.8105 4 4.3
      vertex -12.5 4 6.5
    endloop
  endfacet
  facet normal 0 1 -2.22045e-16
    outer loop
      vertex -13.8105 4 4.3
      vertex -14.4 4 6.5
      vertex -12.5 4 6.5
    endloop
  endfacet
  facet normal 0.965926 5.74693e-17 0.258819
    outer loop
      vertex -12.1651 -1.5 5.25
      vertex -12.1651 4 5.25
      vertex -12.5 4 6.5
    endloop
  endfacet
  facet normal 0.965926 5.74693e-17 0.258819
    outer loop
      vertex -12.5 -1.5 6.5
      vertex -12.1651 -1.5 5.25
      vertex -12.5 4 6.5
    endloop
  endfacet
  facet normal 0.965926 -5.74693e-17 -0.258819
    outer loop
      vertex -12.5 4 6.5
      vertex -12.1651 4 7.75
      vertex -12.1651 -1.5 7.75
    endloop
  endfacet
  facet normal 0.965926 -5.74693e-17 -0.258819
    outer loop
      vertex -12.5 -1.5 6.5
      vertex -12.5 4 6.5
      vertex -12.1651 -1.5 7.75
    endloop
  endfacet
  facet normal 0.707107 -1.57009e-16 -0.707107
    outer loop
      vertex -12.1651 4 7.75
      vertex -11.25 4 8.66506
      vertex -11.25 -1.5 8.66506
    endloop
  endfacet
  facet normal 0.707107 -1.57009e-16 -0.707107
    outer loop
      vertex -12.1651 -1.5 7.75
      vertex -12.1651 4 7.75
      vertex -11.25 -1.5 8.66506
    endloop
  endfacet
  facet normal 0.258819 -2.14479e-16 -0.965926
    outer loop
      vertex -10 4 9
      vertex -10 -1.5 9
      vertex -11.25 4 8.66506
    endloop
  endfacet
  facet normal 0.258819 -2.14479e-16 -0.965926
    outer loop
      vertex -11.25 4 8.66506
      vertex -10 -1.5 9
      vertex -11.25 -1.5 8.66506
    endloop
  endfacet
  facet normal -0.258819 -2.14479e-16 -0.965926
    outer loop
      vertex -8.75 4 8.66506
      vertex -8.75 -1.5 8.66506
      vertex -10 4 9
    endloop
  endfacet
  facet normal -0.258819 -2.14479e-16 -0.965926
    outer loop
      vertex -10 4 9
      vertex -8.75 -1.5 8.66506
      vertex -10 -1.5 9
    endloop
  endfacet
  facet normal -0.707107 -1.57009e-16 -0.707107
    outer loop
      vertex -7.83494 4 7.75
      vertex -7.83494 -1.5 7.75
      vertex -8.75 4 8.66506
    endloop
  endfacet
  facet normal -0.707107 -1.57009e-16 -0.707107
    outer loop
      vertex -8.75 4 8.66506
      vertex -7.83494 -1.5 7.75
      vertex -8.75 -1.5 8.66506
    endloop
  endfacet
  facet normal -0.965926 -5.74693e-17 -0.258819
    outer loop
      vertex -7.5 4 6.5
      vertex -7.5 -1.5 6.5
      vertex -7.83494 4 7.75
    endloop
  endfacet
  facet normal -0.965926 -5.74693e-17 -0.258819
    outer loop
      vertex -7.83494 4 7.75
      vertex -7.5 -1.5 6.5
      vertex -7.83494 -1.5 7.75
    endloop
  endfacet
  facet normal -0.965926 5.74693e-17 0.258819
    outer loop
      vertex -7.5 4 6.5
      vertex -7.83494 4 5.25
      vertex -7.5 -1.5 6.5
    endloop
  endfacet
  facet normal -0.965926 5.74693e-17 0.258819
    outer loop
      vertex -7.5 -1.5 6.5
      vertex -7.83494 4 5.25
      vertex -7.83494 -1.5 5.25
    endloop
  endfacet
  facet normal -0.965926 5.74694e-17 0.258819
    outer loop
      vertex -5.86795 4 5.5
      vertex -5.86795 31.6541 5.5
      vertex -6.18949 29.2426 4.3
    endloop
  endfacet
  facet normal -0.965926 5.74694e-17 0.258819
    outer loop
      vertex -5.86795 4 5.5
      vertex -6.18949 29.2426 4.3
      vertex -6.18949 4 4.3
    endloop
  endfacet
  facet normal -0.965926 5.74694e-17 0.258819
    outer loop
      vertex -5.86795 4 5.5
      vertex -6.18949 4 4.3
      vertex -5.6 4 6.5
    endloop
  endfacet
  facet normal 0 0 1
    outer loop
      vertex 5 37.5 5.5
      vertex -3.8885 46.5 5.5
      vertex -5.86795 31.6541 5.5
    endloop
  endfacet
  facet normal 0 0 1
    outer loop
      vertex -5.86795 31.6541 5.5
      vertex -5.86795 4 5.5
      vertex 0 4 5.5
    endloop
  endfacet
  facet normal 0 0 1
    outer loop
      vertex 5 37.5 5.5
      vertex -5.86795 31.6541 5.5
      vertex 0 4 5.5
    endloop
  endfacet
  facet normal 0 0 1
    outer loop
      vertex 0 0 5.5
      vertex 5 37.5 5.5
      vertex 0 4 5.5
    endloop
  endfacet
  facet normal 0 0 1
    outer loop
      vertex 19.075 42.9959 5.5
      vertex 24 46.5 5.5
      vertex 5 37.5 5.5
    endloop
  endfacet
  facet normal 0 0 1
    outer loop
      vertex 9.15407 41.425 5.5
      vertex -3.8885 46.5 5.5
      vertex 5 37.5 5.5
    endloop
  endfacet
  facet normal 0 0 1
    outer loop
      vertex 9.575 41.0041 5.5
      vertex 9.15407 41.425 5.5
      vertex 5 37.5 5.5
    endloop
  endfacet
  facet normal 0 0 1
    outer loop
      vertex 9 42 5.5
      vertex -3.8885 46.5 5.5
      vertex 9.15407 41.425 5.5
    endloop
  endfacet
  facet normal 0 0 1
    outer loop
      vertex 9.15407 42.575 5.5
      vertex -3.8885 46.5 5.5
      vertex 9 42 5.5
    endloop
  endfacet
  facet normal 0 0 1
    outer loop
      vertex 11.1459 42.575 5.5
      vertex 11.3 42 5.5
      vertex 24 46.5 5.5
    endloop
  endfacet
  facet normal 0 0 1
    outer loop
      vertex 9.575 42.9959 5.5
      vertex -3.8885 46.5 5.5
      vertex 9.15407 42.575 5.5
    endloop
  endfacet
  facet normal 0 0 1
    outer loop
      vertex 10.15 43.15 5.5
      vertex -3.8885 46.5 5.5
      vertex 9.575 42.9959 5.5
    endloop
  endfacet
  facet normal 0 0 1
    outer loop
      vertex 24 46.5 5.5
      vertex -3.8885 46.5 5.5
      vertex 10.15 43.15 5.5
    endloop
  endfacet
  facet normal 0 0 1
    outer loop
      vertex 10.725 41.0041 5.5
      vertex 10.15 40.85 5.5
      vertex 5 37.5 5.5
    endloop
  endfacet
  facet normal 0 0 1
    outer loop
      vertex 19.075 42.9959 5.5
      vertex 19.65 43.15 5.5
      vertex 24 46.5 5.5
    endloop
  endfacet
  facet normal 0 0 1
    outer loop
      vertex 10.15 40.85 5.5
      vertex 9.575 41.0041 5.5
      vertex 5 37.5 5.5
    endloop
  endfacet
  facet normal 0 0 1
    outer loop
      vertex 24 46.5 5.5
      vertex 11.3 42 5.5
      vertex 11.1459 41.425 5.5
    endloop
  endfacet
  facet normal 0 0 1
    outer loop
      vertex 24 46.5 5.5
      vertex 10.725 41.0041 5.5
      vertex 5 37.5 5.5
    endloop
  endfacet
  facet normal 0 0 1
    outer loop
      vertex 24 46.5 5.5
      vertex 11.1459 41.425 5.5
      vertex 10.725 41.0041 5.5
    endloop
  endfacet
  facet normal 0 0 1
    outer loop
      vertex 19.075 41.0041 5.5
      vertex 18.6541 41.425 5.5
      vertex 5 37.5 5.5
    endloop
  endfacet
  facet normal 0 0 1
    outer loop
      vertex 18.6541 41.425 5.5
      vertex 18.5 42 5.5
      vertex 5 37.5 5.5
    endloop
  endfacet
  facet normal 0 0 1
    outer loop
      vertex 18.5 42 5.5
      vertex 18.6541 42.575 5.5
      vertex 5 37.5 5.5
    endloop
  endfacet
  facet normal 0 0 1
    outer loop
      vertex 18.6541 42.575 5.5
      vertex 19.075 42.9959 5.5
      vertex 5 37.5 5.5
    endloop
  endfacet
  facet normal 0 0 1
    outer loop
      vertex 19.65 43.15 5.5
      vertex 20.225 42.9959 5.5
      vertex 24 46.5 5.5
    endloop
  endfacet
  facet normal 0 0 1
    outer loop
      vertex 20.225 42.9959 5.5
      vertex 20.6459 42.575 5.5
      vertex 24 46.5 5.5
    endloop
  endfacet
  facet normal 0 0 1
    outer loop
      vertex 19.65 40.85 5.5
      vertex 19.075 41.0041 5.5
      vertex 24 37.5 5.5
    endloop
  endfacet
  facet normal 0 0 1
    outer loop
      vertex 24 37.5 5.5
      vertex 24 46.5 5.5
      vertex 20.6459 42.575 5.5
    endloop
  endfacet
  facet normal 0 0 1
    outer loop
      vertex 24 37.5 5.5
      vertex 20.6459 42.575 5.5
      vertex 20.8 42 5.5
    endloop
  endfacet
  facet normal 0 0 1
    outer loop
      vertex 24 37.5 5.5
      vertex 20.8 42 5.5
      vertex 20.6459 41.425 5.5
    endloop
  endfacet
  facet normal 0 0 1
    outer loop
      vertex 24 37.5 5.5
      vertex 20.6459 41.425 5.5
      vertex 20.225 41.0041 5.5
    endloop
  endfacet
  facet normal 0 0 1
    outer loop
      vertex 24 37.5 5.5
      vertex 20.225 41.0041 5.5
      vertex 19.65 40.85 5.5
    endloop
  endfacet
  facet normal 0 0 1
    outer loop
      vertex 24 37.5 5.5
      vertex 19.075 41.0041 5.5
      vertex 5 37.5 5.5
    endloop
  endfacet
  facet normal 0 0 1
    outer loop
      vertex 10.15 43.15 5.5
      vertex 10.725 42.9959 5.5
      vertex 24 46.5 5.5
    endloop
  endfacet
  facet normal 0 0 1
    outer loop
      vertex 10.725 42.9959 5.5
      vertex 11.1459 42.575 5.5
      vertex 24 46.5 5.5
    endloop
  endfacet
  facet normal 1 0 0
    outer loop
      vertex 0 0 13
      vertex 0 0 5.5
      vertex 0 4 5.5
    endloop
  endfacet
  facet normal 1 0 0
    outer loop
      vertex 0 4 13
      vertex 0 0 13
      vertex 0 4 5.5
    endloop
  endfacet
  facet normal 0.707107 1.57009e-16 0.707107
    outer loop
      vertex -11.25 -1.5 4.33494
      vertex -11.25 4 4.33494
      vertex -12.1651 4 5.25
    endloop
  endfacet
  facet normal 0.707107 1.57009e-16 0.707107
    outer loop
      vertex -12.1651 -1.5 5.25
      vertex -11.25 -1.5 4.33494
      vertex -12.1651 4 5.25
    endloop
  endfacet
  facet normal 0.258819 2.14479e-16 0.965926
    outer loop
      vertex -10 -1.5 4
      vertex -10 4 4
      vertex -11.25 4 4.33494
    endloop
  endfacet
  facet normal 0.258819 2.14479e-16 0.965926
    outer loop
      vertex -11.25 -1.5 4.33494
      vertex -10 -1.5 4
      vertex -11.25 4 4.33494
    endloop
  endfacet
  facet normal -0.258819 2.14479e-16 0.965926
    outer loop
      vertex -8.75 -1.5 4.33494
      vertex -8.75 4 4.33494
      vertex -10 4 4
    endloop
  endfacet
  facet normal -0.258819 2.14479e-16 0.965926
    outer loop
      vertex -10 -1.5 4
      vertex -8.75 -1.5 4.33494
      vertex -10 4 4
    endloop
  endfacet
  facet normal -0.707107 1.57009e-16 0.707107
    outer loop
      vertex -7.83494 4 5.25
      vertex -8.75 4 4.33494
      vertex -7.83494 -1.5 5.25
    endloop
  endfacet
  facet normal -0.707107 1.57009e-16 0.707107
    outer loop
      vertex -7.83494 -1.5 5.25
      vertex -8.75 4 4.33494
      vertex -8.75 -1.5 4.33494
    endloop
  endfacet
  facet normal -0.707107 1.57009e-16 0.707107
    outer loop
      vertex -6.18949 29.2426 4.3
      vertex -7.8 17.1637 2.68949
      vertex -6.18949 4 4.3
    endloop
  endfacet
  facet normal -0.707107 1.57009e-16 0.707107
    outer loop
      vertex -6.18949 4 4.3
      vertex -7.8 17.1637 2.68949
      vertex -7.8 4 2.68949
    endloop
  endfacet
endsolid OpenSCAD_Model
